# https://github.com/mikedh/trimesh

o c_neck__1.stl
v 47.20372391 -2.61894321 36.14293289
v 47.18430328 -2.96946430 36.15414429
v 47.55404663 -2.65000010 35.94067001
v 47.55404663 -3.00000000 35.94067001
v 47.92379379 -2.96946430 35.72719955
v 46.82208633 -2.87847900 36.36326981
v 46.86161041 -2.52650046 36.34045029
v 46.47476959 -2.72889590 36.56379318
v 46.53572464 -2.37483883 36.52859879
v 46.38127899 -2.27785945 36.61777115
v 46.14942169 -2.52376056 36.75163269
v 46.23371124 -2.16751289 36.70296860
v 45.85266876 -2.26724863 36.92296219
v 45.96264267 -1.90938222 36.85947037
v 45.59055328 -1.96458220 37.07429504
v 45.72887802 -1.60649729 36.99443436
v 45.36840820 -1.62192249 37.20255280
v 45.53789139 -1.26595747 37.10470200
v 45.19075394 -1.24624503 37.30511856
v 45.39416122 -0.89574474 37.18768311
v 45.06121063 -0.84519768 37.37990952
v 45.34111786 -0.70220101 37.21830750
v 45.30105972 -0.50453645 37.24143600
v 44.98241806 -0.42694452 37.42540359
v 45.26076508 -0.10150225 37.26469803
v 44.95597076 0.00000000 37.44067001
v 45.27422333 0.30391109 37.25693130
v 44.98241806 0.42694452 37.42540359
v 45.34111786 0.70220101 37.21830750
v 45.06121063 0.84519768 37.37990952
v 45.45988083 1.08403194 37.14973831
v 45.19075394 1.24624503 37.30511856
v 45.49737930 1.17585754 37.12808990
v 45.53789139 1.26595747 37.10470200
v 45.36840820 1.62192249 37.20255280
v 45.62773132 1.44045401 37.05282974
v 45.59055328 1.96458220 37.07429504
v 45.84073257 1.76311314 36.92985535
v 45.85266876 2.26724863 36.92296219
v 46.09389114 2.04444623 36.78369141
v 46.23371124 2.16751289 36.70296860
v 46.14942169 2.52376056 36.75163269
v 46.38127899 2.27785945 36.61777115
v 46.47476959 2.72889590 36.56379318
v 46.69615173 2.45788145 36.43597794
v 46.82208633 2.87847900 36.36326981
v 47.03113174 2.58029294 36.24257660
v 47.18430328 2.96946430 36.15414429
v 47.37837219 2.64222431 36.04209900
v 47.55404663 3.00000000 35.94067001
v 47.72972488 2.64222431 35.83924484
v 47.92379379 2.96946430 35.72719955
v 47.90437317 2.61894321 35.73841095
v 48.07696533 2.58029294 35.63876724
v 48.28601074 2.87847900 35.51807404
v 48.41194534 2.45788145 35.44536591
v 48.63332748 2.72889590 35.31755066
v 48.72681808 2.27785945 35.26357269
v 48.95867538 2.52376056 35.12971115
v 49.01420212 2.04444623 35.09764862
v 49.25542831 2.26724863 34.95838165
v 49.26736450 1.76311314 34.95148849
v 49.51754379 1.96458220 34.80704880
v 49.37921906 1.60649729 34.88690948
v 49.73968887 1.62192249 34.67879105
v 49.48036575 1.44045401 34.82851410
v 49.91734314 1.24624503 34.57622528
v 49.64821243 1.08403194 34.73160553
v 50.04688263 0.84519768 34.50143051
v 49.76697922 0.70220101 34.66303635
v 50.12567902 0.42694452 34.45594025
v 49.83387375 0.30391109 34.62441254
v 50.15212631 0.00000000 34.44067001
v 49.84733200 -0.10150225 34.61664581
v 50.12567902 -0.42694452 34.45594025
v 49.80703735 -0.50453645 34.63990784
v 50.04688263 -0.84519768 34.50143051
v 49.71393585 -0.89574474 34.69366074
v 49.91734314 -1.24624503 34.57622528
v 49.57020569 -1.26595747 34.77664185
v 49.73968887 -1.62192249 34.67879105
v 49.48036575 -1.44045401 34.82851410
v 49.37921906 -1.60649729 34.88690948
v 49.51754379 -1.96458220 34.80704880
v 49.14545441 -1.90938222 35.02187347
v 49.25542831 -2.26724863 34.95838165
v 49.08094788 -1.97836602 35.05911636
v 49.01420212 -2.04444623 35.09764862
v 48.87438583 -2.16751289 35.17837524
v 48.95867538 -2.52376056 35.12971115
v 48.57237244 -2.37483883 35.35274124
v 48.63332748 -2.72889590 35.31755066
v 48.24648666 -2.52650046 35.54089355
v 48.28601074 -2.87847900 35.51807404
v 48.07696533 -2.58029294 35.63876724
v 47.90437317 -2.61894321 35.73841095
v 49.84446335 2.77069283 30.80778694
v 49.84446335 0.49749371 30.80778694
v 49.85968781 2.76722145 30.75097466
v 49.89707947 0.49113229 30.61142159
v 49.89314270 2.75094414 30.62612343
v 49.92491531 2.71805048 30.50753403
v 49.94496918 0.49522996 30.43270302
v 49.95391846 2.66967463 30.39929581
v 49.97914886 2.60748434 30.30513954
v 49.98765945 0.55464613 30.27338028
v 49.99973297 2.53362322 30.22831154
v 50.02747726 2.26895428 30.12477493
v 50.01496506 2.45063806 30.17146111
v 50.02432251 2.36138940 30.13654900
v 50.00443268 0.60192883 30.21078300
v 50.02747726 0.78581166 30.12477493
v 50.01702499 0.65806967 30.16378212
v 50.02482986 0.72036427 30.13464546
v 49.52747726 2.26895428 29.25874901
v 49.52747726 0.78581166 29.25874901
v 49.51760483 0.72036427 29.25610542
v 49.48846817 0.65806967 29.24829674
v 49.44146729 0.60192883 29.23570442
v 49.37887192 0.55464613 29.21893120
v 49.21954727 0.49522996 29.17624092
v 49.04082870 0.49113229 29.12835312
v 48.84446335 0.49749371 29.07573700
v 49.70844650 0.45511156 30.88631821
v 48.70844650 0.45511156 29.15426636
v 49.59141159 0.36455342 30.95388794
v 48.59141159 0.36455342 29.22183609
v 49.50574493 0.23540543 31.00334549
v 48.50574493 0.23540543 29.27129555
v 49.46052170 0.08133851 31.02945709
v 48.46052170 0.08133851 29.29740715
v 49.46052170 -0.08133851 31.02945709
v 48.46052170 -0.08133851 29.29740715
v 49.50574493 -0.23540543 31.00334549
v 48.50574493 -0.23540543 29.27129555
v 49.59141159 -0.36455342 30.95388794
v 48.59141159 -0.36455342 29.22183609
v 49.70844650 -0.45511156 30.88631821
v 48.70844650 -0.45511156 29.15426636
v 49.84446335 -0.49749371 30.80778694
v 48.84446335 -0.49749371 29.07573700
v 49.04082870 -0.49113229 29.12835312
v 49.89707947 -0.49113229 30.61142159
v 49.02612686 2.75094414 29.12441444
v 48.90127563 2.76722145 29.09095955
v 48.84446335 2.77069283 29.07573700
v 49.14471817 2.71805048 29.15618896
v 49.25295639 2.66967463 29.18519211
v 49.34711075 2.60748434 29.21042061
v 49.42393875 2.53362322 29.23100662
v 49.48078918 2.45063806 29.24624062
v 49.51570511 2.36138940 29.25559425
v 48.08846283 2.93993855 31.82161522
v 47.08846283 2.93993855 30.08956528
v 48.15760040 0.94409674 29.47229767
v 48.23337555 0.47564772 29.42854881
v 48.25876236 0.00000000 29.41389275
v 48.23337555 -0.47564772 29.42854881
v 48.15760040 -0.94409674 29.47229767
v 48.84446335 -2.77069283 29.07573700
v 47.08846283 -2.93993855 30.08956528
v 47.38456345 -2.60797429 29.91861153
v 47.64311981 -2.23653960 29.76933289
v 47.86022186 -1.83125603 29.64398956
v 48.03258514 -1.39825737 29.54447556
v 48.03258514 1.39825737 29.54447556
v 47.86022186 1.83125603 29.64398956
v 47.64311981 2.23653960 29.76933289
v 47.38456345 2.60797429 29.91861153
v 49.89314270 -2.75094414 30.62612343
v 49.85968781 -2.76722145 30.75097466
v 49.84446335 -2.77069283 30.80778694
v 49.92491531 -2.71805048 30.50753403
v 49.94496918 -0.49522996 30.43270302
v 49.95391846 -2.66967463 30.39929581
v 49.97914886 -2.60748434 30.30513954
v 49.98765945 -0.55464613 30.27338028
v 49.99973297 -2.53362322 30.22831154
v 50.02747726 -2.26895428 30.12477493
v 50.01496506 -2.45063806 30.17146111
v 50.02432251 -2.36138940 30.13654900
v 50.00443268 -0.60192883 30.21078300
v 50.02747726 -0.78581166 30.12477493
v 50.01702499 -0.65806967 30.16378212
v 50.02482986 -0.72036427 30.13464546
v 48.82743835 0.92468393 31.39496613
v 48.90809250 0.46650434 31.34840202
v 48.93513870 0.00000000 31.33278847
v 48.90809250 -0.46650434 31.34840202
v 48.82743835 -0.92468393 31.39496613
v 48.28284454 2.16912460 31.70938873
v 48.51200104 1.78365827 31.57708549
v 48.69461823 1.36636245 31.47165108
v 48.01123810 2.51588297 31.86620140
v 47.93712616 3.08127594 31.90899086
v 47.70203018 2.81774521 32.04472351
v 47.77894211 3.21224070 32.00031662
v 47.61444855 3.33239174 32.09528732
v 47.61444855 6.42500019 32.09528732
v 46.33706284 4.80000019 32.83278656
v 46.99344635 3.26613212 32.45382309
v 47.36073303 3.06932473 32.24177170
v 47.61110687 6.54838228 32.09721756
v 47.15903854 7.19999981 32.35821915
v 46.33130264 6.66872931 32.83611298
v 46.28086472 6.50366783 32.86523438
v 47.60109711 6.67128229 32.10299683
v 47.30581284 7.17039967 32.27347946
v 47.58445740 6.79322052 32.11260223
v 47.43521118 7.08510399 32.19877243
v 47.53190994 6.95421171 32.14294052
v 46.58457947 7.19999981 32.68988037
v 46.32938004 6.84375000 32.83722305
v 46.47395325 7.17144442 32.75375366
v 46.38438416 7.09121323 32.80546570
v 46.33293152 6.97458076 32.83517456
v 46.18424606 6.36879444 32.92101288
v 46.23575592 5.12139368 32.89127731
v 46.31094742 4.97101021 32.84786606
v 46.12055588 5.23301268 32.95778656
v 46.05329132 6.28063726 32.99662018
v 45.97924042 5.29240370 33.03937531
v 45.90404892 6.25000000 33.08278656
v 45.82885742 5.29240370 33.12620163
v 45.75480270 6.28063726 33.16895294
v 45.68754196 5.23301268 33.20778656
v 45.62384796 6.36879444 33.24456024
v 45.57234192 5.12139368 33.27429962
v 45.52723312 6.50366783 33.30034256
v 45.49715042 4.97101021 33.31771088
v 44.19364929 6.42500019 34.07028961
v 45.47103500 4.80000019 33.33278656
v 44.19364929 3.33239174 34.07028961
v 44.62815857 3.17481828 33.81942368
v 44.27307129 2.95012283 34.02443314
v 43.94709396 2.67278266 34.21263504
v 43.65603638 2.34774661 34.38068008
v 40.49139023 2.93731046 36.20778656
v 43.40509415 1.98081481 34.52556229
v 43.19874573 1.57853544 34.64469528
v 41.99552155 0.49240386 35.33937454
v 43.04067230 1.14808702 34.73595810
v 42.13683701 0.43301269 35.25778961
v 42.93369675 0.69715095 34.79772186
v 42.25203705 0.32139382 35.19127655
v 42.32722855 0.17101008 35.14786530
v 45.47679520 6.66872931 33.32946396
v 44.64905930 7.19999981 33.80735779
v 44.19698715 6.54838228 34.06835938
v 44.20699692 6.67128229 34.06258011
v 44.50228119 7.17039967 33.89209747
v 44.22363663 6.79322052 34.05297470
v 44.37288666 7.08510399 33.96680450
v 44.27618790 6.95421171 34.02263260
v 45.22351456 7.19999981 33.47569275
v 45.47871399 6.84375000 33.32835388
v 45.33414459 7.17144442 33.41182327
v 45.42370987 7.09121323 33.36011124
v 45.47516632 6.97458076 33.33040237
v 40.49139023 0.35707143 36.20778656
v 41.58862305 0.32139382 35.57429886
v 41.70382690 0.43301269 35.50778961
v 41.84513855 0.49240386 35.42620087
v 40.57291031 0.22966434 36.16072083
v 41.51343155 0.17101008 35.61771011
v 40.61582565 0.07920483 36.13594437
v 41.48731995 0.00000000 35.63278961
v 40.61582565 -0.07920483 36.13594437
v 41.51343155 -0.17101008 35.61771011
v 40.57291031 -0.22966434 36.16072083
v 41.58862305 -0.32139382 35.57429886
v 40.49139023 -0.35707143 36.20778656
v 40.49139023 -2.93731046 36.20778656
v 44.19364929 -3.33239174 34.07028961
v 43.65603638 -2.34774661 34.38068008
v 43.40509415 -1.98081481 34.52556229
v 43.19874573 -1.57853544 34.64469528
v 44.19364929 -6.42500019 34.07028961
v 45.47103500 -4.80000019 33.33278656
v 44.62815857 -3.17481828 33.81942368
v 44.27307129 -2.95012283 34.02443314
v 44.19698715 -6.54838228 34.06835938
v 44.64905930 -7.19999981 33.80735779
v 45.47679520 -6.66872931 33.32946396
v 45.52723312 -6.50366783 33.30034256
v 44.20699692 -6.67128229 34.06258011
v 44.50228119 -7.17039967 33.89209747
v 44.22363663 -6.79322052 34.05297470
v 44.37288666 -7.08510399 33.96680450
v 44.27618790 -6.95421171 34.02263260
v 45.22351456 -7.19999981 33.47569275
v 45.47871399 -6.84375000 33.32835388
v 45.33414459 -7.17144442 33.41182327
v 45.42370987 -7.09121323 33.36011124
v 45.47516632 -6.97458076 33.33040237
v 45.62384796 -6.36879444 33.24456024
v 45.57234192 -5.12139368 33.27429962
v 45.49715042 -4.97101021 33.31771088
v 45.68754196 -5.23301268 33.20778656
v 45.75480270 -6.28063726 33.16895294
v 45.82885742 -5.29240370 33.12620163
v 45.90404892 -6.25000000 33.08278656
v 45.97924042 -5.29240370 33.03937531
v 46.05329132 -6.28063726 32.99662018
v 46.12055588 -5.23301268 32.95778656
v 46.18424606 -6.36879444 32.92101288
v 46.23575592 -5.12139368 32.89127731
v 46.28086472 -6.50366783 32.86523438
v 46.31094742 -4.97101021 32.84786606
v 47.61444855 -6.42500019 32.09528732
v 46.33706284 -4.80000019 32.83278656
v 47.61444855 -3.33239174 32.09528732
v 46.99344635 -3.26613212 32.45382309
v 47.36073303 -3.06932473 32.24177170
v 47.70203018 -2.81774521 32.04472351
v 47.77894211 -3.21224070 32.00031662
v 47.93712616 -3.08127594 31.90899086
v 46.33130264 -6.66872931 32.83611298
v 47.15903854 -7.19999981 32.35821915
v 47.61110687 -6.54838228 32.09721756
v 47.60109711 -6.67128229 32.10299683
v 47.30581284 -7.17039967 32.27347946
v 47.58445740 -6.79322052 32.11260223
v 47.43521118 -7.08510399 32.19877243
v 47.53190994 -6.95421171 32.14294052
v 46.58457947 -7.19999981 32.68988037
v 46.32938004 -6.84375000 32.83722305
v 46.47395325 -7.17144442 32.75375366
v 46.38438416 -7.09121323 32.80546570
v 46.33293152 -6.97458076 32.83517456
v 48.01123810 -2.51588297 31.86620140
v 48.08846283 -2.93993855 31.82161522
v 48.28284454 -2.16912460 31.70938873
v 48.51200104 -1.78365827 31.57708549
v 48.69461823 -1.36636245 31.47165108
v 42.32722855 -0.17101008 35.14786530
v 42.87972641 -0.23377421 34.82888031
v 42.35334396 0.00000000 35.13278961
v 42.87972641 0.23377421 34.82888031
v 42.93369675 -0.69715095 34.79772186
v 42.25203705 -0.32139382 35.19127655
v 42.13683701 -0.43301269 35.25778961
v 43.04067230 -1.14808702 34.73595810
v 41.99552155 -0.49240386 35.33937454
v 41.84513855 -0.49240386 35.42620087
v 41.70382690 -0.43301269 35.50778961
v 46.31094742 4.62898970 32.84786606
v 46.60671616 3.40465522 32.67710114
v 46.23575592 4.47860622 32.89127731
v 46.20744705 3.48242235 32.90761948
v 46.12055588 4.36698723 32.95778656
v 45.97924042 4.30759621 33.03937531
v 45.80276489 3.49804544 33.14126587
v 45.82885742 4.30759621 33.12620163
v 45.68754196 4.36698723 33.20778656
v 45.39989090 3.45124578 33.37386322
v 45.57234192 4.47860622 33.27429962
v 45.49715042 4.62898970 33.31771088
v 45.00601196 3.34285879 33.60126877
v 45.00601196 -3.34285879 33.60126877
v 45.49715042 -4.62898970 33.31771088
v 45.39989090 -3.45124578 33.37386322
v 45.57234192 -4.47860622 33.27429962
v 45.68754196 -4.36698723 33.20778656
v 45.80276489 -3.49804544 33.14126587
v 45.82885742 -4.30759621 33.12620163
v 45.97924042 -4.30759621 33.03937531
v 46.20744705 -3.48242235 32.90761948
v 46.12055588 -4.36698723 32.95778656
v 46.23575592 -4.47860622 32.89127731
v 46.60671616 -3.40465522 32.67710114
v 46.31094742 -4.62898970 32.84786606
v 43.94709396 -2.67278266 34.21263504
v 49.21954727 -0.49522996 29.17624092
v 49.37887192 -0.55464613 29.21893120
v 49.44146729 -0.60192883 29.23570442
v 49.48846817 -0.65806967 29.24829674
v 49.51760483 -0.72036427 29.25610542
v 49.52747726 -0.78581166 29.25874901
v 48.90127563 -2.76722145 29.09095955
v 49.02612686 -2.75094414 29.12441444
v 49.14471817 -2.71805048 29.15618896
v 49.25295639 -2.66967463 29.18519211
v 49.34711075 -2.60748434 29.21042061
v 49.42393875 -2.53362322 29.23100662
v 49.52747726 -2.26895428 29.25874901
v 49.48078918 -2.45063806 29.24624062
v 49.51570511 -2.36138940 29.25559425
v 40.42853546 -2.93305802 36.19094467
v 40.32989883 -0.44303319 36.16451645
v 40.30461502 -2.91612196 36.15774155
v 40.18705750 -2.88280225 36.12624359
v 40.14134598 -0.49113229 36.11399460
v 40.07986450 -2.83423448 36.09751892
v 40.00954437 -0.52760291 36.07867813
v 39.98669434 -2.77207279 36.07255554
v 39.91071320 -2.69843483 36.05219650
v 39.80837631 -2.43517971 36.02477646
v 39.85451508 -2.61582899 36.03713608
v 39.82001114 -2.52706957 36.02789307
v 39.90240479 -0.59459847 36.04996872
v 39.80837631 -0.78581166 36.02477646
v 39.83259964 -0.68419886 36.03126526
v 39.30837631 -0.78581166 35.15874863
v 39.31486893 -0.68419886 35.13452530
v 39.33357239 -0.59459847 35.06472015
v 39.36227798 -0.52760291 34.95758438
v 39.39759445 -0.49113229 34.82578278
v 39.44811630 -0.44303319 34.63722992
v 39.49139023 -0.35707143 34.47573853
v 39.57291031 -0.22966434 34.42866898
v 39.61582565 -0.07920483 34.40389252
v 39.61582565 0.07920483 34.40389252
v 39.57291031 0.22966434 34.42866898
v 39.49139023 0.35707143 34.47573853
v 40.32989883 0.44303319 36.16451645
v 39.44811630 0.44303319 34.63722992
v 39.39759445 0.49113229 34.82578278
v 40.14134598 0.49113229 36.11399460
v 40.30461502 2.91612196 36.15774155
v 40.42853546 2.93305802 36.19094467
v 40.18705750 2.88280225 36.12624359
v 40.07986450 2.83423448 36.09751892
v 40.00954437 0.52760291 36.07867813
v 39.98669434 2.77207279 36.07255554
v 39.91071320 2.69843483 36.05219650
v 39.80837631 2.43517971 36.02477646
v 39.85451508 2.61582899 36.03713608
v 39.82001114 2.52706957 36.02789307
v 39.90240479 0.59459847 36.04996872
v 39.80837631 0.78581166 36.02477646
v 39.83259964 0.68419886 36.03126526
v 39.30837631 0.78581166 35.15874863
v 39.30837631 2.43517971 35.15874863
v 39.31149292 2.52706957 35.14711761
v 39.33579636 2.69843483 35.05641174
v 39.32073975 2.61582899 35.11261368
v 39.35615540 2.77207279 34.98043442
v 39.38112259 2.83423448 34.88726044
v 39.40984344 2.88280225 34.78007126
v 39.47454834 2.93305802 34.53858948
v 39.44134521 2.91612196 34.66250992
v 43.19364929 3.33239174 32.33823776
v 39.49139023 2.93731046 34.47573853
v 39.44134521 -2.91612196 34.66250992
v 39.47454834 -2.93305802 34.53858948
v 39.49139023 -2.93731046 34.47573853
v 39.40984344 -2.88280225 34.78007126
v 39.38112259 -2.83423448 34.88726044
v 39.35615540 -2.77207279 34.98043442
v 39.33579636 -2.69843483 35.05641174
v 39.30837631 -2.43517971 35.15874863
v 39.32073975 -2.61582899 35.11261368
v 39.31149292 -2.52706957 35.14711761
v 39.36227798 0.52760291 34.95758438
v 39.33357239 0.59459847 35.06472015
v 39.31486893 0.68419886 35.13452530
v 40.58862305 -0.32139382 33.84224701
v 40.70382690 -0.43301269 33.77573776
v 40.84513855 -0.49240386 33.69414902
v 40.51343155 -0.17101008 33.88566208
v 40.48731995 0.00000000 33.90073776
v 40.51343155 0.17101008 33.88566208
v 40.58862305 0.32139382 33.84224701
v 42.85552979 3.06760812 32.53345108
v 42.54779053 2.75732923 32.71112442
v 42.27499771 2.40615702 32.86861801
v 42.04119873 2.01929951 33.00360489
v 41.84985352 1.60249412 33.11407852
v 40.84513855 0.49240386 33.69414902
v 40.99552155 0.49240386 33.60732651
v 41.70380783 1.16192257 33.19839859
v 41.13683701 0.43301269 33.52573776
v 41.60522079 0.70411879 33.25531387
v 41.25203705 0.32139382 33.45922470
v 41.55556107 0.23587231 33.28398895
v 41.32722855 0.17101008 33.41581345
v 41.35334396 0.00000000 33.40073776
v 41.55556107 -0.23587231 33.28398895
v 41.32722855 -0.17101008 33.41581345
v 41.25203705 -0.32139382 33.45922470
v 41.60522079 -0.70411879 33.25531387
v 41.13683701 -0.43301269 33.52573776
v 41.70380783 -1.16192257 33.19839859
v 40.99552155 -0.49240386 33.60732651
v 41.84985352 -1.60249412 33.11407852
v 42.04119873 -2.01929951 33.00360489
v 42.27499771 -2.40615702 32.86861801
v 42.54779053 -2.75732923 32.71112442
v 42.85552979 -3.06760812 32.53345108
v 43.19364929 -3.33239174 32.33823776
v 40.70382690 0.43301269 33.77573776
v 50.30809402 -0.46650434 33.77327347
v 50.33513641 0.00000000 33.75765991
v 50.30809402 0.46650434 33.77327347
v 50.22743988 0.92468393 33.81983948
v 50.09461975 1.36636245 33.89652252
v 49.91200256 1.78365827 34.00195694
v 49.68284607 2.16912460 34.13425827
v 49.41123962 2.51588297 34.29107285
v 49.10202789 2.81774521 34.46959305
v 48.76073456 3.06932473 34.66664124
v 48.39344406 3.26613212 34.87869644
v 48.00671768 3.40465522 35.10197449
v 47.60744858 3.48242235 35.33249283
v 47.20276642 3.49804544 35.56613541
v 46.79988861 3.45124578 35.79873657
v 46.40600967 3.34285879 36.02614212
v 46.02815628 3.17481828 36.24429321
v 45.67307281 2.95012283 36.44930267
v 45.34709167 2.67278266 36.63750839
v 45.05603409 2.34774661 36.80554962
v 44.80509186 1.98081481 36.95043182
v 44.59874344 1.57853544 37.06956863
v 44.44067383 1.14808702 37.16083145
v 44.33369827 0.69715095 37.22259140
v 44.27972794 0.23377421 37.25374985
v 44.27972794 -0.23377421 37.25374985
v 44.33369827 -0.69715095 37.22259140
v 44.44067383 -1.14808702 37.16083145
v 44.59874344 -1.57853544 37.06956863
v 44.80509186 -1.98081481 36.95043182
v 45.05603409 -2.34774661 36.80554962
v 45.34709167 -2.67278266 36.63750839
v 45.67307281 -2.95012283 36.44930267
v 46.02815628 -3.17481828 36.24429321
v 46.40600967 -3.34285879 36.02614212
v 46.79988861 -3.45124578 35.79873657
v 47.20276642 -3.49804544 35.56613541
v 47.60744858 -3.48242235 35.33249283
v 48.00671768 -3.40465522 35.10197449
v 48.39344406 -3.26613212 34.87869644
v 48.76073456 -3.06932473 34.66664124
v 49.10202789 -2.81774521 34.46959305
v 49.41123962 -2.51588297 34.29107285
v 49.68284607 -2.16912460 34.13425827
v 49.91200256 -1.78365827 34.00195694
v 50.09461975 -1.36636245 33.89652252
v 50.22743988 -0.92468393 33.81983948
v 41.32687759 -0.49535623 32.83866882
v 41.29933548 -0.00000000 32.85456848
v 41.48234940 -0.00000000 32.17155457
v 41.32687759 0.49535623 32.83866882
v 41.50956345 0.45938382 32.15584564
v 41.40905380 0.98257875 32.79122543
v 41.59069443 0.91021019 32.10900116
v 41.54450989 1.45366728 32.71301651
v 41.72423172 1.34408104 32.03190231
v 41.73102570 1.90088677 32.60533142
v 41.90769196 1.75291419 31.92598343
v 41.96553802 2.31689358 32.46993637
v 42.13765335 2.12909389 31.79321480
v 42.24419403 2.69485712 32.30905533
v 42.40983200 2.46561265 31.63607216
v 42.56241989 3.02857137 32.12532806
v 42.71916199 2.75620174 31.45748138
v 42.91498947 3.31255627 31.92177010
v 43.05987549 2.99544787 31.26076889
v 43.29611588 3.54214931 31.70172691
v 43.42563248 3.17889452 31.04960060
v 43.69953918 3.71358037 31.46880913
v 43.80961227 3.30312443 30.82790947
v 44.11863708 3.82403445 31.22684479
v 44.20466614 3.36582327 30.59982681
v 44.54652405 3.87169790 30.97980309
v 44.60343170 3.36582327 30.36959648
v 44.97617722 3.85578823 30.73174286
v 44.99848557 3.30312443 30.14151382
v 45.40054321 3.77656674 30.48673630
v 45.38246536 3.17889452 29.91982269
v 45.81264877 3.63533401 30.24880600
v 45.74821854 2.99544787 29.70865440
v 46.20573044 3.43440914 30.02186012
v 46.57333374 3.17709160 29.80962372
v 46.08893585 2.75620174 29.51194191
v 46.90942383 2.86760616 29.61558151
v 46.39826202 2.46561265 29.33335114
v 47.20848083 2.51103473 29.44292259
v 46.67044449 2.12909389 29.17620850
v 47.46559143 2.11323214 29.29447746
v 46.90040588 1.75291419 29.04343987
v 47.67654037 1.68073034 29.17268753
v 47.08386612 1.34408104 28.93751907
v 47.83785629 1.22063100 29.07955170
v 47.21740341 0.91021019 28.86042023
v 47.94689560 0.74048889 29.01659775
v 47.29853439 0.45938382 28.81357956
v 48.00186920 0.24818805 28.98485947
v 47.32574844 -0.00000000 28.79786682
v 48.00186920 -0.24818805 28.98485947
v 47.29853439 -0.45938382 28.81357956
v 47.94689560 -0.74048889 29.01659775
v 47.21740341 -0.91021019 28.86042023
v 47.83785629 -1.22063100 29.07955170
v 47.08386612 -1.34408104 28.93751907
v 47.67654037 -1.68073034 29.17268753
v 46.90040588 -1.75291419 29.04343987
v 47.46559143 -2.11323214 29.29447746
v 46.67044449 -2.12909389 29.17620850
v 47.20848083 -2.51103473 29.44292259
v 46.39826202 -2.46561265 29.33335114
v 46.90942383 -2.86760616 29.61558151
v 46.08893585 -2.75620174 29.51194191
v 46.57333374 -3.17709160 29.80962372
v 45.74821854 -2.99544787 29.70865440
v 46.20573044 -3.43440914 30.02186012
v 45.81264877 -3.63533401 30.24880600
v 45.38246536 -3.17889452 29.91982269
v 45.40054321 -3.77656674 30.48673630
v 44.99848557 -3.30312443 30.14151382
v 44.97617722 -3.85578823 30.73174286
v 44.60343170 -3.36582327 30.36959648
v 44.54652405 -3.87169790 30.97980309
v 44.20466614 -3.36582327 30.59982681
v 44.11863708 -3.82403445 31.22684479
v 43.80961227 -3.30312443 30.82790947
v 43.69953918 -3.71358037 31.46880913
v 43.42563248 -3.17889452 31.04960060
v 43.29611588 -3.54214931 31.70172691
v 43.05987549 -2.99544787 31.26076889
v 42.91498947 -3.31255627 31.92177010
v 42.71916199 -2.75620174 31.45748138
v 42.56241989 -3.02857137 32.12532806
v 42.40983200 -2.46561265 31.63607216
v 42.24419403 -2.69485712 32.30905533
v 42.13765335 -2.12909389 31.79321480
v 41.96553802 -2.31689358 32.46993637
v 41.90769196 -1.75291419 31.92598343
v 41.73102570 -1.90088677 32.60533142
v 41.72423172 -1.34408104 32.03190231
v 41.54450989 -1.45366728 32.71301651
v 41.59069443 -0.91021019 32.10900116
v 41.40905380 -0.98257875 32.79122543
v 41.50956345 -0.45938382 32.15584564
v 43.54802704 -3.54312491 32.13363647
v 43.92155075 -3.70383453 31.91798210
v 44.30894470 -3.81225181 31.69431877
v 44.70474243 -3.86684585 31.46580696
v 45.10335541 -3.86684585 31.23566818
v 45.49914932 -3.81225181 31.00715446
v 45.88654709 -3.70383453 30.78349113
v 46.26007080 -3.54312491 30.56783867
v 46.61444855 -3.33239174 30.36323738
v 43.54802704 3.54312491 32.13363647
v 43.92155075 3.70383453 31.91798210
v 44.30894470 3.81225181 31.69431877
v 44.70474243 3.86684585 31.46580696
v 45.10335541 3.86684585 31.23566818
v 45.49914932 3.81225181 31.00715446
v 45.88654709 3.70383453 30.78349113
v 46.26007080 3.54312491 30.56783867
v 46.61444855 3.33239174 30.36323738
v 42.31074524 0.19513144 31.69327927
v 42.31074524 -0.19513144 31.69327927
v 42.36496353 -0.58034050 31.66197777
v 42.47198868 -0.95051903 31.60018730
v 42.62905502 -1.29607964 31.50950432
v 42.83209229 -1.60807240 31.39228058
v 43.07584381 -1.87841702 31.25155258
v 43.35399246 -2.10011172 31.09096146
v 43.65933990 -2.26741433 30.91467094
v 43.98397064 -2.37599230 30.72724342
v 44.31948471 -2.42303324 30.53353500
v 44.65718842 -2.40731907 30.33856010
v 44.98833466 -2.32925653 30.14737320
v 45.30435181 -2.19086719 29.96492195
v 45.59704590 -1.99573588 29.79593277
v 45.85884857 -1.74891591 29.64478302
v 46.08296585 -1.45679998 29.51538658
v 46.26360321 -1.12695372 29.41109657
v 46.39608002 -0.76791990 29.33461189
v 46.47696304 -0.38899735 29.28791237
v 46.50416183 -0.00000000 29.27221107
v 46.47696304 0.38899735 29.28791237
v 46.39608002 0.76791990 29.33461189
v 46.26360321 1.12695372 29.41109657
v 46.08296585 1.45679998 29.51538658
v 45.85884857 1.74891591 29.64478302
v 45.59704590 1.99573588 29.79593277
v 45.30435181 2.19086719 29.96492195
v 44.98833466 2.32925653 30.14737320
v 44.65718842 2.40731907 30.33856010
v 44.31948471 2.42303324 30.53353500
v 43.98397064 2.37599230 30.72724342
v 43.65933990 2.26741433 30.91467094
v 43.35399246 2.10011172 31.09096146
v 43.07584381 1.87841702 31.25155258
v 42.83209229 1.60807240 31.39228058
v 42.62905502 1.29607964 31.50950432
v 42.47198868 0.95051903 31.60018730
v 42.36496353 0.58034050 31.66197777
v 45.58457947 7.19999981 30.95783043
v 45.47395325 7.17144442 31.02170181
v 45.38438416 7.09121323 31.07341385
v 45.33293152 6.97458076 31.10312271
v 45.32938004 6.84375000 31.10517120
v 46.15903854 7.19999981 30.62616730
v 44.22351456 7.19999981 31.74364281
v 44.33414459 7.17144442 31.67977142
v 44.42370987 7.09121323 31.62805939
v 44.47516632 6.97458076 31.59835243
v 44.47871399 6.84375000 31.59630394
v 43.64905930 7.19999981 32.07530594
v 45.33130264 6.66872931 31.10406113
v 46.61110687 6.54838228 30.36516571
v 46.61444855 6.42500019 30.36323738
v 46.30581284 7.17039967 30.54142761
v 46.43521118 7.08510399 30.46672058
v 46.53190994 6.95421171 30.41089058
v 46.58445740 6.79322052 30.38055229
v 46.60109711 6.67128229 30.37094498
v 45.33706284 4.80000019 31.10073662
v 45.31094742 4.97101021 31.11581421
v 45.31094742 4.62898970 31.11581421
v 45.23575592 4.47860622 31.15922546
v 45.12055588 4.36698723 31.22573662
v 44.97924042 4.30759621 31.30732536
v 44.82885742 4.30759621 31.39414978
v 44.68754196 4.36698723 31.47573662
v 44.57234192 4.47860622 31.54224777
v 44.49715042 4.62898970 31.58566093
v 44.47103500 4.80000019 31.60073662
v 43.19364929 6.42500019 32.33823776
v 43.19698715 6.54838228 32.33630753
v 44.47679520 6.66872931 31.59741211
v 44.52723312 6.50366783 31.56829262
v 44.62384796 6.36879444 31.51251030
v 43.20699692 6.67128229 32.33052826
v 43.22363663 6.79322052 32.32092285
v 43.27618790 6.95421171 32.29058456
v 43.37288666 7.08510399 32.23475266
v 43.50228119 7.17039967 32.16004562
v 44.75480270 6.28063726 31.43690300
v 44.68754196 5.23301268 31.47573662
v 44.57234192 5.12139368 31.54224777
v 44.49715042 4.97101021 31.58566093
v 44.82885742 5.29240370 31.39414978
v 44.90404892 6.25000000 31.35073662
v 44.97924042 5.29240370 31.30732536
v 45.05329132 6.28063726 31.26457024
v 45.12055588 5.23301268 31.22573662
v 45.18424606 6.36879444 31.18896294
v 45.23575592 5.12139368 31.15922546
v 45.28086472 6.50366783 31.13318253
v 44.22351456 -7.19999981 31.74364281
v 44.33414459 -7.17144442 31.67977142
v 44.42370987 -7.09121323 31.62805939
v 44.47516632 -6.97458076 31.59835243
v 44.47871399 -6.84375000 31.59630394
v 44.47679520 -6.66872931 31.59741211
v 44.52723312 -6.50366783 31.56829262
v 44.62384796 -6.36879444 31.51251030
v 44.75480270 -6.28063726 31.43690300
v 44.90404892 -6.25000000 31.35073662
v 45.05329132 -6.28063726 31.26457024
v 45.18424606 -6.36879444 31.18896294
v 45.28086472 -6.50366783 31.13318253
v 45.33130264 -6.66872931 31.10406113
v 45.32938004 -6.84375000 31.10517120
v 45.58457947 -7.19999981 30.95783043
v 45.47395325 -7.17144442 31.02170181
v 45.38438416 -7.09121323 31.07341385
v 45.33293152 -6.97458076 31.10312271
v 46.15903854 -7.19999981 30.62616730
v 46.30581284 -7.17039967 30.54142761
v 46.43521118 -7.08510399 30.46672058
v 46.53190994 -6.95421171 30.41089058
v 46.58445740 -6.79322052 30.38055229
v 43.64905930 -7.19999981 32.07530594
v 43.50228119 -7.17039967 32.16004562
v 43.37288666 -7.08510399 32.23475266
v 43.27618790 -6.95421171 32.29058456
v 43.22363663 -6.79322052 32.32092285
v 43.19698715 -6.54838228 32.33630753
v 43.19364929 -6.42500019 32.33823776
v 43.20699692 -6.67128229 32.33052826
v 44.47103500 -4.80000019 31.60073662
v 44.49715042 -4.97101021 31.58566093
v 44.49715042 -4.62898970 31.58566093
v 44.57234192 -4.47860622 31.54224777
v 44.68754196 -4.36698723 31.47573662
v 44.82885742 -4.30759621 31.39414978
v 44.97924042 -4.30759621 31.30732536
v 45.12055588 -4.36698723 31.22573662
v 45.23575592 -4.47860622 31.15922546
v 45.31094742 -4.62898970 31.11581421
v 45.33706284 -4.80000019 31.10073662
v 46.61444855 -6.42500019 30.36323738
v 46.61110687 -6.54838228 30.36516571
v 46.60109711 -6.67128229 30.37094498
v 45.12055588 -5.23301268 31.22573662
v 45.23575592 -5.12139368 31.15922546
v 45.31094742 -4.97101021 31.11581421
v 44.97924042 -5.29240370 31.30732536
v 44.82885742 -5.29240370 31.39414978
v 44.68754196 -5.23301268 31.47573662
v 44.57234192 -5.12139368 31.54224777
v 46.03015137 -2.23480129 32.77904129
v 45.96947098 -1.08328855 32.81407547
v 45.99385834 -2.23929954 32.79999542
v 45.74865723 -1.09813893 32.94156265
v 45.61423874 -2.23929954 33.01916885
v 45.57794571 -2.23480129 33.04012299
v 45.54173279 -2.22951889 33.06103134
v 45.50561523 -2.22345448 33.08188248
v 45.53083038 -1.05378842 33.06732559
v 45.13792038 -2.11444116 33.29417419
v 45.10373688 -2.09966278 33.31390762
v 45.06980133 -2.08414769 33.33349991
v 45.03612137 -2.06790137 33.35294724
v 45.32773590 -0.95262796 33.18458176
v 44.70345688 -1.85672474 33.54500961
v 44.67353058 -1.83259487 33.56228638
v 44.64400101 -1.80782199 33.57933807
v 45.15031433 -0.80011100 33.28701401
v 44.61487961 -1.78241467 33.59614944
v 44.33814621 -1.48234355 33.75592041
v 44.25146103 -1.90911174 33.80596924
v 46.06636429 -2.22951889 32.75813675
v 46.10248184 -2.22345448 32.73728180
v 46.47017670 -2.11444116 32.52499390
v 46.36809158 -2.53664351 32.58393478
v 46.18136597 -1.01003766 32.69173813
v 46.50436020 -2.09966278 32.50525665
v 46.53829575 -2.08414769 32.48566437
v 46.57197571 -2.06790137 32.46622086
v 46.90464020 -1.85672474 32.27415466
v 46.37291718 -0.88233548 32.58114624
v 46.93456650 -1.83259487 32.25687790
v 46.96409607 -1.80782199 32.23983002
v 46.89669037 -2.29497862 32.27874374
v 46.99321747 -1.78241467 32.22301483
v 47.26995087 -1.48234355 32.06324387
v 46.53380203 -0.70706636 32.48825836
v 47.29373932 -1.45037818 32.04951096
v 47.31700516 -1.41790390 32.03607559
v 47.35663605 -1.90911174 32.01319504
v 47.33974075 -1.38493216 32.02295303
v 46.65534592 -0.49367911 32.41808319
v 47.54315186 -1.01482117 31.90551186
v 47.55930710 -0.97702891 31.89618301
v 47.71902847 -1.40328836 31.80396843
v 47.57484818 -0.93889385 31.88721085
v 47.58976746 -0.90042937 31.87859726
v 46.73099899 -0.25367746 32.37440872
v 47.70707703 -0.48353383 31.81086731
v 47.71458817 -0.44228932 31.80653191
v 47.96109390 -0.80929130 31.66421127
v 47.72142792 -0.40088961 31.80258369
v 47.72759247 -0.35934925 31.79902267
v 46.75667572 0.00000000 32.35958099
v 47.75143051 0.07813568 31.78526115
v 47.74982071 0.12024093 31.78619003
v 48.06762695 -0.16444345 31.60270500
v 47.74752808 0.16230401 31.78751373
v 47.74455643 0.20431013 31.78923035
v 46.73099899 0.25367746 32.37440872
v 47.67341995 0.63489562 31.83029938
v 47.66279602 0.67521602 31.83643532
v 48.03192902 0.49073699 31.62331581
v 47.65151596 0.71529949 31.84294701
v 47.63958740 0.75513196 31.84983253
v 46.65534592 0.49367911 32.41808319
v 47.47795486 1.15176284 31.94315338
v 47.45897675 1.18776476 31.95410919
v 47.85624313 1.11508262 31.72474670
v 47.43941879 1.22335005 31.96540070
v 46.53380203 0.70706636 32.48825836
v 47.41928864 1.25850606 31.97702408
v 47.17730713 1.59626043 32.11672974
v 47.55161285 1.66936350 31.90062523
v 47.15117264 1.62568188 32.13182068
v 46.37291718 0.88233548 32.58114624
v 47.12456512 1.65453303 32.14718246
v 47.09749603 1.68280351 32.16281128
v 47.13717651 2.11875224 32.13990021
v 46.79037476 1.94045913 32.34012604
v 46.18136597 1.01003766 32.69173813
v 46.75872421 1.96145153 32.35840225
v 46.72673798 1.98175561 32.37686539
v 46.69443130 2.00136447 32.39551926
v 46.34146500 2.16273165 32.59930420
v 45.96947098 1.08328855 32.81407547
v 46.30628967 2.17397594 32.61961365
v 46.27093887 2.18445730 32.64002609
v 46.63897324 2.43501186 32.42753983
v 46.23542023 2.19417214 32.66053009
v 45.85879135 2.24911189 32.87797546
v 45.74865723 1.09813893 32.94156265
v 45.82229996 2.24990129 32.89904785
v 45.78579712 2.24990129 32.92012024
v 46.08831024 2.59827065 32.74546432
v 45.74930573 2.24911189 32.94118881
v 45.37267685 2.19417214 33.15863419
v 45.53083038 1.05378842 33.06732559
v 45.33715820 2.18445730 33.17914200
v 45.30180740 2.17397594 33.19955063
v 45.51978683 2.59827065 33.07369995
v 45.26662827 2.16273165 33.21986008
v 44.91366577 2.00136447 33.42364502
v 45.32773590 0.95262796 33.18458176
v 44.88135910 1.98175561 33.44229889
v 44.84937286 1.96145153 33.46076584
v 44.96912384 2.43501186 33.39162827
v 44.81772232 1.94045913 33.47903824
v 44.51060104 1.68280351 33.65635300
v 45.15031433 0.80011100 33.28701401
v 44.48353195 1.65453303 33.67198181
v 44.45692444 1.62568188 33.68734360
v 44.47092056 2.11875224 33.67926407
v 44.43078995 1.59626043 33.70243454
v 45.00814056 0.60445988 33.36910248
v 44.18880844 1.25850606 33.84214020
v 44.16867828 1.22335005 33.85376358
v 44.05648422 1.66936350 33.91854095
v 44.14912033 1.18776476 33.86505508
v 44.13014221 1.15176284 33.87601089
v 44.90887070 0.37622216 33.42641449
v 43.96850967 0.75513196 33.96933365
v 43.95658112 0.71529949 33.97621918
v 43.75185394 1.11508262 34.09441757
v 43.94530106 0.67521602 33.98273087
v 43.93467712 0.63489562 33.98886490
v 44.85786057 0.12770221 33.45586395
v 43.86354065 0.20431013 34.02993393
v 43.86056900 0.16230401 34.03165054
v 43.57616806 0.49073699 34.19585037
v 43.85827637 0.12024093 34.03297424
v 43.85666656 0.07813568 34.03390503
v 44.85786057 -0.12770221 33.45586395
v 43.88050461 -0.35934925 34.02014160
v 43.88666916 -0.40088961 34.01658249
v 43.54047012 -0.16444345 34.21646118
v 43.89350891 -0.44228932 34.01263428
v 43.90102005 -0.48353383 34.00829697
v 44.90887070 -0.37622216 33.42641449
v 44.01832962 -0.90042937 33.94056702
v 44.03324890 -0.93889385 33.93195343
v 43.64700317 -0.80929130 34.15495300
v 44.04878998 -0.97702891 33.92298126
v 44.06494522 -1.01482117 33.91365433
v 45.00814056 -0.60445988 33.36910248
v 44.26835632 -1.38493216 33.79621506
v 44.29109192 -1.41790390 33.78308868
v 43.88906860 -1.40328836 34.01519775
v 44.31435776 -1.45037818 33.76965714
v 44.71140671 -2.29497862 33.54042053
v 45.24000549 -2.53664351 33.23523331
v 45.80404663 -2.61892176 32.90958405
v 47.37696457 0.38899735 30.84675980
v 47.40415955 0.00000000 30.83105659
v 46.25667572 0.00000000 31.49355698
v 47.37696457 -0.38899735 30.84675980
v 46.23099899 -0.25367746 31.50838280
v 47.29608154 -0.76791990 30.89345741
v 46.15534592 -0.49367911 31.55205917
v 47.16360474 -1.12695372 30.96994209
v 46.98296738 -1.45679998 31.07423210
v 46.03380203 -0.70706636 31.62223244
v 46.75884628 -1.74891591 31.20362854
v 45.87291718 -0.88233548 31.71512032
v 46.49704742 -1.99573588 31.35477829
v 46.20434952 -2.19086719 31.52376747
v 45.68136597 -1.01003766 31.82571411
v 45.88833618 -2.32925653 31.70621872
v 45.46947098 -1.08328855 31.94805145
v 45.55718994 -2.40731907 31.89740753
v 45.24865723 -1.09813893 32.07553864
v 45.21948624 -2.42303324 32.09238052
v 44.88397217 -2.37599230 32.28608704
v 45.03083038 -1.05378842 32.20129776
v 44.55933762 -2.26741433 32.47351456
v 44.82773590 -0.95262796 32.31855774
v 44.25399399 -2.10011172 32.64980698
v 43.97584152 -1.87841702 32.81039810
v 44.65031433 -0.80011100 32.42098999
v 43.73209381 -1.60807240 32.95112610
v 44.50814056 -0.60445988 32.50307465
v 43.52905655 -1.29607964 33.06835175
v 43.37199020 -0.95051903 33.15903091
v 44.40887070 -0.37622216 32.56038666
v 43.26496124 -0.58034050 33.22082520
v 44.35786057 -0.12770221 32.58983994
v 43.21074677 -0.19513144 33.25212479
v 43.21074677 0.19513144 33.25212479
v 44.35786057 0.12770221 32.58983994
v 43.26496124 0.58034050 33.22082520
v 44.40887070 0.37622216 32.56038666
v 43.37199020 0.95051903 33.15903091
v 44.50814056 0.60445988 32.50307465
v 43.52905655 1.29607964 33.06835175
v 43.73209381 1.60807240 32.95112610
v 44.65031433 0.80011100 32.42098999
v 43.97584152 1.87841702 32.81039810
v 44.82773590 0.95262796 32.31855774
v 44.25399399 2.10011172 32.64980698
v 44.55933762 2.26741433 32.47351456
v 45.03083038 1.05378842 32.20129776
v 44.88397217 2.37599230 32.28608704
v 45.24865723 1.09813893 32.07553864
v 45.21948624 2.42303324 32.09238052
v 45.55718994 2.40731907 31.89740753
v 45.46947098 1.08328855 31.94805145
v 45.88833618 2.32925653 31.70621872
v 45.68136597 1.01003766 31.82571411
v 46.20434952 2.19086719 31.52376747
v 45.87291718 0.88233548 31.71512032
v 46.49704742 1.99573588 31.35477829
v 46.75884628 1.74891591 31.20362854
v 46.03380203 0.70706636 31.62223244
v 46.98296738 1.45679998 31.07423210
v 46.15534592 0.49367911 31.55205917
v 47.16360474 1.12695372 30.96994209
v 47.29608154 0.76791990 30.89345741
v 46.23099899 0.25367746 31.50838280
v 47.54385757 -2.23929954 35.48467255
v 47.53990936 -2.41723990 35.68330383
v 47.53850937 -2.61892176 35.91375732
v 47.86200333 -2.37025571 35.49734116
v 47.65248108 -2.22345448 35.42195892
v 47.61636353 -2.22951889 35.44281387
v 48.10255051 -2.53664351 35.58810806
v 48.05734634 -2.31234026 35.38455963
v 48.02017975 -2.11444116 35.20967102
v 48.05435944 -2.09966278 35.18993759
v 48.08829498 -2.08414769 35.17034149
v 48.35919952 -2.17433953 35.21028519
v 48.12197495 -2.06790137 35.15089798
v 48.63115311 -2.29497862 35.28292084
v 48.53593445 -2.06214762 35.10824585
v 48.45463943 -1.85672474 34.95883560
v 48.48456573 -1.83259487 34.94155502
v 48.51409531 -1.80782199 34.92450714
v 48.54321671 -1.78241467 34.90769577
v 48.79858398 -1.84180140 34.95660782
v 49.09109879 -1.90911174 35.01736832
v 48.94560623 -1.68238282 34.87172318
v 48.81995010 -1.48234355 34.74792099
v 48.84373856 -1.45037818 34.73418808
v 48.86700439 -1.41790390 34.72075653
v 48.88973999 -1.38493216 34.70763016
v 49.15254593 -1.39353633 34.75224686
v 49.45349121 -1.40328836 34.80814362
v 49.26061249 -1.19690764 34.68985367
v 49.09315109 -1.01482117 34.59019089
v 49.10930634 -0.97702891 34.58086014
v 49.12484741 -0.93889385 34.57188797
v 49.39884186 -0.85771018 34.61004639
v 49.13976669 -0.90042937 34.56327438
v 49.69555664 -0.80929130 34.66838455
v 49.46116638 -0.63622630 34.57406616
v 49.25707626 -0.48353383 34.49554825
v 49.26458740 -0.44228932 34.49121094
v 49.27142715 -0.40088961 34.48726273
v 49.27759171 -0.35934925 34.48370361
v 49.52199936 -0.26799095 34.53894424
v 49.80208588 -0.16444345 34.60688019
v 49.53466034 -0.03556856 34.53163147
v 49.30142975 0.07813568 34.46994019
v 49.29981995 0.12024093 34.47087097
v 49.29753113 0.16230401 34.47219086
v 49.29455566 0.20431013 34.47390747
v 49.51427841 0.33856714 34.54339981
v 49.76638794 0.49073699 34.62749100
v 49.47648621 0.56732410 34.56521988
v 49.22342300 0.63489562 34.51498032
v 49.21279526 0.67521602 34.52111435
v 49.20151520 0.71529949 34.52762604
v 49.37616348 0.92385179 34.62314224
v 49.18958664 0.75513196 34.53451157
v 49.59070587 1.11508262 34.72891998
v 49.29029083 1.13456964 34.67272186
v 49.02795410 1.15176284 34.62783051
v 49.00897598 1.18776476 34.63879013
v 48.98941803 1.22335005 34.65008163
v 48.96928787 1.25850606 34.66170120
v 49.11633301 1.45108747 34.77315521
v 49.28607559 1.66936350 34.90480042
v 48.98777771 1.63052607 34.84737778
v 48.72730637 1.59626043 34.80141068
v 48.70117188 1.62568188 34.81649780
v 48.67456436 1.65453303 34.83185959
v 48.64749527 1.68280351 34.84748840
v 48.75111771 1.88714600 34.98401260
v 48.87163544 2.11875224 35.14407349
v 48.58795166 2.02403045 35.07821655
v 48.34037399 1.94045913 35.02480698
v 48.30872345 1.96145153 35.04307938
v 48.27674103 1.98175561 35.06154633
v 48.24443054 2.00136447 35.08020020
v 48.30345917 2.20462823 35.24246979
v 48.37343597 2.43501186 35.43171310
v 48.11594009 2.29035759 35.35073090
v 47.89146805 2.16273165 35.28398132
v 47.85628891 2.17397594 35.30429077
v 47.82093811 2.18445730 35.32470322
v 47.78541946 2.19417214 35.34520721
v 47.80148697 2.38358545 35.53227997
v 47.82277298 2.59827065 35.74963760
v 47.60139465 2.41277337 35.64780426
v 47.40879059 2.24911189 35.56265640
v 47.37229919 2.24990129 35.58372498
v 47.33580017 2.24990129 35.60479736
v 47.29930496 2.24911189 35.62586594
v 47.27674484 2.41277337 35.83524323
v 47.25424576 2.59827065 36.07787704
v 47.07665253 2.38358545 35.95076370
v 46.92267609 2.19417214 35.84331512
v 46.88716125 2.18445730 35.86381912
v 46.85180664 2.17397594 35.88423157
v 46.81663132 2.16273165 35.90454102
v 46.76219940 2.29035759 36.13231277
v 46.70358276 2.43501186 36.39580154
v 46.57468033 2.20462823 36.24057770
v 46.46366501 2.00136447 36.10832214
v 46.43135834 1.98175561 36.12697601
v 46.39937210 1.96145153 36.14544296
v 46.36772156 1.94045913 36.16371536
v 46.29018784 2.02403045 36.40483093
v 46.20537949 2.11875224 36.68343735
v 46.12702179 1.88714600 36.49903488
v 46.06060028 1.68280351 36.34103394
v 46.03353119 1.65453303 36.35666275
v 46.00692368 1.62568188 36.37202454
v 45.89036179 1.63052607 36.63566971
v 45.98078918 1.59626043 36.38711166
v 45.79094315 1.66936350 36.92271423
v 45.76180649 1.45108747 36.70989227
v 45.73880768 1.25850606 36.52682114
v 45.71867752 1.22335005 36.53844452
v 45.69911957 1.18776476 36.54973602
v 45.68014526 1.15176284 36.56069183
v 45.58784866 1.13456964 36.81032562
v 45.48631287 1.11508262 37.09859085
v 45.50197601 0.92385179 36.85990524
v 45.51850891 0.75513196 36.65401077
v 45.50658035 0.71529949 36.66089630
v 45.49530029 0.67521602 36.66740799
v 45.48467636 0.63489562 36.67354584
v 45.40165329 0.56732410 36.91782379
v 45.31063080 0.49073699 37.20002365
v 45.36386108 0.33856714 36.93964386
v 45.41353989 0.20431013 36.71461487
v 45.41056824 0.16230401 36.71633148
v 45.40827560 0.12024093 36.71765518
v 45.34347916 -0.03556856 36.95141220
v 45.40666580 0.07813568 36.71858215
v 45.27493286 -0.16444345 37.22063446
v 45.35614014 -0.26799095 36.94410324
v 45.43050385 -0.35934925 36.70482254
v 45.43666840 -0.40088961 36.70125961
v 45.44350815 -0.44228932 36.69731140
v 45.45101929 -0.48353383 36.69297791
v 45.41697311 -0.63622630 36.90898132
v 45.38146210 -0.80929130 37.15913010
v 45.47929764 -0.85771018 36.87299728
v 45.58324814 -0.93889385 36.61663437
v 45.56832886 -0.90042937 36.62524796
v 45.59878922 -0.97702891 36.60766220
v 45.61494446 -1.01482117 36.59833145
v 45.61752701 -1.19690764 36.79319000
v 45.62352753 -1.40328836 37.01937103
v 45.72559357 -1.39353633 36.73079681
v 45.81835556 -1.38493216 36.48089218
v 45.84109116 -1.41790390 36.46776581
v 45.86435699 -1.45037818 36.45433426
v 45.93253326 -1.68238282 36.61132050
v 45.88814545 -1.48234355 36.44060135
v 45.98591995 -1.90911174 36.81014633
v 46.07955551 -1.84180140 36.52643967
v 46.16487885 -1.78241467 36.28083038
v 46.19400024 -1.80782199 36.26401520
v 46.22352982 -1.83259487 36.24696732
v 46.25345612 -1.85672474 36.22969055
v 46.34220505 -2.06214762 36.37479782
v 46.44586563 -2.29497862 36.54459381
v 46.51893997 -2.17433953 36.27276230
v 46.58612061 -2.06790137 36.03762436
v 46.61980057 -2.08414769 36.01818085
v 46.65373611 -2.09966278 35.99858856
v 46.68791962 -2.11444116 35.97885132
v 46.82079315 -2.31234026 36.09848785
v 46.97446823 -2.53664351 36.23940659
v 47.01613617 -2.37025571 35.98570251
v 47.05561447 -2.22345448 35.76656342
v 47.09173584 -2.22951889 35.74570847
v 47.12794495 -2.23480129 35.72480011
v 47.16423798 -2.23929954 35.70384979
v 47.33823013 -2.41723990 35.79974365
v 47.58015060 -2.23480129 35.46372223
f 1 2 3
f 3 2 4
f 3 4 5
f 2 1 6
f 6 1 7
f 6 7 8
f 8 7 9
f 8 9 10
f 8 10 11
f 11 10 12
f 11 12 13
f 13 12 14
f 13 14 15
f 15 14 16
f 15 16 17
f 17 16 18
f 17 18 19
f 19 18 20
f 19 20 21
f 21 20 22
f 21 22 23
f 21 23 24
f 24 23 25
f 24 25 26
f 26 25 27
f 26 27 28
f 28 27 29
f 28 29 30
f 30 29 31
f 30 31 32
f 32 31 33
f 32 33 34
f 32 34 35
f 35 34 36
f 35 36 37
f 37 36 38
f 37 38 39
f 39 38 40
f 39 40 41
f 39 41 42
f 42 41 43
f 42 43 44
f 44 43 45
f 44 45 46
f 46 45 47
f 46 47 48
f 48 47 49
f 48 49 50
f 50 49 51
f 50 51 52
f 52 51 53
f 52 53 54
f 52 54 55
f 55 54 56
f 55 56 57
f 57 56 58
f 57 58 59
f 59 58 60
f 59 60 61
f 61 60 62
f 61 62 63
f 63 62 64
f 63 64 65
f 65 64 66
f 65 66 67
f 67 66 68
f 67 68 69
f 69 68 70
f 69 70 71
f 71 70 72
f 71 72 73
f 73 72 74
f 73 74 75
f 75 74 76
f 75 76 77
f 77 76 78
f 77 78 79
f 79 78 80
f 79 80 81
f 81 80 82
f 81 82 83
f 81 83 84
f 84 83 85
f 84 85 86
f 86 85 87
f 86 87 88
f 88 89 86
f 86 89 90
f 90 89 91
f 90 91 92
f 92 91 93
f 92 93 94
f 94 93 95
f 94 95 5
f 5 95 96
f 5 96 3
f 97 98 99
f 99 98 100
f 99 100 101
f 101 100 102
f 102 100 103
f 102 103 104
f 104 103 105
f 105 103 106
f 105 106 107
f 107 106 108
f 107 108 109
f 109 108 110
f 106 111 108
f 108 111 112
f 112 111 113
f 112 113 114
f 108 112 115
f 115 112 116
f 116 112 117
f 117 112 114
f 117 114 118
f 118 114 113
f 118 113 119
f 119 113 111
f 119 111 120
f 120 111 106
f 120 106 121
f 121 106 103
f 121 103 122
f 122 103 100
f 122 100 123
f 123 100 98
f 123 98 124
f 123 124 125
f 125 124 126
f 125 126 127
f 127 126 128
f 127 128 129
f 129 128 130
f 129 130 131
f 131 130 132
f 131 132 133
f 133 132 134
f 133 134 135
f 135 134 136
f 135 136 137
f 137 136 138
f 137 138 139
f 139 138 140
f 139 140 141
f 141 140 142
f 142 140 143
f 144 122 145
f 145 122 123
f 145 123 146
f 144 147 122
f 122 147 121
f 121 147 148
f 121 148 149
f 121 149 120
f 120 149 150
f 120 150 115
f 115 150 151
f 115 151 152
f 120 115 119
f 119 115 116
f 119 116 118
f 118 116 117
f 97 99 153
f 153 99 145
f 153 145 154
f 154 145 146
f 123 125 146
f 146 125 127
f 146 127 155
f 155 127 129
f 155 129 156
f 156 129 131
f 156 131 157
f 157 131 133
f 157 133 158
f 158 133 135
f 158 135 159
f 159 135 137
f 159 137 160
f 160 137 139
f 160 139 141
f 161 162 160
f 160 162 163
f 160 163 164
f 164 165 160
f 160 165 159
f 155 166 146
f 146 166 167
f 146 167 168
f 168 169 146
f 146 169 154
f 170 143 171
f 171 143 140
f 171 140 172
f 170 173 143
f 143 173 174
f 174 173 175
f 174 175 176
f 174 176 177
f 177 176 178
f 177 178 179
f 179 178 180
f 179 180 181
f 177 179 182
f 182 179 183
f 182 183 184
f 184 183 185
f 98 97 124
f 124 97 186
f 124 186 126
f 126 186 187
f 126 187 128
f 128 187 130
f 130 187 188
f 130 188 132
f 132 188 189
f 132 189 134
f 134 189 136
f 136 189 190
f 136 190 138
f 138 190 172
f 138 172 140
f 153 191 97
f 97 191 192
f 97 192 193
f 191 153 194
f 194 153 195
f 194 195 196
f 196 195 197
f 196 197 198
f 199 200 198
f 198 200 201
f 198 201 202
f 203 204 199
f 199 204 205
f 199 205 206
f 203 207 204
f 204 207 208
f 208 207 209
f 208 209 210
f 210 209 211
f 204 212 205
f 205 212 213
f 213 212 214
f 213 214 215
f 215 216 213
f 217 218 206
f 206 218 219
f 206 219 199
f 199 219 200
f 218 217 220
f 220 217 221
f 220 221 222
f 222 221 223
f 222 223 224
f 224 223 225
f 224 225 226
f 226 225 227
f 226 227 228
f 228 227 229
f 228 229 230
f 230 229 231
f 230 231 232
f 232 231 233
f 232 233 234
f 234 233 235
f 235 233 236
f 236 233 237
f 237 233 238
f 237 238 239
f 239 238 240
f 240 238 241
f 240 241 242
f 242 241 243
f 242 243 244
f 244 243 245
f 244 245 246
f 229 247 231
f 231 247 248
f 231 248 249
f 249 248 250
f 250 248 251
f 250 251 252
f 252 251 253
f 252 253 254
f 248 247 255
f 255 247 256
f 255 256 257
f 257 256 258
f 258 256 259
f 260 261 238
f 238 261 262
f 238 262 263
f 260 264 261
f 261 264 265
f 265 264 266
f 265 266 267
f 267 266 268
f 267 268 269
f 269 268 270
f 269 270 271
f 271 270 272
f 271 272 273
f 274 275 273
f 273 275 276
f 273 276 277
f 278 279 274
f 274 279 280
f 274 280 281
f 282 283 278
f 278 283 284
f 278 284 285
f 282 286 283
f 283 286 287
f 287 286 288
f 287 288 289
f 289 288 290
f 283 291 284
f 284 291 292
f 292 291 293
f 292 293 294
f 294 295 292
f 296 297 285
f 285 297 298
f 285 298 278
f 278 298 279
f 297 296 299
f 299 296 300
f 299 300 301
f 301 300 302
f 301 302 303
f 303 302 304
f 303 304 305
f 305 304 306
f 305 306 307
f 307 306 308
f 307 308 309
f 309 308 310
f 309 310 311
f 311 310 312
f 311 312 313
f 313 312 314
f 314 312 315
f 315 312 316
f 315 316 317
f 308 318 310
f 310 318 319
f 310 319 320
f 320 319 321
f 321 319 322
f 321 322 323
f 323 322 324
f 323 324 325
f 319 318 326
f 326 318 327
f 326 327 328
f 328 327 329
f 329 327 330
f 315 317 331
f 331 317 332
f 331 332 333
f 333 332 172
f 333 172 334
f 334 172 335
f 335 172 190
f 336 337 338
f 338 337 339
f 338 339 246
f 246 339 244
f 337 336 340
f 340 336 341
f 340 341 342
f 340 342 343
f 343 342 344
f 343 344 277
f 277 344 273
f 344 345 273
f 273 345 346
f 273 346 271
f 263 241 238
f 200 347 201
f 201 347 348
f 348 347 349
f 348 349 350
f 350 349 351
f 350 351 352
f 350 352 353
f 353 352 354
f 353 354 355
f 353 355 356
f 356 355 357
f 356 357 358
f 356 358 359
f 359 358 232
f 359 232 234
f 280 279 360
f 360 279 361
f 360 361 362
f 362 361 363
f 362 363 364
f 362 364 365
f 365 364 366
f 365 366 367
f 365 367 368
f 368 367 369
f 368 369 370
f 368 370 371
f 371 370 372
f 371 372 313
f 313 372 311
f 281 373 274
f 274 373 275
f 202 196 198
f 193 186 97
f 142 143 374
f 374 143 174
f 374 174 375
f 375 174 177
f 375 177 376
f 376 177 182
f 376 182 377
f 377 182 184
f 377 184 378
f 378 184 185
f 378 185 379
f 379 185 183
f 160 141 380
f 380 141 142
f 380 142 381
f 381 142 382
f 382 142 374
f 382 374 383
f 383 374 384
f 384 374 375
f 384 375 385
f 385 375 386
f 385 386 387
f 387 386 388
f 375 376 386
f 386 376 379
f 379 376 377
f 379 377 378
f 273 272 389
f 389 272 390
f 389 390 391
f 391 390 392
f 392 390 393
f 392 393 394
f 394 393 395
f 394 395 396
f 396 395 397
f 397 395 398
f 397 398 399
f 399 398 400
f 395 401 398
f 398 401 402
f 402 401 403
f 404 402 405
f 405 402 403
f 405 403 401
f 405 401 406
f 406 401 395
f 406 395 407
f 407 395 408
f 408 395 393
f 408 393 409
f 409 393 390
f 409 390 272
f 409 272 410
f 410 272 270
f 410 270 411
f 411 270 268
f 411 268 412
f 412 268 266
f 412 266 413
f 413 266 264
f 413 264 414
f 414 264 260
f 414 260 415
f 415 260 416
f 415 416 417
f 417 416 418
f 418 416 419
f 420 416 421
f 421 416 260
f 421 260 238
f 420 422 416
f 416 422 419
f 419 422 423
f 419 423 424
f 424 423 425
f 424 425 426
f 424 426 427
f 427 426 428
f 427 428 429
f 424 427 430
f 430 427 431
f 430 431 432
f 431 427 433
f 433 427 434
f 434 427 435
f 435 427 429
f 435 429 428
f 426 436 428
f 428 436 437
f 428 437 435
f 426 425 436
f 436 425 438
f 438 425 423
f 438 423 439
f 439 423 440
f 440 423 422
f 440 422 420
f 421 441 420
f 420 441 442
f 420 442 440
f 238 233 421
f 421 233 443
f 421 443 441
f 441 443 444
f 445 409 446
f 446 409 410
f 446 410 447
f 445 448 409
f 409 448 408
f 408 448 449
f 408 449 407
f 407 449 450
f 407 450 451
f 407 451 452
f 452 451 453
f 452 453 454
f 407 452 406
f 406 452 404
f 406 404 405
f 398 402 452
f 452 402 404
f 446 389 445
f 445 389 391
f 445 391 392
f 394 449 392
f 392 449 448
f 392 448 445
f 394 396 449
f 449 396 450
f 450 396 397
f 450 397 451
f 451 397 453
f 453 397 399
f 453 399 400
f 398 452 400
f 400 452 454
f 400 454 453
f 444 415 441
f 441 415 417
f 441 417 442
f 442 417 440
f 440 417 418
f 440 418 439
f 439 418 455
f 439 455 438
f 438 455 436
f 436 455 434
f 436 434 437
f 437 434 435
f 455 456 434
f 434 456 433
f 433 456 457
f 410 458 447
f 447 458 459
f 447 459 460
f 410 411 458
f 458 411 461
f 461 411 412
f 461 412 462
f 462 412 413
f 462 413 463
f 463 413 414
f 463 414 464
f 464 414 415
f 464 415 444
f 443 465 444
f 444 465 466
f 444 466 467
f 467 468 444
f 444 468 469
f 444 469 470
f 470 469 471
f 471 469 472
f 471 472 473
f 473 472 474
f 473 474 475
f 475 474 476
f 475 476 477
f 477 476 478
f 478 476 479
f 478 479 480
f 480 479 481
f 481 479 482
f 481 482 483
f 483 482 484
f 483 484 485
f 485 484 486
f 485 486 460
f 460 486 447
f 486 487 447
f 447 487 488
f 447 488 489
f 489 490 447
f 447 490 491
f 470 492 444
f 444 492 464
f 493 494 73
f 73 494 495
f 73 495 71
f 71 495 496
f 71 496 69
f 69 496 497
f 69 497 67
f 67 497 498
f 67 498 65
f 65 498 499
f 65 499 63
f 63 499 500
f 63 500 61
f 61 500 501
f 61 501 59
f 59 501 502
f 59 502 57
f 57 502 503
f 57 503 55
f 55 503 504
f 55 504 52
f 52 504 505
f 52 505 50
f 50 505 506
f 50 506 48
f 48 506 507
f 48 507 46
f 46 507 508
f 46 508 44
f 44 508 509
f 44 509 42
f 42 509 510
f 42 510 511
f 42 511 39
f 39 511 512
f 39 512 37
f 37 512 513
f 37 513 35
f 35 513 514
f 35 514 32
f 32 514 515
f 32 515 30
f 30 515 516
f 30 516 28
f 28 516 517
f 28 517 26
f 26 517 518
f 26 518 24
f 24 518 519
f 24 519 21
f 21 519 520
f 21 520 19
f 19 520 521
f 19 521 17
f 17 521 522
f 17 522 15
f 15 522 523
f 15 523 13
f 13 523 524
f 13 524 11
f 11 524 525
f 11 525 526
f 11 526 8
f 8 526 527
f 8 527 6
f 6 527 528
f 6 528 2
f 2 528 529
f 2 529 4
f 4 529 530
f 4 530 5
f 5 530 531
f 5 531 94
f 94 531 532
f 94 532 92
f 92 532 533
f 92 533 90
f 90 533 534
f 90 534 86
f 86 534 535
f 86 535 84
f 84 535 536
f 84 536 81
f 81 536 537
f 81 537 79
f 79 537 538
f 79 538 77
f 77 538 539
f 77 539 75
f 75 539 493
f 75 493 73
f 187 495 188
f 188 495 494
f 188 494 189
f 189 494 493
f 189 493 190
f 190 493 539
f 190 539 335
f 335 539 538
f 335 538 334
f 334 538 537
f 334 537 333
f 333 537 536
f 333 536 331
f 331 536 535
f 331 535 315
f 315 535 534
f 315 534 314
f 314 534 533
f 314 533 313
f 313 533 532
f 313 532 371
f 371 532 531
f 371 531 368
f 368 531 530
f 368 530 365
f 365 530 529
f 365 529 362
f 362 529 528
f 362 528 360
f 360 528 527
f 360 527 280
f 280 527 526
f 280 526 281
f 281 526 525
f 281 525 373
f 373 525 524
f 373 524 275
f 275 524 523
f 275 523 276
f 276 523 522
f 276 522 277
f 277 522 521
f 277 521 343
f 343 521 520
f 343 520 340
f 340 520 519
f 340 519 337
f 337 519 518
f 337 518 339
f 339 518 517
f 339 517 244
f 244 517 516
f 244 516 242
f 242 516 515
f 242 515 240
f 240 515 514
f 240 514 239
f 239 514 513
f 239 513 237
f 237 513 512
f 237 512 236
f 236 512 511
f 236 511 235
f 235 511 510
f 235 510 234
f 234 510 509
f 234 509 359
f 359 509 508
f 359 508 356
f 356 508 507
f 356 507 353
f 353 507 506
f 353 506 350
f 350 506 505
f 350 505 348
f 348 505 504
f 348 504 201
f 201 504 503
f 201 503 202
f 202 503 502
f 202 502 196
f 196 502 501
f 196 501 194
f 194 501 500
f 194 500 191
f 191 500 499
f 191 499 192
f 192 499 498
f 192 498 193
f 193 498 497
f 193 497 186
f 186 497 496
f 186 496 187
f 187 496 495
f 540 541 542
f 542 541 543
f 542 543 544
f 544 543 545
f 544 545 546
f 546 545 547
f 546 547 548
f 548 547 549
f 548 549 550
f 550 549 551
f 550 551 552
f 552 551 553
f 552 553 554
f 554 553 555
f 554 555 556
f 556 555 557
f 556 557 558
f 558 557 559
f 558 559 560
f 560 559 561
f 560 561 562
f 562 561 563
f 562 563 564
f 564 563 565
f 564 565 566
f 566 565 567
f 566 567 568
f 568 567 569
f 568 569 570
f 570 569 571
f 570 571 572
f 572 571 573
f 572 573 574
f 572 574 575
f 575 574 576
f 575 576 577
f 577 576 578
f 577 578 579
f 579 578 580
f 579 580 581
f 581 580 582
f 581 582 583
f 583 582 584
f 583 584 585
f 585 584 586
f 585 586 587
f 587 586 588
f 587 588 589
f 589 588 590
f 589 590 591
f 591 590 592
f 591 592 593
f 593 592 594
f 593 594 595
f 595 594 596
f 595 596 597
f 597 596 598
f 597 598 599
f 599 598 600
f 599 600 601
f 601 600 602
f 601 602 603
f 603 602 604
f 603 604 605
f 605 604 606
f 605 606 607
f 605 607 608
f 608 607 609
f 608 609 610
f 610 609 611
f 610 611 612
f 612 611 613
f 612 613 614
f 614 613 615
f 614 615 616
f 616 615 617
f 616 617 618
f 618 617 619
f 618 619 620
f 620 619 621
f 620 621 622
f 622 621 623
f 622 623 624
f 624 623 625
f 624 625 626
f 626 625 627
f 626 627 628
f 628 627 629
f 628 629 630
f 630 629 631
f 630 631 632
f 632 631 633
f 632 633 634
f 634 633 540
f 634 540 542
f 490 621 491
f 491 621 619
f 491 619 635
f 635 619 636
f 636 619 617
f 636 617 637
f 637 617 615
f 637 615 638
f 638 615 613
f 638 613 639
f 639 613 611
f 639 611 640
f 640 611 609
f 640 609 641
f 641 609 607
f 641 607 642
f 642 607 606
f 642 606 643
f 643 606 604
f 643 604 316
f 316 604 317
f 317 604 161
f 317 161 332
f 621 490 623
f 623 490 489
f 623 489 625
f 625 489 488
f 625 488 627
f 627 488 487
f 627 487 629
f 629 487 486
f 629 486 631
f 631 486 484
f 631 484 633
f 633 484 482
f 633 482 540
f 540 482 479
f 540 479 541
f 541 479 476
f 541 476 543
f 543 476 474
f 543 474 545
f 545 474 472
f 545 472 547
f 547 472 469
f 547 469 549
f 549 469 468
f 549 468 551
f 551 468 467
f 551 467 553
f 553 467 466
f 553 466 555
f 555 466 465
f 555 465 557
f 557 465 443
f 557 443 559
f 559 443 644
f 559 644 645
f 559 645 561
f 561 645 646
f 561 646 563
f 563 646 647
f 563 647 565
f 565 647 648
f 565 648 567
f 567 648 649
f 567 649 569
f 569 649 650
f 569 650 571
f 571 650 651
f 571 651 573
f 573 651 652
f 573 652 574
f 574 652 197
f 574 197 195
f 652 198 197
f 153 154 195
f 195 154 574
f 574 154 576
f 576 154 169
f 576 169 578
f 578 169 168
f 578 168 580
f 580 168 167
f 580 167 582
f 582 167 166
f 582 166 584
f 584 166 155
f 584 155 586
f 586 155 156
f 586 156 588
f 588 156 157
f 588 157 590
f 590 157 158
f 590 158 592
f 592 158 159
f 592 159 594
f 594 159 165
f 594 165 596
f 596 165 164
f 596 164 598
f 598 164 163
f 598 163 600
f 600 163 162
f 600 162 602
f 602 162 161
f 602 161 604
f 316 312 643
f 544 653 542
f 542 653 654
f 542 654 634
f 634 654 655
f 634 655 632
f 632 655 656
f 632 656 630
f 630 656 628
f 628 656 657
f 628 657 626
f 626 657 658
f 626 658 624
f 624 658 659
f 624 659 622
f 622 659 660
f 622 660 620
f 620 660 661
f 620 661 618
f 618 661 662
f 618 662 616
f 616 662 614
f 614 662 663
f 614 663 612
f 612 663 664
f 612 664 610
f 610 664 665
f 610 665 608
f 608 665 666
f 608 666 605
f 605 666 667
f 605 667 603
f 603 667 601
f 601 667 668
f 601 668 599
f 599 668 669
f 599 669 597
f 597 669 670
f 597 670 595
f 595 670 671
f 595 671 593
f 593 671 672
f 593 672 591
f 591 672 673
f 591 673 589
f 589 673 587
f 587 673 674
f 587 674 585
f 585 674 675
f 585 675 583
f 583 675 676
f 583 676 581
f 581 676 677
f 581 677 579
f 579 677 678
f 579 678 577
f 577 678 679
f 577 679 575
f 575 679 572
f 572 679 680
f 572 680 570
f 570 680 681
f 570 681 568
f 568 681 682
f 568 682 566
f 566 682 683
f 566 683 564
f 564 683 684
f 564 684 562
f 562 684 560
f 560 684 685
f 560 685 558
f 558 685 686
f 558 686 556
f 556 686 687
f 556 687 554
f 554 687 688
f 554 688 552
f 552 688 689
f 552 689 550
f 550 689 690
f 550 690 548
f 548 690 546
f 546 690 691
f 546 691 544
f 544 691 653
f 212 692 214
f 214 692 693
f 214 693 215
f 215 693 694
f 215 694 216
f 216 694 695
f 216 695 213
f 213 695 696
f 212 204 692
f 692 204 697
f 698 255 699
f 699 255 257
f 699 257 700
f 700 257 258
f 700 258 701
f 701 258 259
f 701 259 702
f 702 259 256
f 698 703 255
f 255 703 248
f 704 696 692
f 692 696 695
f 692 695 694
f 694 693 692
f 692 697 704
f 704 697 705
f 704 705 706
f 707 708 697
f 697 708 709
f 697 709 710
f 710 711 697
f 697 711 705
f 652 651 706
f 706 651 712
f 706 712 713
f 651 650 712
f 712 650 714
f 714 650 649
f 714 649 715
f 715 649 716
f 716 649 648
f 716 648 717
f 717 648 647
f 717 647 718
f 718 647 719
f 719 647 646
f 719 646 720
f 720 646 721
f 721 646 645
f 721 645 722
f 722 645 644
f 722 644 723
f 723 644 443
f 724 725 723
f 723 725 726
f 723 726 727
f 725 724 703
f 703 724 728
f 703 728 729
f 729 730 703
f 703 730 731
f 703 731 732
f 703 698 725
f 725 698 702
f 702 698 701
f 701 698 700
f 700 698 699
f 733 734 727
f 727 734 735
f 727 735 723
f 723 735 736
f 723 736 722
f 734 733 737
f 737 733 738
f 737 738 739
f 739 738 740
f 739 740 741
f 741 740 742
f 741 742 743
f 743 742 706
f 743 706 713
f 742 744 706
f 706 744 704
f 418 419 455
f 455 419 424
f 455 424 430
f 455 430 456
f 456 430 432
f 456 432 457
f 457 432 433
f 433 432 431
f 291 745 293
f 293 745 746
f 293 746 294
f 294 746 747
f 294 747 295
f 295 747 748
f 295 748 292
f 292 748 749
f 292 749 284
f 284 749 750
f 284 750 285
f 285 750 751
f 285 751 296
f 296 751 752
f 296 752 300
f 300 752 753
f 300 753 302
f 302 753 754
f 302 754 304
f 304 754 755
f 304 755 306
f 306 755 756
f 306 756 308
f 308 756 757
f 308 757 318
f 318 757 758
f 318 758 327
f 327 758 759
f 760 326 761
f 761 326 328
f 761 328 762
f 762 328 329
f 762 329 763
f 763 329 330
f 763 330 759
f 759 330 327
f 183 179 379
f 379 179 386
f 319 764 322
f 322 764 765
f 322 765 324
f 324 765 766
f 324 766 325
f 325 766 767
f 325 767 323
f 323 767 768
f 760 764 326
f 326 764 319
f 769 283 770
f 770 283 287
f 770 287 771
f 771 287 289
f 771 289 772
f 772 289 290
f 772 290 773
f 773 290 288
f 291 283 745
f 745 283 769
f 273 389 274
f 274 389 446
f 274 446 491
f 491 446 447
f 386 179 388
f 388 179 181
f 388 181 180
f 178 385 180
f 180 385 387
f 180 387 388
f 178 176 385
f 385 176 384
f 384 176 175
f 384 175 383
f 383 175 382
f 382 175 173
f 382 173 170
f 171 380 170
f 170 380 381
f 170 381 382
f 145 99 144
f 144 99 101
f 144 101 102
f 104 148 102
f 102 148 147
f 102 147 144
f 104 105 148
f 148 105 149
f 149 105 107
f 149 107 150
f 150 107 151
f 151 107 109
f 151 109 110
f 108 115 110
f 110 115 152
f 110 152 151
f 697 204 707
f 707 204 208
f 707 208 708
f 708 208 210
f 708 210 709
f 709 210 211
f 709 211 710
f 710 211 209
f 248 703 251
f 251 703 732
f 251 732 253
f 253 732 731
f 253 731 254
f 254 731 730
f 254 730 252
f 252 730 729
f 750 749 745
f 745 749 748
f 745 748 747
f 747 746 745
f 745 769 750
f 750 769 774
f 750 774 775
f 770 771 769
f 769 771 772
f 769 772 773
f 773 776 769
f 769 776 774
f 491 635 775
f 775 635 777
f 775 777 778
f 635 636 777
f 777 636 779
f 779 636 637
f 779 637 780
f 780 637 781
f 781 637 638
f 781 638 782
f 782 638 639
f 782 639 783
f 783 639 784
f 784 639 640
f 784 640 785
f 785 640 786
f 786 640 641
f 786 641 787
f 787 641 642
f 787 642 788
f 788 642 643
f 789 758 788
f 788 758 757
f 788 757 756
f 758 789 764
f 764 789 790
f 764 790 768
f 768 767 764
f 764 767 766
f 764 766 765
f 764 760 758
f 758 760 759
f 759 760 763
f 763 760 762
f 762 760 761
f 755 791 756
f 756 791 792
f 756 792 788
f 788 792 793
f 788 793 787
f 791 755 794
f 794 755 754
f 794 754 795
f 795 754 753
f 795 753 796
f 796 753 752
f 796 752 797
f 797 752 775
f 797 775 778
f 752 751 775
f 775 751 750
f 773 288 776
f 776 288 286
f 776 286 774
f 774 286 282
f 774 282 775
f 775 282 278
f 710 209 711
f 711 209 207
f 711 207 705
f 705 207 203
f 705 203 706
f 706 203 199
f 172 332 171
f 171 332 161
f 171 161 380
f 380 161 160
f 312 310 643
f 643 310 788
f 323 768 321
f 321 768 790
f 321 790 320
f 320 790 789
f 320 789 310
f 310 789 788
f 274 491 278
f 278 491 775
f 798 799 800
f 800 799 801
f 800 801 802
f 802 801 803
f 803 801 804
f 804 801 805
f 805 801 806
f 805 806 807
f 807 806 808
f 808 806 809
f 809 806 810
f 810 806 811
f 810 811 812
f 812 811 813
f 813 811 814
f 814 811 815
f 814 815 816
f 816 815 817
f 816 817 818
f 798 819 799
f 799 819 820
f 799 820 821
f 821 820 822
f 799 821 823
f 823 821 824
f 823 824 825
f 825 826 823
f 823 826 827
f 823 827 828
f 828 827 829
f 828 829 830
f 826 831 827
f 830 832 828
f 828 832 833
f 828 833 834
f 834 833 835
f 834 835 836
f 832 837 833
f 836 838 834
f 834 838 839
f 839 838 840
f 839 840 841
f 838 842 840
f 841 843 839
f 839 843 844
f 839 844 845
f 845 844 846
f 845 846 847
f 844 848 846
f 847 849 845
f 845 849 850
f 845 850 851
f 851 850 852
f 851 852 853
f 850 854 852
f 853 855 851
f 851 855 856
f 851 856 857
f 857 856 858
f 857 858 859
f 856 860 858
f 859 861 857
f 857 861 862
f 857 862 863
f 863 862 864
f 863 864 865
f 862 866 864
f 865 867 863
f 863 867 868
f 868 867 869
f 868 869 870
f 870 869 871
f 870 872 868
f 868 872 873
f 873 872 874
f 873 874 875
f 876 877 875
f 875 877 873
f 873 877 878
f 878 877 879
f 878 879 880
f 880 881 878
f 878 881 882
f 878 882 883
f 883 882 884
f 883 884 885
f 881 886 882
f 885 887 883
f 883 887 888
f 883 888 889
f 889 888 890
f 889 890 891
f 887 892 888
f 891 893 889
f 889 893 894
f 889 894 895
f 895 894 896
f 895 896 897
f 893 898 894
f 897 899 895
f 895 899 900
f 895 900 901
f 901 900 902
f 901 902 903
f 899 904 900
f 903 905 901
f 901 905 906
f 901 906 907
f 907 906 908
f 907 908 909
f 905 910 906
f 909 911 907
f 907 911 912
f 912 911 913
f 912 913 914
f 911 915 913
f 914 916 912
f 912 916 917
f 912 917 918
f 918 917 919
f 918 919 920
f 917 921 919
f 920 922 918
f 918 922 923
f 918 923 924
f 924 923 925
f 924 925 926
f 923 927 925
f 926 928 924
f 924 928 929
f 924 929 930
f 930 929 931
f 930 931 932
f 929 933 931
f 932 934 930
f 930 934 935
f 930 935 936
f 936 935 937
f 936 937 938
f 935 939 937
f 938 940 936
f 936 940 941
f 936 941 942
f 942 941 943
f 942 943 944
f 941 945 943
f 944 946 942
f 942 946 815
f 815 946 817
f 812 947 810
f 807 948 805
f 802 949 800
f 950 951 952
f 952 951 953
f 952 953 954
f 954 953 955
f 954 955 956
f 956 955 957
f 956 957 958
f 956 958 959
f 959 958 960
f 959 960 961
f 961 960 962
f 961 962 963
f 961 963 964
f 964 963 965
f 964 965 966
f 966 965 967
f 966 967 968
f 968 967 969
f 968 969 970
f 968 970 971
f 971 970 972
f 971 972 973
f 973 972 974
f 973 974 975
f 973 975 976
f 976 975 977
f 976 977 978
f 978 977 979
f 978 979 980
f 978 980 981
f 981 980 982
f 981 982 983
f 983 982 984
f 983 984 985
f 983 985 986
f 986 985 987
f 986 987 988
f 988 987 989
f 988 989 990
f 990 989 991
f 990 991 992
f 990 992 993
f 993 992 994
f 993 994 995
f 995 994 996
f 995 996 997
f 995 997 998
f 998 997 999
f 998 999 1000
f 1000 999 1001
f 1000 1001 1002
f 1000 1002 1003
f 1003 1002 1004
f 1003 1004 1005
f 1005 1004 1006
f 1005 1006 1007
f 1007 1006 1008
f 1007 1008 1009
f 1007 1009 1010
f 1010 1009 1011
f 1010 1011 1012
f 1012 1011 1013
f 1012 1013 1014
f 1012 1014 1015
f 1015 1014 950
f 1015 950 952
f 96 1016 3
f 3 1016 1017
f 3 1017 1018
f 95 1019 96
f 96 1019 1020
f 96 1020 1021
f 1019 95 1022
f 1022 95 93
f 1022 93 1023
f 1023 93 1024
f 1024 93 1025
f 1025 93 1026
f 1026 93 1027
f 1026 1027 1028
f 93 91 1027
f 1027 91 1029
f 1029 91 89
f 1029 89 1030
f 1030 89 1031
f 1031 89 1032
f 1032 89 1033
f 1033 89 1034
f 1034 89 88
f 1034 88 1035
f 1035 88 87
f 1035 87 1036
f 1036 87 85
f 1036 85 1037
f 1037 85 1038
f 1038 85 83
f 1038 83 1039
f 1039 83 1040
f 1040 83 1041
f 1041 83 1042
f 1042 83 82
f 1042 82 1043
f 1043 82 80
f 1043 80 1044
f 1044 80 1045
f 1045 80 1046
f 1046 80 1047
f 1047 80 1048
f 1047 1048 1049
f 80 78 1048
f 1048 78 1050
f 1050 78 76
f 1050 76 1051
f 1051 76 1052
f 1052 76 1053
f 1053 76 1054
f 1054 76 1055
f 1055 76 1056
f 1056 76 1057
f 1057 76 74
f 1057 74 1058
f 1058 74 1059
f 1059 74 72
f 1059 72 1060
f 1060 72 1061
f 1061 72 1062
f 1062 72 1063
f 1063 72 1064
f 1064 72 70
f 1064 70 1065
f 1065 70 1066
f 1066 70 1067
f 1067 70 1068
f 1068 70 1069
f 1068 1069 1070
f 70 68 1069
f 1069 68 1071
f 1071 68 66
f 1071 66 1072
f 1072 66 1073
f 1073 66 1074
f 1074 66 1075
f 1075 66 1076
f 1076 66 1077
f 1077 66 64
f 1077 64 1078
f 1078 64 62
f 1078 62 1079
f 1079 62 1080
f 1080 62 1081
f 1081 62 60
f 1081 60 1082
f 1082 60 1083
f 1083 60 1084
f 1084 60 1085
f 1085 60 58
f 1085 58 1086
f 1086 58 1087
f 1087 58 1088
f 1088 58 1089
f 1089 58 1090
f 1090 58 1091
f 1091 58 56
f 1091 56 1092
f 1092 56 1093
f 1093 56 54
f 1093 54 1094
f 1094 54 1095
f 1095 54 1096
f 1096 54 1097
f 1097 54 1098
f 1098 54 53
f 1098 53 1099
f 1099 53 51
f 1099 51 1100
f 1100 51 1101
f 1101 51 1102
f 1102 51 1103
f 1103 51 49
f 1103 49 1104
f 1104 49 1105
f 1105 49 1106
f 1106 49 47
f 1106 47 1107
f 1107 47 1108
f 1108 47 1109
f 1109 47 1110
f 1110 47 1111
f 1111 47 1112
f 1112 47 1113
f 1113 47 45
f 1113 45 1114
f 1114 45 1115
f 1115 45 43
f 1115 43 1116
f 1116 43 1117
f 1117 43 1118
f 1118 43 1119
f 1119 43 41
f 1119 41 1120
f 1120 41 40
f 1120 40 1121
f 1121 40 1122
f 1122 40 1123
f 1123 40 1124
f 1124 40 1125
f 1124 1125 1126
f 40 38 1125
f 1125 38 1127
f 1127 38 36
f 1127 36 1128
f 1128 36 1129
f 1129 36 1130
f 1130 36 1131
f 1131 36 1132
f 1132 36 34
f 1132 34 1133
f 1133 34 33
f 1133 33 1134
f 1134 33 31
f 1134 31 1135
f 1135 31 1136
f 1136 31 29
f 1136 29 1137
f 1137 29 1138
f 1138 29 1139
f 1139 29 1140
f 1140 29 1141
f 1141 29 27
f 1141 27 1142
f 1142 27 1143
f 1143 27 1144
f 1144 27 1145
f 1145 27 1146
f 1145 1146 1147
f 27 25 1146
f 1146 25 1148
f 1148 25 23
f 1148 23 1149
f 1149 23 1150
f 1150 23 1151
f 1151 23 1152
f 1152 23 1153
f 1153 23 1154
f 1154 23 22
f 1154 22 1155
f 1155 22 20
f 1155 20 1156
f 1156 20 1157
f 1156 1157 1158
f 20 18 1157
f 1157 18 1159
f 1159 18 1160
f 1160 18 1161
f 1161 18 1162
f 1162 18 16
f 1162 16 1163
f 1163 16 1164
f 1164 16 1165
f 1165 16 1166
f 1166 16 1167
f 1166 1167 1168
f 16 14 1167
f 1167 14 1169
f 1169 14 12
f 1169 12 1170
f 1170 12 1171
f 1171 12 1172
f 1172 12 1173
f 1173 12 1174
f 1174 12 1175
f 1175 12 10
f 1175 10 1176
f 1176 10 9
f 1176 9 1177
f 1177 9 1178
f 1178 9 1179
f 1179 9 7
f 1179 7 1180
f 1180 7 1181
f 1181 7 1182
f 1182 7 1183
f 1183 7 1
f 1183 1 1184
f 1184 1 1185
f 1185 1 1186
f 1186 1 1187
f 1187 1 1188
f 1188 1 1189
f 1189 1 1018
f 1018 1 3
f 1021 1190 96
f 96 1190 1016
f 800 1016 798
f 798 1016 1190
f 798 1190 819
f 819 1190 1021
f 819 1021 820
f 820 1021 1020
f 821 1024 824
f 824 1024 1025
f 824 1025 825
f 825 1025 1026
f 825 1026 826
f 826 1026 1028
f 827 1031 829
f 829 1031 1032
f 829 1032 830
f 830 1032 1033
f 830 1033 832
f 832 1033 1034
f 833 1038 835
f 835 1038 1039
f 835 1039 836
f 836 1039 1040
f 836 1040 838
f 838 1040 1041
f 840 1045 841
f 841 1045 1046
f 841 1046 843
f 843 1046 1047
f 843 1047 844
f 844 1047 1049
f 846 1052 847
f 847 1052 1053
f 847 1053 849
f 849 1053 1054
f 849 1054 850
f 850 1054 1055
f 852 1059 853
f 853 1059 1060
f 853 1060 855
f 855 1060 1061
f 855 1061 856
f 856 1061 1062
f 858 1066 859
f 859 1066 1067
f 859 1067 861
f 861 1067 1068
f 861 1068 862
f 862 1068 1070
f 864 1073 865
f 865 1073 1074
f 865 1074 867
f 867 1074 1075
f 867 1075 869
f 869 1075 1076
f 870 1080 872
f 872 1080 1081
f 872 1081 874
f 874 1081 1082
f 874 1082 875
f 875 1082 1083
f 877 1087 879
f 879 1087 1088
f 879 1088 880
f 880 1088 1089
f 880 1089 881
f 881 1089 1090
f 882 1094 884
f 884 1094 1095
f 884 1095 885
f 885 1095 1096
f 885 1096 887
f 887 1096 1097
f 888 1101 890
f 890 1101 1102
f 890 1102 891
f 891 1102 1103
f 891 1103 893
f 893 1103 1104
f 894 1108 896
f 896 1108 1109
f 896 1109 897
f 897 1109 1110
f 897 1110 899
f 899 1110 1111
f 900 1115 902
f 902 1115 1116
f 902 1116 903
f 903 1116 1117
f 903 1117 905
f 905 1117 1118
f 906 1122 908
f 908 1122 1123
f 908 1123 909
f 909 1123 1124
f 909 1124 911
f 911 1124 1126
f 913 1129 914
f 914 1129 1130
f 914 1130 916
f 916 1130 1131
f 916 1131 917
f 917 1131 1132
f 919 1136 920
f 920 1136 1137
f 920 1137 922
f 922 1137 1138
f 922 1138 923
f 923 1138 1139
f 925 1143 926
f 926 1143 1144
f 926 1144 928
f 928 1144 1145
f 928 1145 929
f 929 1145 1147
f 931 1150 932
f 932 1150 1151
f 932 1151 934
f 934 1151 1152
f 934 1152 935
f 935 1152 1153
f 937 1158 938
f 938 1158 1157
f 938 1157 940
f 940 1157 1159
f 940 1159 941
f 941 1159 1160
f 943 1164 944
f 944 1164 1165
f 944 1165 946
f 946 1165 1166
f 946 1166 817
f 817 1166 1168
f 816 1171 814
f 814 1171 1172
f 814 1172 813
f 813 1172 1173
f 813 1173 812
f 812 1173 1174
f 810 1178 809
f 809 1178 1179
f 809 1179 808
f 808 1179 1180
f 808 1180 807
f 807 1180 1181
f 652 706 198
f 198 706 199
f 805 1185 804
f 804 1185 1186
f 804 1186 803
f 803 1186 1187
f 803 1187 802
f 802 1187 1188
f 954 845 952
f 952 845 851
f 952 851 1015
f 1015 851 857
f 1015 857 863
f 954 956 845
f 845 956 839
f 839 956 959
f 839 959 834
f 834 959 961
f 834 961 828
f 828 961 964
f 828 964 823
f 823 964 966
f 823 966 799
f 799 966 968
f 799 968 801
f 801 968 971
f 801 971 806
f 806 971 973
f 806 973 811
f 811 973 976
f 811 976 815
f 815 976 978
f 815 978 942
f 942 978 981
f 942 981 936
f 936 981 983
f 936 983 930
f 930 983 986
f 930 986 924
f 924 986 988
f 924 988 918
f 918 988 990
f 918 990 912
f 912 990 993
f 912 993 907
f 907 993 995
f 907 995 901
f 901 995 998
f 901 998 895
f 895 998 1000
f 895 1000 889
f 889 1000 1003
f 889 1003 883
f 883 1003 1005
f 883 1005 878
f 878 1005 1007
f 878 1007 873
f 873 1007 1010
f 873 1010 868
f 868 1010 1012
f 868 1012 863
f 863 1012 1015
f 672 953 673
f 673 953 951
f 673 951 674
f 674 951 950
f 674 950 675
f 675 950 1014
f 675 1014 676
f 676 1014 1013
f 676 1013 677
f 677 1013 1011
f 677 1011 678
f 678 1011 1009
f 678 1009 679
f 679 1009 1008
f 679 1008 680
f 680 1008 1006
f 680 1006 681
f 681 1006 1004
f 681 1004 682
f 682 1004 1002
f 682 1002 683
f 683 1002 1001
f 683 1001 684
f 684 1001 999
f 684 999 685
f 685 999 997
f 685 997 686
f 686 997 996
f 686 996 687
f 687 996 994
f 687 994 688
f 688 994 992
f 688 992 689
f 689 992 991
f 689 991 690
f 690 991 989
f 690 989 691
f 691 989 987
f 691 987 653
f 653 987 985
f 653 985 654
f 654 985 984
f 654 984 655
f 655 984 982
f 655 982 656
f 656 982 980
f 656 980 657
f 657 980 979
f 657 979 658
f 658 979 977
f 658 977 659
f 659 977 975
f 659 975 660
f 660 975 974
f 660 974 661
f 661 974 972
f 661 972 662
f 662 972 970
f 662 970 663
f 663 970 969
f 663 969 664
f 664 969 967
f 664 967 665
f 665 967 965
f 665 965 666
f 666 965 963
f 666 963 667
f 667 963 962
f 667 962 668
f 668 962 960
f 668 960 669
f 669 960 958
f 669 958 670
f 670 958 957
f 670 957 671
f 671 957 955
f 671 955 672
f 672 955 953
f 231 723 233
f 233 723 443
f 252 729 250
f 250 729 728
f 250 728 249
f 249 728 724
f 249 724 231
f 231 724 723
f 372 786 311
f 311 786 787
f 311 787 309
f 309 787 793
f 309 793 307
f 307 793 792
f 307 792 305
f 305 792 791
f 305 791 303
f 303 791 794
f 303 794 301
f 301 794 795
f 301 795 299
f 299 795 796
f 299 796 297
f 297 796 797
f 297 797 298
f 298 797 778
f 298 778 279
f 279 778 777
f 279 777 361
f 361 777 779
f 361 779 363
f 363 779 780
f 363 780 364
f 364 780 781
f 364 781 366
f 366 781 782
f 366 782 367
f 367 782 783
f 367 783 369
f 369 783 784
f 369 784 370
f 370 784 785
f 370 785 372
f 372 785 786
f 219 713 200
f 200 713 712
f 200 712 347
f 347 712 714
f 347 714 349
f 349 714 715
f 349 715 351
f 351 715 716
f 351 716 352
f 352 716 717
f 352 717 354
f 354 717 718
f 354 718 355
f 355 718 719
f 355 719 357
f 357 719 720
f 357 720 358
f 358 720 721
f 358 721 232
f 232 721 722
f 232 722 230
f 230 722 736
f 230 736 228
f 228 736 735
f 228 735 226
f 226 735 734
f 226 734 224
f 224 734 737
f 224 737 222
f 222 737 739
f 222 739 220
f 220 739 741
f 220 741 218
f 218 741 743
f 218 743 219
f 219 743 713
f 213 696 205
f 205 696 704
f 205 704 206
f 206 704 744
f 206 744 217
f 217 744 742
f 217 742 221
f 221 742 740
f 221 740 223
f 223 740 738
f 223 738 225
f 225 738 733
f 225 733 227
f 227 733 727
f 227 727 229
f 229 727 726
f 229 726 247
f 247 726 725
f 247 725 256
f 256 725 702
f 480 336 478
f 478 336 338
f 478 338 477
f 477 338 246
f 477 246 475
f 475 246 245
f 475 245 473
f 473 245 243
f 473 243 471
f 471 243 241
f 471 241 470
f 470 241 263
f 470 263 492
f 492 263 262
f 492 262 464
f 464 262 261
f 464 261 463
f 463 261 265
f 463 265 462
f 462 265 267
f 462 267 461
f 461 267 269
f 461 269 458
f 458 269 271
f 458 271 459
f 459 271 346
f 459 346 460
f 460 346 345
f 460 345 485
f 485 345 344
f 485 344 483
f 483 344 342
f 483 342 481
f 481 342 341
f 481 341 480
f 480 341 336
f 1188 1189 802
f 802 1189 949
f 949 1189 1018
f 1018 1017 949
f 949 1017 800
f 800 1017 1016
f 1183 1184 948
f 948 1184 805
f 805 1184 1185
f 1181 1182 807
f 807 1182 948
f 948 1182 1183
f 1176 1177 947
f 947 1177 810
f 810 1177 1178
f 1174 1175 812
f 812 1175 947
f 947 1175 1176
f 1169 1170 818
f 818 1170 816
f 816 1170 1171
f 1168 1167 817
f 817 1167 818
f 818 1167 1169
f 1162 1163 945
f 945 1163 943
f 943 1163 1164
f 1160 1161 941
f 941 1161 945
f 945 1161 1162
f 1155 1156 939
f 939 1156 937
f 937 1156 1158
f 1153 1154 935
f 935 1154 939
f 939 1154 1155
f 1148 1149 933
f 933 1149 931
f 931 1149 1150
f 1147 1146 929
f 929 1146 933
f 933 1146 1148
f 1141 1142 927
f 927 1142 925
f 925 1142 1143
f 1139 1140 923
f 923 1140 927
f 927 1140 1141
f 1134 1135 921
f 921 1135 919
f 919 1135 1136
f 1132 1133 917
f 917 1133 921
f 921 1133 1134
f 1127 1128 915
f 915 1128 913
f 913 1128 1129
f 1126 1125 911
f 911 1125 915
f 915 1125 1127
f 1120 1121 910
f 910 1121 906
f 906 1121 1122
f 1118 1119 905
f 905 1119 910
f 910 1119 1120
f 1113 1114 904
f 904 1114 900
f 900 1114 1115
f 1111 1112 899
f 899 1112 904
f 904 1112 1113
f 1106 1107 898
f 898 1107 894
f 894 1107 1108
f 1104 1105 893
f 893 1105 898
f 898 1105 1106
f 1099 1100 892
f 892 1100 888
f 888 1100 1101
f 1097 1098 887
f 887 1098 892
f 892 1098 1099
f 1092 1093 886
f 886 1093 882
f 882 1093 1094
f 1090 1091 881
f 881 1091 886
f 886 1091 1092
f 1085 1086 876
f 876 1086 877
f 877 1086 1087
f 1083 1084 875
f 875 1084 876
f 876 1084 1085
f 1078 1079 871
f 871 1079 870
f 870 1079 1080
f 1076 1077 869
f 869 1077 871
f 871 1077 1078
f 1071 1072 866
f 866 1072 864
f 864 1072 1073
f 1070 1069 862
f 862 1069 866
f 866 1069 1071
f 1064 1065 860
f 860 1065 858
f 858 1065 1066
f 1062 1063 856
f 856 1063 860
f 860 1063 1064
f 1057 1058 854
f 854 1058 852
f 852 1058 1059
f 1055 1056 850
f 850 1056 854
f 854 1056 1057
f 1050 1051 848
f 848 1051 846
f 846 1051 1052
f 1049 1048 844
f 844 1048 848
f 848 1048 1050
f 1043 1044 842
f 842 1044 840
f 840 1044 1045
f 1041 1042 838
f 838 1042 842
f 842 1042 1043
f 1036 1037 837
f 837 1037 833
f 833 1037 1038
f 1034 1035 832
f 832 1035 837
f 837 1035 1036
f 1029 1030 831
f 831 1030 827
f 827 1030 1031
f 1028 1027 826
f 826 1027 831
f 831 1027 1029
f 1020 1019 820
f 820 1019 822
f 822 1019 1022
f 1022 1023 822
f 822 1023 821
f 821 1023 1024

