# https://github.com/mikedh/trimesh
v 0.03564900 0.34045200 0.00738800
v 0.03564900 0.34045200 0.00738800
v 0.03564900 0.34045200 0.00738800
v 0.03564900 0.34045200 0.00738800
v 0.03564900 0.34045200 0.00738800
v 0.03564900 0.34045200 0.00738800
v 0.05051700 0.33976600 0.00767100
v 0.05051700 0.33976600 0.00767100
v 0.05051700 0.33976600 0.00767100
v 0.05051700 0.33976600 0.00767100
v 0.05051700 0.33976600 0.00767100
v 0.05051700 0.33976600 0.00767100
v 0.00148700 0.36129600 -0.03028900
v 0.00148700 0.36129600 -0.03028900
v 0.00148700 0.36129600 -0.03028900
v 0.00148700 0.36129600 -0.03028900
v 0.00148700 0.36129600 -0.03028900
v 0.00148700 0.36129600 -0.03028900
v 0.00148700 0.36129600 -0.03028900
v 0.00148700 0.36129600 -0.03028900
v 0.08907800 0.36583600 -0.00852700
v 0.08907800 0.36583600 -0.00852700
v 0.08907800 0.36583600 -0.00852700
v 0.08907800 0.36583600 -0.00852700
v 0.08907800 0.36583600 -0.00852700
v 0.08907800 0.36583600 -0.00852700
v 0.08462200 0.39961700 0.02703300
v 0.08462200 0.39961700 0.02703300
v 0.08462200 0.39961700 0.02703300
v 0.08462200 0.39961700 0.02703300
v 0.08462200 0.39961700 0.02703300
v 0.08462200 0.39961700 0.02703300
v 0.08462200 0.39961700 0.02703300
v 0.08462200 0.39961700 0.02703300
v 0.08462200 0.39961700 0.02703300
v 0.07321800 0.33925600 -0.00063900
v 0.07321800 0.33925600 -0.00063900
v 0.07321800 0.33925600 -0.00063900
v 0.07321800 0.33925600 -0.00063900
v 0.07321800 0.33925600 -0.00063900
v 0.07321800 0.33925600 -0.00063900
v 0.07321800 0.33925600 -0.00063900
v 0.07321800 0.33925600 -0.00063900
v 0.00894400 0.41466000 -0.05885400
v 0.00894400 0.41466000 -0.05885400
v 0.00894400 0.41466000 -0.05885400
v 0.00894400 0.41466000 -0.05885400
v 0.00894400 0.41466000 -0.05885400
v 0.00894400 0.41466000 -0.05885400
v 0.00894400 0.41466000 -0.05885400
v 0.00894400 0.41466000 -0.05885400
v 0.08572400 0.39306600 -0.06715000
v 0.08572400 0.39306600 -0.06715000
v 0.08572400 0.39306600 -0.06715000
v 0.08572400 0.39306600 -0.06715000
v 0.08572400 0.39306600 -0.06715000
v 0.08572400 0.39306600 -0.06715000
v 0.00718400 0.42155000 0.03270500
v 0.00718400 0.42155000 0.03270500
v 0.00718400 0.42155000 0.03270500
v 0.00718400 0.42155000 0.03270500
v 0.00718400 0.42155000 0.03270500
v 0.00718400 0.42155000 0.03270500
v 0.00718400 0.42155000 0.03270500
v 0.00718400 0.42155000 0.03270500
v 0.01146400 0.45747300 -0.02551200
v 0.01146400 0.45747300 -0.02551200
v 0.01146400 0.45747300 -0.02551200
v 0.08904600 0.45169700 -0.00975600
v 0.08904600 0.45169700 -0.00975600
v 0.08904600 0.45169700 -0.00975600
v 0.08904600 0.45169700 -0.00975600
v 0.08904600 0.45169700 -0.00975600
v 0.08904600 0.45169700 -0.00975600
v 0.01333700 0.34339600 -0.00079200
v 0.01333700 0.34339600 -0.00079200
v 0.01333700 0.34339600 -0.00079200
v 0.01333700 0.34339600 -0.00079200
v 0.01333700 0.34339600 -0.00079200
v 0.01333700 0.34339600 -0.00079200
v 0.01333700 0.34339600 -0.00079200
v 0.01333700 0.34339600 -0.00079200
v 0.04248400 0.10521100 -0.01271400
v 0.04248400 0.10521100 -0.01271400
v 0.04248400 0.10521100 -0.01271400
v 0.04248400 0.10521100 -0.01271400
v 0.04248400 0.10521100 -0.01271400
v 0.04248400 0.10521100 -0.01271400
v 0.04248400 0.10521100 -0.01271400
v 0.02263600 0.11318200 -0.00074700
v 0.02263600 0.11318200 -0.00074700
v 0.02263600 0.11318200 -0.00074700
v 0.02263600 0.11318200 -0.00074700
v 0.02263600 0.11318200 -0.00074700
v 0.02263600 0.11318200 -0.00074700
v 0.02263600 0.11318200 -0.00074700
v 0.04354500 0.13536200 0.00835600
v 0.04354500 0.13536200 0.00835600
v 0.04354500 0.13536200 0.00835600
v 0.04354500 0.13536200 0.00835600
v 0.04354500 0.13536200 0.00835600
v 0.04354500 0.13536200 0.00835600
v 0.04354500 0.13536200 0.00835600
v 0.04354500 0.13536200 0.00835600
v 0.00989400 -0.19016400 0.00052100
v 0.00989400 -0.19016400 0.00052100
v 0.00989400 -0.19016400 0.00052100
v 0.00989400 -0.19016400 0.00052100
v 0.00989400 -0.19016400 0.00052100
v 0.00989400 -0.19016400 0.00052100
v 0.00989400 -0.19016400 0.00052100
v 0.08697900 0.41264100 -0.02086000
v 0.08697900 0.41264100 -0.02086000
v 0.08697900 0.41264100 -0.02086000
v 0.08697900 0.41264100 -0.02086000
v 0.08697900 0.41264100 -0.02086000
v 0.08697900 0.41264100 -0.02086000
v 0.00788700 0.43124900 -0.02937200
v 0.00788700 0.43124900 -0.02937200
v 0.00788700 0.43124900 -0.02937200
v 0.00788700 0.43124900 -0.02937200
v 0.00788700 0.43124900 -0.02937200
v 0.04844900 0.24180200 0.01175400
v 0.04844900 0.24180200 0.01175400
v 0.04844900 0.24180200 0.01175400
v 0.04844900 0.24180200 0.01175400
v 0.04844900 0.24180200 0.01175400
v 0.04844900 0.24180200 0.01175400
v 0.02427900 0.15881900 0.02884700
v 0.02427900 0.15881900 0.02884700
v 0.02427900 0.15881900 0.02884700
v 0.02427900 0.15881900 0.02884700
v 0.02427900 0.15881900 0.02884700
v 0.02427900 0.15881900 0.02884700
v 0.03094100 -0.16569500 -0.06424300
v 0.03094100 -0.16569500 -0.06424300
v 0.03094100 -0.16569500 -0.06424300
v 0.03094100 -0.16569500 -0.06424300
v 0.03094100 -0.16569500 -0.06424300
v 0.03094100 -0.16569500 -0.06424300
v 0.03094100 -0.16569500 -0.06424300
v 0.03094100 -0.16569500 -0.06424300
v 0.00397900 -0.14840100 0.08645600
v 0.00397900 -0.14840100 0.08645600
v 0.00397900 -0.14840100 0.08645600
v 0.00397900 -0.14840100 0.08645600
v 0.00397900 -0.14840100 0.08645600
v 0.00397900 -0.14840100 0.08645600
v 0.00397900 -0.14840100 0.08645600
v 0.00397900 -0.14840100 0.08645600
v 0.00397900 -0.14840100 0.08645600
v 0.00397900 -0.14840100 0.08645600
v 0.03007400 -0.12264400 0.06787200
v 0.03007400 -0.12264400 0.06787200
v 0.03007400 -0.12264400 0.06787200
v 0.03007400 -0.12264400 0.06787200
v 0.03007400 -0.12264400 0.06787200
v 0.03007400 -0.12264400 0.06787200
v 0.03007400 -0.12264400 0.06787200
v 0.02428200 -0.04084900 0.07200500
v 0.02428200 -0.04084900 0.07200500
v 0.02428200 -0.04084900 0.07200500
v 0.02428200 -0.04084900 0.07200500
v 0.02428200 -0.04084900 0.07200500
v 0.02428200 -0.04084900 0.07200500
v 0.02428200 -0.04084900 0.07200500
v 0.03116700 0.09989400 0.05199800
v 0.03116700 0.09989400 0.05199800
v 0.03116700 0.09989400 0.05199800
v 0.03116700 0.09989400 0.05199800
v 0.03116700 0.09989400 0.05199800
v 0.03116700 0.09989400 0.05199800
v 0.03116700 0.09989400 0.05199800
v 0.03116700 0.09989400 0.05199800
v 0.03116700 0.09989400 0.05199800
v 0.03116700 0.09989400 0.05199800
v 0.03116700 0.09989400 0.05199800
v 0.02846200 0.24272200 0.01208000
v 0.02846200 0.24272200 0.01208000
v 0.02846200 0.24272200 0.01208000
v 0.02846200 0.24272200 0.01208000
v 0.02846200 0.24272200 0.01208000
v 0.02846200 0.24272200 0.01208000
v 0.02167600 -0.15249600 -0.00331400
v 0.02167600 -0.15249600 -0.00331400
v 0.02167600 -0.15249600 -0.00331400
v 0.02167600 -0.15249600 -0.00331400
v 0.02167600 -0.15249600 -0.00331400
v 0.02167600 -0.15249600 -0.00331400
v 0.02374900 -0.19024800 -0.00579400
v 0.02374900 -0.19024800 -0.00579400
v 0.02374900 -0.19024800 -0.00579400
v 0.02374900 -0.19024800 -0.00579400
v 0.02374900 -0.19024800 -0.00579400
v 0.02374900 -0.19024800 -0.00579400
v 0.02374900 -0.19024800 -0.00579400
v 0.03523800 0.12147800 -0.01303600
v 0.03523800 0.12147800 -0.01303600
v 0.03523800 0.12147800 -0.01303600
v 0.03523800 0.12147800 -0.01303600
v 0.03523800 0.12147800 -0.01303600
v 0.03523800 0.12147800 -0.01303600
v 0.03523800 0.12147800 -0.01303600
v 0.02267600 0.10842300 -0.01677000
v 0.02267600 0.10842300 -0.01677000
v 0.02267600 0.10842300 -0.01677000
v 0.02267600 0.10842300 -0.01677000
v 0.02267600 0.10842300 -0.01677000
v 0.00465100 0.13520900 -0.06274500
v 0.00465100 0.13520900 -0.06274500
v 0.00465100 0.13520900 -0.06274500
v 0.00465100 0.13520900 -0.06274500
v 0.00465100 0.13520900 -0.06274500
v 0.00465100 0.13520900 -0.06274500
v 0.00538400 -0.16724100 -0.06758000
v 0.00538400 -0.16724100 -0.06758000
v 0.00538400 -0.16724100 -0.06758000
v 0.00538400 -0.16724100 -0.06758000
v 0.00538400 -0.16724100 -0.06758000
v 0.00538400 -0.16724100 -0.06758000
v 0.00538400 -0.16724100 -0.06758000
v 0.00538400 -0.16724100 -0.06758000
v 0.00538400 -0.16724100 -0.06758000
v 0.04903200 -0.19821100 -0.05319200
v 0.04903200 -0.19821100 -0.05319200
v 0.04903200 -0.19821100 -0.05319200
v 0.04903200 -0.19821100 -0.05319200
v 0.04903200 -0.19821100 -0.05319200
v 0.04903200 -0.19821100 -0.05319200
v 0.03671000 -0.16390600 0.08603500
v 0.03671000 -0.16390600 0.08603500
v 0.03671000 -0.16390600 0.08603500
v 0.03671000 -0.16390600 0.08603500
v 0.03671000 -0.16390600 0.08603500
v 0.03671000 -0.16390600 0.08603500
v 0.03671000 -0.16390600 0.08603500
v 0.03671000 -0.16390600 0.08603500
v 0.03671000 -0.16390600 0.08603500
v 0.04966500 0.12133700 -0.07322100
v 0.04966500 0.12133700 -0.07322100
v 0.04966500 0.12133700 -0.07322100
v 0.04966500 0.12133700 -0.07322100
v 0.04966500 0.12133700 -0.07322100
v 0.04966500 0.12133700 -0.07322100
v 0.04966500 0.12133700 -0.07322100
v 0.04966500 0.12133700 -0.07322100
v 0.04904900 0.17269800 -0.02393500
v 0.04904900 0.17269800 -0.02393500
v 0.04904900 0.17269800 -0.02393500
v 0.04904900 0.17269800 -0.02393500
v 0.04904900 0.17269800 -0.02393500
v 0.04904900 0.17269800 -0.02393500
v 0.04904900 0.17269800 -0.02393500
v 0.04904900 0.17269800 -0.02393500
v 0.04904900 0.17269800 -0.02393500
v 0.04904900 0.17269800 -0.02393500
v 0.02750600 0.15470000 -0.04204800
v 0.02750600 0.15470000 -0.04204800
v 0.02750600 0.15470000 -0.04204800
v 0.02750600 0.15470000 -0.04204800
v 0.02750600 0.15470000 -0.04204800
v 0.02750600 0.15470000 -0.04204800
v 0.02750600 0.15470000 -0.04204800
v 0.02750600 0.15470000 -0.04204800
v 0.02750600 0.15470000 -0.04204800
v 0.02750600 0.15470000 -0.04204800
v 0.02750600 0.15470000 -0.04204800
v 0.02750600 0.15470000 -0.04204800
v 0.02750600 0.15470000 -0.04204800
v 0.02750600 0.15470000 -0.04204800
v 0.09519400 0.04391800 -0.03919000
v 0.09519400 0.04391800 -0.03919000
v 0.09519400 0.04391800 -0.03919000
v 0.09519400 0.04391800 -0.03919000
v 0.09519400 0.04391800 -0.03919000
v 0.08547400 -0.13990900 0.05557900
v 0.08547400 -0.13990900 0.05557900
v 0.08547400 -0.13990900 0.05557900
v 0.08547400 -0.13990900 0.05557900
v 0.08547400 -0.13990900 0.05557900
v 0.08547400 -0.13990900 0.05557900
v 0.08547400 -0.13990900 0.05557900
v 0.08547400 -0.13990900 0.05557900
v 0.08547400 -0.13990900 0.05557900
v 0.08547400 -0.13990900 0.05557900
v 0.08547400 -0.13990900 0.05557900
v 0.12071500 0.00497800 -0.02786800
v 0.12071500 0.00497800 -0.02786800
v 0.12071500 0.00497800 -0.02786800
v 0.12071500 0.00497800 -0.02786800
v 0.12071500 0.00497800 -0.02786800
v 0.12071500 0.00497800 -0.02786800
v 0.12071500 0.00497800 -0.02786800
v 0.09417700 0.04621900 0.02947600
v 0.09417700 0.04621900 0.02947600
v 0.09417700 0.04621900 0.02947600
v 0.09417700 0.04621900 0.02947600
v 0.08773700 -0.14041600 -0.06288300
v 0.08773700 -0.14041600 -0.06288300
v 0.08773700 -0.14041600 -0.06288300
v 0.08773700 -0.14041600 -0.06288300
v 0.08773700 -0.14041600 -0.06288300
v 0.08773700 -0.14041600 -0.06288300
v 0.08773700 -0.14041600 -0.06288300
v 0.08773700 -0.14041600 -0.06288300
v 0.08773700 -0.14041600 -0.06288300
v 0.08773700 -0.14041600 -0.06288300
v 0.12525600 -0.05638900 -0.05292700
v 0.12525600 -0.05638900 -0.05292700
v 0.12525600 -0.05638900 -0.05292700
v 0.12525600 -0.05638900 -0.05292700
v 0.12525600 -0.05638900 -0.05292700
v 0.12847500 -0.09085600 0.04260400
v 0.12847500 -0.09085600 0.04260400
v 0.12847500 -0.09085600 0.04260400
v 0.12847500 -0.09085600 0.04260400
v 0.12847500 -0.09085600 0.04260400
v 0.12847500 -0.09085600 0.04260400
v 0.12847500 -0.09085600 0.04260400
v 0.12286600 -0.15508600 -0.02122800
v 0.12286600 -0.15508600 -0.02122800
v 0.12286600 -0.15508600 -0.02122800
v 0.12286600 -0.15508600 -0.02122800
v 0.12286600 -0.15508600 -0.02122800
v 0.13239000 -0.02200400 0.01100100
v 0.13239000 -0.02200400 0.01100100
v 0.13239000 -0.02200400 0.01100100
v 0.13239000 -0.02200400 0.01100100
v 0.13239000 -0.02200400 0.01100100
v -0.08025300 -0.05891200 0.05077600
v -0.08025300 -0.05891200 0.05077600
v -0.08025300 -0.05891200 0.05077600
v -0.07555000 0.03776900 0.04887100
v -0.07555000 0.03776900 0.04887100
v -0.07555000 0.03776900 0.04887100
v -0.07555000 0.03776900 0.04887100
v -0.03672500 -0.04337700 0.05112900
v -0.03672500 -0.04337700 0.05112900
v -0.03672500 -0.04337700 0.05112900
v -0.03672500 -0.04337700 0.05112900
v -0.03672500 -0.04337700 0.05112900
v -0.03672500 -0.04337700 0.05112900
v -0.07869500 -0.01719300 0.04994900
v -0.07869500 -0.01719300 0.04994900
v -0.07869500 -0.01719300 0.04994900
v -0.07869500 -0.01719300 0.04994900
v -0.07869500 -0.01719300 0.04994900
v -0.07869500 -0.01719300 0.04994900
v -0.07869500 -0.01719300 0.04994900
v 0.05852600 0.13140000 0.04514900
v 0.05852600 0.13140000 0.04514900
v 0.05852600 0.13140000 0.04514900
v 0.05852600 0.13140000 0.04514900
v 0.05852600 0.13140000 0.04514900
v 0.05852600 0.13140000 0.04514900
v -0.03986300 0.00157100 0.05016600
v -0.03986300 0.00157100 0.05016600
v -0.03986300 0.00157100 0.05016600
v -0.03986300 0.00157100 0.05016600
v -0.03986300 0.00157100 0.05016600
v -0.03986300 0.00157100 0.05016600
v 0.04546700 0.12698400 0.03156100
v 0.04546700 0.12698400 0.03156100
v 0.04546700 0.12698400 0.03156100
v 0.04546700 0.12698400 0.03156100
v 0.04546700 0.12698400 0.03156100
v 0.04546700 0.12698400 0.03156100
v 0.04546700 0.12698400 0.03156100
v -0.07487500 0.06687700 0.04828200
v -0.07487500 0.06687700 0.04828200
v -0.07487500 0.06687700 0.04828200
v -0.03722900 0.04568200 0.04930000
v -0.03722900 0.04568200 0.04930000
v -0.03722900 0.04568200 0.04930000
v -0.03722900 0.04568200 0.04930000
v -0.03722900 0.04568200 0.04930000
v -0.03722900 0.04568200 0.04930000
v -0.09563100 -0.12446000 0.05470400
v -0.09563100 -0.12446000 0.05470400
v -0.09563100 -0.12446000 0.05470400
v -0.09563100 -0.12446000 0.05470400
v -0.09563100 -0.12446000 0.05470400
v -0.09563100 -0.12446000 0.05470400
v -0.09563100 -0.12446000 0.05470400
v -0.09563100 -0.12446000 0.05470400
v -0.09563100 -0.12446000 0.05470400
v -0.09563100 -0.12446000 0.05470400
v 0.03800100 -0.16546700 -0.05824900
v 0.03800100 -0.16546700 -0.05824900
v 0.03800100 -0.16546700 -0.05824900
v 0.03800100 -0.16546700 -0.05824900
v 0.03800100 -0.16546700 -0.05824900
v 0.03800100 -0.16546700 -0.05824900
v 0.03800100 -0.16546700 -0.05824900
v 0.03800100 -0.16546700 -0.05824900
v 0.03800100 -0.16546700 -0.05824900
v 0.03800100 -0.16546700 -0.05824900
v 0.02963400 -0.17414600 -0.01332600
v 0.02963400 -0.17414600 -0.01332600
v 0.02963400 -0.17414600 -0.01332600
v 0.02963400 -0.17414600 -0.01332600
v 0.02963400 -0.17414600 -0.01332600
v 0.02963400 -0.17414600 -0.01332600
v 0.03277200 -0.15400900 -0.02437500
v 0.03277200 -0.15400900 -0.02437500
v 0.03277200 -0.15400900 -0.02437500
v 0.03277200 -0.15400900 -0.02437500
v 0.03277200 -0.15400900 -0.02437500
v 0.03277200 -0.15400900 -0.02437500
v 0.03150700 -0.15878800 0.01731200
v 0.03150700 -0.15878800 0.01731200
v 0.03150700 -0.15878800 0.01731200
v 0.03150700 -0.15878800 0.01731200
v 0.03150700 -0.15878800 0.01731200
v 0.03150700 -0.15878800 0.01731200
v 0.03150700 -0.15878800 0.01731200
v 0.03150700 -0.15878800 0.01731200
v 0.03508300 -0.17696700 0.04749600
v 0.03508300 -0.17696700 0.04749600
v 0.03508300 -0.17696700 0.04749600
v 0.03508300 -0.17696700 0.04749600
v 0.03508300 -0.17696700 0.04749600
v 0.03508300 -0.17696700 0.04749600
v 0.04571800 -0.15723300 0.00597100
v 0.04571800 -0.15723300 0.00597100
v 0.04571800 -0.15723300 0.00597100
v 0.04571800 -0.15723300 0.00597100
v 0.04571800 -0.15723300 0.00597100
v 0.04609000 -0.15650800 -0.01474600
v 0.04609000 -0.15650800 -0.01474600
v 0.04609000 -0.15650800 -0.01474600
v 0.04609000 -0.15650800 -0.01474600
v 0.04609000 -0.15650800 -0.01474600
v 0.04609000 -0.15650800 -0.01474600
v 0.04609000 -0.15650800 -0.01474600
v 0.03888100 -0.14290000 0.05360000
v 0.03888100 -0.14290000 0.05360000
v 0.03888100 -0.14290000 0.05360000
v 0.03888100 -0.14290000 0.05360000
v 0.03888100 -0.14290000 0.05360000
v 0.03888100 -0.14290000 0.05360000
v 0.03888100 -0.14290000 0.05360000
v 0.03888100 -0.14290000 0.05360000
v 0.03888100 -0.14290000 0.05360000
v 0.04508100 -0.17272400 0.00075400
v 0.04508100 -0.17272400 0.00075400
v 0.04508100 -0.17272400 0.00075400
v 0.04508100 -0.17272400 0.00075400
v 0.04508100 -0.17272400 0.00075400
v 0.04508100 -0.17272400 0.00075400
v 0.04838300 0.11554800 0.00515400
v 0.04838300 0.11554800 0.00515400
v 0.04838300 0.11554800 0.00515400
v 0.04838300 0.11554800 0.00515400
v 0.04838300 0.11554800 0.00515400
v 0.04838300 0.11554800 0.00515400
v 0.05539400 0.10197900 -0.06629400
v 0.05539400 0.10197900 -0.06629400
v 0.05539400 0.10197900 -0.06629400
v 0.05539400 0.10197900 -0.06629400
v 0.05539400 0.10197900 -0.06629400
v 0.05539400 0.10197900 -0.06629400
v 0.05539400 0.10197900 -0.06629400
v 0.05539400 0.10197900 -0.06629400
v 0.05539400 0.10197900 -0.06629400
v 0.05539400 0.10197900 -0.06629400
v 0.05539400 0.10197900 -0.06629400
v 0.04774800 0.12313800 -0.01621000
v 0.04774800 0.12313800 -0.01621000
v 0.04774800 0.12313800 -0.01621000
v 0.04774800 0.12313800 -0.01621000
v 0.04774800 0.12313800 -0.01621000
v 0.04774800 0.12313800 -0.01621000
v 0.04443500 0.10213500 -0.02763400
v 0.04443500 0.10213500 -0.02763400
v 0.04443500 0.10213500 -0.02763400
v 0.04443500 0.10213500 -0.02763400
v 0.04443500 0.10213500 -0.02763400
v 0.04443500 0.10213500 -0.02763400
v 0.04443500 0.10213500 -0.02763400
v 0.04671800 0.12518200 -0.05924300
v 0.04671800 0.12518200 -0.05924300
v 0.04671800 0.12518200 -0.05924300
v 0.04671800 0.12518200 -0.05924300
v 0.04671800 0.12518200 -0.05924300
v 0.04671800 0.12518200 -0.05924300
v 0.05386600 0.10564300 0.01966000
v 0.05386600 0.10564300 0.01966000
v 0.05386600 0.10564300 0.01966000
v 0.05386600 0.10564300 0.01966000
v 0.05386600 0.10564300 0.01966000
v 0.05386600 0.10564300 0.01966000
v 0.05386600 0.10564300 0.01966000
v 0.05386600 0.10564300 0.01966000
v 0.05386600 0.10564300 0.01966000
v 0.05386600 0.10564300 0.01966000
v 0.05386600 0.10564300 0.01966000
v 0.05386600 0.10564300 0.01966000
v -0.10648700 0.08614200 0.02653300
v -0.10648700 0.08614200 0.02653300
v -0.10648700 0.08614200 0.02653300
v -0.10648700 0.08614200 0.02653300
v -0.10648700 0.08614200 0.02653300
v -0.10648700 0.08614200 0.02653300
v -0.10440900 0.09059700 -0.04774400
v -0.10440900 0.09059700 -0.04774400
v -0.10440900 0.09059700 -0.04774400
v -0.10440900 0.09059700 -0.04774400
v -0.10440900 0.09059700 -0.04774400
v -0.10440900 0.09059700 -0.04774400
v -0.10440900 0.09059700 -0.04774400
v -0.09313500 -0.13540800 -0.04364900
v -0.09313500 -0.13540800 -0.04364900
v -0.09313500 -0.13540800 -0.04364900
v -0.09313500 -0.13540800 -0.04364900
v -0.09313500 -0.13540800 -0.04364900
v -0.09313500 -0.13540800 -0.04364900
v -0.10888300 -0.12381200 -0.01940000
v -0.10888300 -0.12381200 -0.01940000
v -0.10888300 -0.12381200 -0.01940000
v -0.10888300 -0.12381200 -0.01940000
v -0.10888300 -0.12381200 -0.01940000
v -0.10888300 -0.12381200 -0.01940000
v -0.09706300 -0.11920800 -0.06345800
v -0.09706300 -0.11920800 -0.06345800
v -0.09706300 -0.11920800 -0.06345800
v -0.09706300 -0.11920800 -0.06345800
v -0.09706300 -0.11920800 -0.06345800
v -0.09706300 -0.11920800 -0.06345800
v -0.09706300 -0.11920800 -0.06345800
v -0.09706300 -0.11920800 -0.06345800
v -0.09706300 -0.11920800 -0.06345800
v -0.09706300 -0.11920800 -0.06345800
v -0.09706300 -0.11920800 -0.06345800
v -0.09671000 -0.12898900 0.03206800
v -0.09671000 -0.12898900 0.03206800
v -0.09671000 -0.12898900 0.03206800
v -0.09671000 -0.12898900 0.03206800
v -0.09671000 -0.12898900 0.03206800
v -0.09671000 -0.12898900 0.03206800
v -0.09671000 -0.12898900 0.03206800
v -0.10487000 0.09948200 -0.06689600
v -0.10487000 0.09948200 -0.06689600
v -0.10487000 0.09948200 -0.06689600
v 0.09447800 0.09047800 0.04991500
v 0.09447800 0.09047800 0.04991500
v 0.09447800 0.09047800 0.04991500
v 0.09447800 0.09047800 0.04991500
v 0.09447800 0.09047800 0.04991500
v 0.09447800 0.09047800 0.04991500
v 0.09626700 0.08812900 -0.06579100
v 0.09626700 0.08812900 -0.06579100
v 0.09626700 0.08812900 -0.06579100
v 0.09626700 0.08812900 -0.06579100
v 0.09626700 0.08812900 -0.06579100
v -0.09628000 -0.13473200 -0.02446300
v -0.09628000 -0.13473200 -0.02446300
v -0.09628000 -0.13473200 -0.02446300
v -0.09628000 -0.13473200 -0.02446300
v -0.09628000 -0.13473200 -0.02446300
v -0.09628000 -0.13473200 -0.02446300
v -0.09628000 -0.13473200 -0.02446300
v -0.10515300 -0.13402300 0.00503700
v -0.10515300 -0.13402300 0.00503700
v -0.10515300 -0.13402300 0.00503700
v -0.10515300 -0.13402300 0.00503700
v -0.10515300 -0.13402300 0.00503700
v -0.10515300 -0.13402300 0.00503700
v -0.10515300 -0.13402300 0.00503700
v -0.09265900 -0.13540700 -0.06482300
v -0.09265900 -0.13540700 -0.06482300
v -0.09265900 -0.13540700 -0.06482300
v -0.09265900 -0.13540700 -0.06482300
v -0.10405800 0.07967300 -0.06781500
v -0.10405800 0.07967300 -0.06781500
v -0.10405800 0.07967300 -0.06781500
v -0.10405800 0.07967300 -0.06781500
v -0.11159300 -0.13769400 -0.01528400
v -0.11159300 -0.13769400 -0.01528400
v -0.11159300 -0.13769400 -0.01528400
v -0.11159300 -0.13769400 -0.01528400
v -0.11159300 -0.13769400 -0.01528400
v -0.10636500 -0.13098700 -0.01289100
v -0.10636500 -0.13098700 -0.01289100
v -0.10636500 -0.13098700 -0.01289100
v -0.10636500 -0.13098700 -0.01289100
v -0.10636500 -0.13098700 -0.01289100
v -0.10636500 -0.13098700 -0.01289100
v -0.10636500 -0.13098700 -0.01289100
v -0.10636500 -0.13098700 -0.01289100
v -0.09771800 -0.13114400 -0.01270100
v -0.09771800 -0.13114400 -0.01270100
v -0.09771800 -0.13114400 -0.01270100
v -0.09771800 -0.13114400 -0.01270100
v -0.09771800 -0.13114400 -0.01270100
v -0.09771800 -0.13114400 -0.01270100
v -0.09771800 -0.13114400 -0.01270100
v -0.09771800 -0.13114400 -0.01270100
v -0.10591900 0.09710200 0.04829400
v -0.10591900 0.09710200 0.04829400
v -0.10591900 0.09710200 0.04829400
v -0.10591900 0.09710200 0.04829400
v -0.10591900 0.09710200 0.04829400
v -0.10591900 0.09710200 0.04829400
v -0.10591900 0.09710200 0.04829400
v 0.12968300 -0.10036500 -0.02232400
v 0.12968300 -0.10036500 -0.02232400
v 0.12968300 -0.10036500 -0.02232400
v 0.12968300 -0.10036500 -0.02232400
v 0.12968300 -0.10036500 -0.02232400
v 0.12968300 -0.10036500 -0.02232400
v 0.12968300 -0.10036500 -0.02232400
v 0.13606100 -0.03540900 -0.01408900
v 0.13606100 -0.03540900 -0.01408900
v 0.13606100 -0.03540900 -0.01408900
v 0.13606100 -0.03540900 -0.01408900
v 0.13606100 -0.03540900 -0.01408900
v 0.13112200 -0.06988500 0.00577400
v 0.13112200 -0.06988500 0.00577400
v 0.13112200 -0.06988500 0.00577400
v 0.13112200 -0.06988500 0.00577400
v 0.13112200 -0.06988500 0.00577400
v 0.13112200 -0.06988500 0.00577400
v -0.10636500 -0.13098700 -0.01289100
v -0.10636500 -0.13098700 -0.01289100
v -0.10636500 -0.13098700 -0.01289100
v -0.10636500 -0.13098700 -0.01289100
v -0.10636500 -0.13098700 -0.01289100
v -0.10636500 -0.13098700 -0.01289100
v 0.16047200 -0.08936800 0.01142600
v 0.16047200 -0.08936800 0.01142600
v 0.16047200 -0.08936800 0.01142600
v 0.16047200 -0.08936800 0.01142600
v 0.16047200 -0.08936800 0.01142600
v 0.16201600 -0.10759900 -0.00846600
v 0.16201600 -0.10759900 -0.00846600
v 0.16201600 -0.10759900 -0.00846600
v 0.16201600 -0.10759900 -0.00846600
v 0.16201600 -0.10759900 -0.00846600
v 0.16211900 -0.07828300 -0.01107700
v 0.16211900 -0.07828300 -0.01107700
v 0.16211900 -0.07828300 -0.01107700
v 0.16211900 -0.07828300 -0.01107700
v 0.16211900 -0.07828300 -0.01107700
v 0.12353100 -0.08983500 -0.00384500
v 0.12353100 -0.08983500 -0.00384500
v 0.12353100 -0.08983500 -0.00384500
v -0.10572800 -0.12427000 -0.00306800
v -0.10572800 -0.12427000 -0.00306800
v -0.10572800 -0.12427000 -0.00306800
v -0.10572800 -0.12427000 -0.00306800
v -0.10572800 -0.12427000 -0.00306800
v -0.10572800 -0.12427000 -0.00306800
v -0.10572800 -0.12427000 -0.00306800
v -0.10572800 -0.12427000 -0.00306800
v -0.11104900 -0.13877400 -0.00960200
v -0.11104900 -0.13877400 -0.00960200
v -0.11104900 -0.13877400 -0.00960200
v -0.11104900 -0.13877400 -0.00960200
v -0.11104900 -0.13877400 -0.00960200
v 0.04959800 -0.14504500 -0.00773400
v 0.04959800 -0.14504500 -0.00773400
v 0.04959800 -0.14504500 -0.00773400
v 0.04959800 -0.14504500 -0.00773400
v 0.06126500 -0.17527000 -0.01616000
v 0.06126500 -0.17527000 -0.01616000
v 0.06126500 -0.17527000 -0.01616000
v 0.04425000 -0.16376100 -0.01354400
v 0.04425000 -0.16376100 -0.01354400
v 0.04425000 -0.16376100 -0.01354400
v 0.04425000 -0.16376100 -0.01354400
v 0.05310400 -0.16129700 0.01526800
v 0.05310400 -0.16129700 0.01526800
v 0.05310400 -0.16129700 0.01526800
v 0.05310400 -0.16129700 0.01526800
v -0.01708000 -0.15888900 -0.00419000
v -0.01708000 -0.15888900 -0.00419000
v -0.01708000 -0.15888900 -0.00419000
v 0.06604900 0.10395600 -0.02478100
v 0.06604900 0.10395600 -0.02478100
v 0.06604900 0.10395600 -0.02478100
v 0.06433800 0.12634900 -0.00860800
v 0.06433800 0.12634900 -0.00860800
v 0.06433800 0.12634900 -0.00860800
v 0.06771700 0.10309400 0.00912900
v 0.06771700 0.10309400 0.00912900
v 0.06771700 0.10309400 0.00912900
v -0.00428500 0.11380800 -0.00957500
v -0.00428500 0.11380800 -0.00957500
v -0.00428500 0.11380800 -0.00957500
f 70 66 59
f 73 56 50
f 74 48 68
f 35 69 65
f 208 202 87
f 94 206 89
f 90 88 99
f 25 34 14
f 26 20 47
f 116 21 51
f 114 45 120
f 29 117 119
f 30 118 13
f 179 128 268
f 267 123 255
f 265 253 130
f 132 247 101
f 136 216 263
f 218 140 145
f 137 158 146
f 147 159 161
f 129 104 180
f 178 98 126
f 93 97 203
f 177 134 182
f 183 262 4
f 110 215 191
f 195 223 187
f 174 181 1
f 111 186 143
f 167 6 163
f 188 222 144
f 205 168 258
f 207 257 198
f 204 92 169
f 95 201 261
f 91 260 133
f 170 96 131
f 171 103 124
f 127 248 11
f 194 141 185
f 173 125 10
f 232 190 157
f 196 107 156
f 108 189 155
f 269 138 239
f 154 165 230
f 175 12 164
f 86 176 270
f 184 135 153
f 264 240 85
f 84 242 197
f 200 246 254
f 83 102 172
f 100 199 256
f 214 266 5
f 81 213 3
f 219 259 212
f 151 160 76
f 78 162 2
f 24 42 52
f 23 31 36
f 58 16 80
f 55 15 46
f 238 43 32
f 9 250 37
f 139 225 245
f 193 142 229
f 192 227 234
f 166 235 8
f 7 236 38
f 217 228 241
f 221 243 210
f 211 244 249
f 209 251 77
f 75 252 39
f 19 53 40
f 82 17 41
f 148 237 28
f 60 150 27
f 109 220 224
f 152 105 231
f 106 226 233
f 149 79 61
f 62 49 67
f 33 112 71
f 113 54 72
f 22 57 115
f 122 44 63
f 18 121 64
f 272 296 291
f 273 293 302
f 554 275 304
f 292 295 282
f 297 549 276
f 274 555 546
f 271 550 294
f 313 326 281
f 308 323 306
f 320 318 277
f 322 278 307
f 333 370 605
f 348 334 604
f 387 345 602
f 369 372 603
f 442 279 342
f 374 497 599
f 386 438 340
f 361 492 373
f 341 280 359
f 357 377 349
f 489 354 365
f 385 339 332
f 347 376 335
f 286 545 360
f 336 375 371
f 331 338 346
f 337 356 343
f 384 330 344
f 358 547 495
f 410 401 423
f 399 395 419
f 404 412 429
f 416 424 430
f 400 405 434
f 431 391 444
f 428 432 437
f 396 435 448
f 449 425 422
f 397 450 418
f 426 436 421
f 452 353 493
f 488 461 469
f 455 471 355
f 473 458 350
f 480 470 487
f 454 477 362
f 485 468 451
f 486 453 363
f 601 499 383
f 509 577 532
f 501 508 531
f 382 503 530
f 556 527 515
f 566 381 654
f 537 379 563
f 593 655 519
f 650 378 525
f 518 649 524
f 562 520 529
f 380 540 441
f 439 541 413
f 535 516 406
f 417 536 407
f 514 571 389
f 408 517 390
f 398 433 445
f 414 403 446
f 411 447 427
f 300 572 526
f 553 303 457
f 305 534 460
f 464 528 576
f 459 574 544
f 298 392 573
f 393 299 284
f 394 285 440
f 456 475 491
f 552 462 498
f 551 490 548
f 484 368 352
f 467 482 351
f 600 494 502
f 496 367 500
f 366 474 506
f 504 364 507
f 476 466 511
f 505 463 543
f 561 512 538
f 567 558 539
f 420 443 415
f 402 409 388
f 479 472 483
f 478 481 465
f 596 560 569
f 578 521 559
f 523 579 586
f 522 588 598
f 310 301 290
f 328 288 283
f 321 610 314
f 324 312 611
f 612 311 616
f 309 287 617
f 621 613 329
f 319 620 327
f 615 289 325
f 618 609 614
f 597 584 627
f 583 582 625
f 628 580 595
f 581 557 591
f 513 533 570
f 575 510 542
f 641 639 606
f 640 607 619
f 635 316 608
f 630 643 622
f 631 623 315
f 636 632 317
f 644 637 647
f 633 642 645
f 638 634 646
f 568 653 587
f 565 589 657
f 659 594 564
f 656 585 626
f 590 651 624
f 629 652 658
f 660 648 592
f 662 672 667
f 669 661 666
f 677 664 668
f 678 670 675
f 676 673 663
f 674 671 665
f 688 683 679
f 689 680 685
f 690 686 684
f 687 681 682

