# https://github.com/mikedh/trimesh

o servo_neck__1.stl
v 49.07877731 -0.80285025 55.76010513
v 50.45651627 2.16105413 53.23204422
v 44.61552811 -0.80285025 48.02953339
v 52.94377136 5.62535810 51.79602432
v 51.35876083 8.58926296 44.13632584
v 55.82201004 8.58926296 51.86689758
v 53.69377136 5.62535810 53.09506226
v 51.20651627 2.16105413 54.53108215
v 67.09980774 -16.24802971 49.71292496
v 60.74980545 -16.24802971 38.71440506
v 73.84303284 -6.85591602 45.81972122
v 67.49303436 -6.85591602 34.82119751
v 54.57009506 -3.32402706 32.46730423
v 54.82767105 -3.84820890 32.31859207
v 54.21136475 -2.88625479 32.67441940
v 54.96912384 -4.42833710 32.23692703
v 54.98623276 -5.03069687 32.22704697
v 54.87800598 -5.62028074 32.28953552
v 54.65072632 -6.16282463 32.42075348
v 50.13190460 -5.47583723 35.02969742
v 54.31760788 -6.62679720 32.61307907
v 51.44774628 -6.73548126 34.26999283
v 53.89801025 -6.98523521 32.85533142
v 53.41632080 -7.21730661 33.13343811
v 52.90052795 -7.30952454 33.43123245
v 52.38060760 -7.25652981 33.73140717
v 51.88678360 -7.06140184 34.01651764
v 49.34685135 -5.83406782 35.48294830
v 48.07315445 -2.48061347 36.21831512
v 48.59895325 -2.32540369 35.91474533
v 49.07480621 -2.02408028 35.64001083
v 47.53044510 -2.47995734 36.53165054
v 48.52240753 -6.04333878 35.95893860
v 47.67962265 -6.09830761 36.44552231
v 47.00492859 -2.32347608 36.83505630
v 46.84001541 -5.99757051 36.93027115
v 46.02502060 -5.74369955 37.40080643
v 46.52962112 -2.02100253 37.10947418
v 45.25545120 -5.34317636 37.84511948
v 44.55095291 -4.80622768 38.25186157
v 43.92951584 -4.14656353 38.61064529
v 46.13439560 -1.59154189 37.33765793
v 43.40700531 -3.38102651 38.91231918
v 42.99676132 -2.52916288 39.14917374
v 45.84407425 -1.06207883 37.50527573
v 42.70926285 -1.61272287 39.31515884
v 42.55184555 -0.65510589 39.40604401
v 45.67691040 -0.46588141 37.60178757
v 42.52853394 0.31923774 39.41950607
v 42.63991547 1.28543043 39.35519791
v 45.64340210 0.15958904 37.62113571
v 42.88315582 2.21880269 39.21476364
v 45.74565125 0.77503192 37.56209946
v 43.25203705 3.09552288 39.00178909
v 45.97724152 1.34177673 37.42839050
v 43.73714447 3.89320612 38.72171402
v 46.32361221 1.82421267 37.22841263
v 44.32609177 4.59148550 38.38168335
v 46.76300812 2.19202662 36.97472763
v 45.00383759 5.17253208 37.99038696
v 47.26781464 2.42210770 36.68327713
v 45.75308228 5.62151051 37.55781174
v 47.80631638 2.49999857 36.37237549
v 46.55469131 5.92695618 37.09500122
v 47.38820267 6.08107138 36.61377335
v 48.34467316 2.42080545 36.06155396
v 48.23233032 6.07992029 36.12641525
v 49.06552124 5.92353296 35.64537048
v 48.84906006 2.18950438 35.77034378
v 49.86650467 5.61590242 35.18292236
v 50.61483002 5.16488218 34.75087738
v 49.28778839 1.82062840 35.51704788
v 51.29138565 4.58198929 34.36026764
v 51.87890244 3.88210607 34.02106476
v 52.36237717 3.08310199 33.74193192
v 49.63328552 1.33735585 35.31757355
v 52.72946548 2.20537853 33.52999496
v 52.97079468 1.27134562 33.39066315
v 49.86384583 0.77005219 35.18445969
v 53.08020401 0.30485195 33.32749557
v 53.05489731 -0.66942543 33.34210587
v 49.96498108 0.15436338 35.12606812
v 52.89552307 -1.62661052 33.43412018
v 49.93033600 -0.47102466 35.14607239
v 49.76208878 -1.06681645 35.24320984
v 49.47081375 -1.59557629 35.41137695
v 48.38741684 -0.55845171 36.03687668
v 48.14027023 -0.78415477 36.17956543
v 48.53369141 -0.23618726 35.95242310
v 48.55380630 0.12691611 35.94081116
v 47.83498764 -0.87427038 36.35581970
v 48.44428253 0.46807453 36.00404739
v 47.52435684 -0.81321669 36.53516388
v 48.22405243 0.72829860 36.13119507
v 47.26208496 -0.61155039 36.68658829
v 47.93120193 0.86259323 36.30027008
v 47.09352493 -0.30414155 36.78390503
v 47.61636734 0.84773767 36.48204422
v 47.04782104 0.05585616 36.81029129
v 47.33398056 0.68630058 36.64507675
v 47.13287735 0.40619585 36.76118469
v 65.35755920 -12.15432262 34.32206345
v 66.69097137 -13.43078423 33.55221939
v 66.10755920 -12.15432262 35.62110138
v 67.44097137 -13.43078423 34.85125732
v 65.58552551 -14.97047424 34.19044876
v 64.25211334 -13.69401360 34.96029282
v 66.33552551 -14.97047424 35.48948669
v 65.00211334 -13.69401360 36.25933075
v 44.66759109 5.77201748 47.99947357
v 46.00100327 4.49555635 47.22962570
v 43.91759109 5.77201748 46.70043564
v 45.25100327 4.49555635 45.93058777
v 45.02304077 7.31170797 46.06220245
v 46.35644913 6.03524733 45.29235840
v 45.77304077 7.31170797 47.36124039
v 47.10644913 6.03524733 46.59139633
v 69.50986481 -9.50457287 31.92473030
v 66.74303436 -6.85591602 33.52215958
v 65.06034851 -11.96868324 34.49365616
v 64.72424316 -11.92850780 34.68770981
v 64.40039825 -12.03991318 34.87467957
v 64.13813019 -12.28593731 35.02610016
v 59.99980545 -16.24802971 37.41536713
v 63.97736359 -12.62912655 35.11891937
v 63.94256973 -13.01723385 35.13900757
v 64.03904724 -13.39117241 35.08330536
v 62.76663208 -18.89668465 35.81793594
v 63.51663208 -18.89668465 37.11697388
v 47.84193039 11.23791885 44.43471527
v 48.59193039 11.23791885 45.73375320
v 41.09870148 1.84580648 48.32792282
v 43.86552811 -0.80285025 46.73049164
v 45.54821396 4.30991745 45.75899506
v 45.88432312 4.26974201 45.56494141
v 46.20816422 4.38114643 45.37797165
v 46.47043228 4.62717104 45.22655106
v 50.60876083 8.58926296 42.83728790
v 46.63120270 4.97036076 45.13373184
v 46.66599274 5.35846758 45.11364365
v 46.56951523 5.73240566 45.16934586
v 41.84870148 1.84580648 49.62696075
v 46.29821396 4.30991745 47.05803299
v 46.63432312 4.26974201 46.86397934
v 46.95816422 4.38114643 46.67700958
v 47.22043228 4.62717104 46.52558899
v 47.38120270 4.97036076 46.43276978
v 47.41599274 5.35846758 46.41268158
v 47.31951523 5.73240566 46.46838379
v 54.64552307 -1.62661052 36.46520996
v 55.96136475 -2.88625479 35.70550537
v 51.88190460 -5.47583723 38.06078720
v 51.17947388 -5.80407810 38.46633530
v 50.44359970 -6.01289701 38.89118958
v 49.68942261 -6.09799671 39.32661438
v 48.93246078 -6.05762672 39.76364517
v 48.18828964 -5.89261723 40.19329453
v 47.47221756 -5.60636330 40.60671997
v 46.79898071 -5.20475531 40.99541092
v 46.18243408 -4.69605637 41.35137558
v 45.58773804 -4.02920866 41.69472122
v 45.09070969 -3.26314807 41.98168182
v 44.70358276 -2.41673827 42.20519257
v 44.43588638 -1.51082027 42.35974503
v 44.29421997 -0.56770086 42.44153595
v 44.28206635 0.38939726 42.44855118
v 44.39973068 1.33690715 42.38062286
v 44.64430618 2.25149775 42.23941422
v 45.00977707 3.11064935 42.02840805
v 45.48714447 3.89320612 41.75279999
v 46.06465149 4.57989931 41.41937637
v 46.72808075 5.15382051 41.03634644
v 47.46109009 5.60083723 40.61314392
v 48.24563980 5.90994263 40.16018295
v 49.06240463 6.07352591 39.68862534
v 49.89127731 6.08755875 39.21007538
v 50.71184540 5.95169544 38.73632050
v 51.50390244 5.66928196 38.27902603
v 52.24795151 5.24727201 37.84944916
v 52.92566299 4.69605637 37.45817184
v 53.47283936 4.09073305 37.14225769
v 53.93938446 3.40124083 36.87289810
v 54.31569672 2.64176559 36.65563202
v 54.59403610 1.82793462 36.49493408
v 54.76867676 0.97649282 36.39410782
v 54.83602142 0.10495905 36.35522461
v 54.79468536 -0.76873434 36.37908936
v 53.19774628 -6.73548126 37.30108261
v 56.32009506 -3.32402706 35.49839401
v 56.57767105 -3.84820890 35.34968185
v 56.71912384 -4.42833710 35.26801300
v 56.73623276 -5.03069687 35.25813675
v 56.62800598 -5.62028074 35.32062149
v 56.40072632 -6.16282463 35.45184326
v 56.06760788 -6.62679720 35.64416885
v 55.64801025 -6.98523521 35.88642120
v 55.16632080 -7.21730661 36.16452789
v 54.65052795 -7.30952454 36.46232224
v 54.13060760 -7.25652981 36.76249313
v 53.63678360 -7.06140184 37.04760742
v 48.85876083 8.58926296 39.80619812
v 42.11552811 -0.80285025 43.69940567
v 54.20811462 -12.37896156 36.71774673
v 60.95134735 -2.98684907 32.82453918
v 65.81034851 -11.96868324 35.79269791
v 65.47424316 -11.92850780 35.98674774
v 65.15039825 -12.03991318 36.17371750
v 64.88813019 -12.28593731 36.32513809
v 64.72736359 -12.62912655 36.41795731
v 64.69257355 -13.01723385 36.43804550
v 64.78904724 -13.39117241 36.38234329
v 66.76639557 -14.97156811 52.21482086
v 73.50962067 -5.57945490 48.32161713
v 58.63258362 -7.18515539 56.91087723
v 65.37581635 2.20695734 53.01767349
v 70.25986481 -9.50457287 33.22376633
v 46.53369141 -0.23618726 32.48832321
v 46.38741684 -0.55845171 32.57277679
v 46.14027023 -0.78415477 32.71546555
v 45.83498764 -0.87427038 32.89171982
v 45.52435684 -0.81321669 33.07106400
v 45.26208496 -0.61155039 33.22248459
v 45.09352493 -0.30414155 33.31980133
v 45.04782104 0.05585616 33.34619141
v 45.13287735 0.40619585 33.29708481
v 45.33398056 0.68630058 33.18097687
v 45.61636734 0.84773767 33.01794052
v 45.93120193 0.86259323 32.83617020
v 46.22405243 0.72829860 32.66709137
v 46.44428253 0.46807453 32.53994370
v 46.55380630 0.12691611 32.47671127
v 47.07480621 -2.02408028 32.17591095
v 47.47081375 -1.59557629 31.94727707
v 47.76208878 -1.06681645 31.77910614
v 47.93033600 -0.47102466 31.68197060
v 47.96498108 0.15436338 31.66196823
v 47.86384583 0.77005219 31.72035789
v 47.63328552 1.33735585 31.85347176
v 47.28778839 1.82062840 32.05294418
v 46.84906006 2.18950438 32.30624390
v 46.34467316 2.42080545 32.59745407
v 45.80631638 2.49999857 32.90827560
v 45.26781464 2.42210770 33.21917725
v 44.76300812 2.19202662 33.51062775
v 44.32361221 1.82421267 33.76431274
v 43.97724152 1.34177673 33.96429062
v 43.74565125 0.77503192 34.09799957
v 43.64340210 0.15958904 34.15703201
v 43.67691040 -0.46588141 34.13768768
v 43.84407425 -1.06207883 34.04117203
v 44.13439560 -1.59154189 33.87355804
v 44.52962112 -2.02100253 33.64537430
v 45.00492859 -2.32347608 33.37095642
v 45.53044510 -2.47995734 33.06754684
v 46.07315445 -2.48061347 32.75421524
v 46.59895325 -2.32540369 32.45064545
v 52.36036301 6.90181923 53.86490631
v 51.61036301 6.90181923 52.56586838
v 49.87310410 3.43751526 55.30092621
v 49.12310410 3.43751526 54.00188828
f 1 2 3
f 3 2 4
f 3 4 5
f 5 4 6
f 6 4 7
f 6 7 1
f 1 7 8
f 1 8 2
f 9 10 11
f 11 10 12
f 13 14 15
f 15 14 16
f 15 16 17
f 17 18 15
f 15 18 19
f 15 19 20
f 20 19 21
f 20 21 22
f 22 21 23
f 22 23 24
f 24 25 22
f 22 25 26
f 22 26 27
f 28 29 20
f 20 29 30
f 20 30 31
f 29 28 32
f 32 28 33
f 32 33 34
f 32 34 35
f 35 34 36
f 35 36 37
f 35 37 38
f 38 37 39
f 38 39 40
f 40 41 38
f 38 41 42
f 42 41 43
f 42 43 44
f 42 44 45
f 45 44 46
f 45 46 47
f 45 47 48
f 48 47 49
f 48 49 50
f 48 50 51
f 51 50 52
f 51 52 53
f 53 52 54
f 53 54 55
f 55 54 56
f 55 56 57
f 57 56 58
f 57 58 59
f 59 58 60
f 59 60 61
f 61 60 62
f 61 62 63
f 63 62 64
f 63 64 65
f 63 65 66
f 66 65 67
f 66 67 68
f 66 68 69
f 69 68 70
f 69 70 71
f 69 71 72
f 72 71 73
f 72 73 74
f 74 75 72
f 72 75 76
f 76 75 77
f 76 77 78
f 76 78 79
f 79 78 80
f 79 80 81
f 79 81 82
f 82 81 83
f 82 83 84
f 84 83 85
f 85 83 86
f 86 83 20
f 86 20 31
f 83 15 20
f 87 88 89
f 89 88 90
f 90 88 91
f 90 91 92
f 92 91 93
f 92 93 94
f 94 93 95
f 94 95 96
f 96 95 97
f 96 97 98
f 98 97 99
f 98 99 100
f 100 99 101
f 102 103 104
f 104 103 105
f 106 107 108
f 108 107 109
f 110 111 112
f 112 111 113
f 114 115 116
f 116 115 117
f 103 102 118
f 118 102 119
f 119 102 120
f 119 120 121
f 121 122 119
f 119 122 123
f 119 123 124
f 124 123 125
f 124 125 126
f 126 127 124
f 124 127 107
f 124 107 128
f 128 107 106
f 106 108 128
f 128 108 129
f 114 116 130
f 130 116 131
f 112 113 132
f 132 113 133
f 133 113 134
f 133 134 135
f 135 136 133
f 133 136 137
f 133 137 138
f 138 137 139
f 138 139 140
f 140 141 138
f 138 141 115
f 138 115 130
f 130 115 114
f 110 142 111
f 111 142 3
f 111 3 143
f 143 3 144
f 144 3 145
f 145 3 146
f 146 3 5
f 146 5 147
f 147 5 148
f 148 5 149
f 149 5 117
f 117 5 131
f 117 131 116
f 150 151 83
f 83 151 15
f 152 153 20
f 20 153 28
f 28 153 154
f 28 154 33
f 33 154 155
f 33 155 34
f 34 155 156
f 34 156 36
f 36 156 157
f 36 157 37
f 37 157 158
f 37 158 39
f 39 158 159
f 39 159 40
f 40 159 160
f 40 160 41
f 41 160 161
f 41 161 43
f 43 161 162
f 43 162 44
f 44 162 163
f 44 163 46
f 46 163 164
f 46 164 47
f 47 164 165
f 47 165 49
f 49 165 166
f 49 166 50
f 50 166 167
f 50 167 52
f 52 167 168
f 52 168 54
f 54 168 169
f 54 169 56
f 56 169 170
f 56 170 171
f 56 171 58
f 58 171 172
f 58 172 60
f 60 172 173
f 60 173 62
f 62 173 174
f 62 174 64
f 64 174 175
f 64 175 65
f 65 175 176
f 65 176 67
f 67 176 177
f 67 177 68
f 68 177 178
f 68 178 70
f 70 178 179
f 70 179 71
f 71 179 180
f 71 180 73
f 73 180 181
f 73 181 74
f 74 181 182
f 74 182 75
f 75 182 183
f 75 183 77
f 77 183 184
f 77 184 78
f 78 184 185
f 78 185 80
f 80 185 186
f 80 186 81
f 81 186 187
f 81 187 83
f 83 187 150
f 188 152 22
f 22 152 20
f 15 151 13
f 13 151 189
f 13 189 14
f 14 189 190
f 14 190 16
f 16 190 191
f 16 191 17
f 17 191 192
f 17 192 18
f 18 192 193
f 18 193 19
f 19 193 194
f 19 194 21
f 21 194 195
f 21 195 23
f 23 195 196
f 23 196 24
f 24 196 197
f 24 197 25
f 25 197 198
f 25 198 26
f 26 198 199
f 26 199 27
f 27 199 200
f 27 200 22
f 22 200 188
f 180 179 201
f 201 179 178
f 201 178 177
f 177 176 201
f 201 176 175
f 201 175 174
f 174 173 201
f 201 173 172
f 201 172 171
f 171 170 201
f 170 169 202
f 202 169 168
f 202 168 167
f 167 166 202
f 202 166 165
f 202 165 164
f 164 163 202
f 202 163 162
f 202 162 161
f 161 160 202
f 160 159 203
f 203 159 158
f 203 158 157
f 157 156 203
f 203 156 155
f 203 155 154
f 203 154 188
f 188 154 153
f 188 153 152
f 188 200 203
f 203 200 199
f 203 199 198
f 198 197 203
f 203 197 196
f 203 196 195
f 195 194 203
f 203 194 204
f 204 194 193
f 204 193 192
f 192 191 204
f 204 191 190
f 204 190 189
f 189 151 204
f 204 151 186
f 204 186 185
f 150 187 151
f 151 187 186
f 185 184 204
f 204 184 183
f 204 183 182
f 182 181 204
f 204 181 180
f 102 104 120
f 120 104 205
f 120 205 121
f 121 205 206
f 121 206 122
f 122 206 207
f 122 207 123
f 123 207 208
f 123 208 125
f 125 208 209
f 125 209 126
f 126 209 210
f 126 210 127
f 127 210 211
f 127 211 107
f 107 211 109
f 113 111 134
f 134 111 143
f 134 143 135
f 135 143 144
f 135 144 136
f 136 144 145
f 136 145 137
f 137 145 146
f 137 146 139
f 139 146 147
f 139 147 140
f 140 147 148
f 140 148 141
f 141 148 149
f 141 149 115
f 115 149 117
f 212 9 213
f 213 9 11
f 214 212 215
f 215 212 213
f 1 214 6
f 6 214 215
f 110 112 142
f 142 112 132
f 202 133 170
f 170 133 138
f 170 138 201
f 124 203 119
f 119 203 204
f 105 103 216
f 216 103 118
f 105 216 104
f 104 216 12
f 104 12 205
f 205 12 206
f 206 12 207
f 207 12 208
f 208 12 10
f 208 10 209
f 209 10 210
f 210 10 211
f 211 10 109
f 109 10 129
f 109 129 108
f 216 119 12
f 12 119 204
f 12 204 180
f 216 118 119
f 201 138 180
f 180 138 5
f 180 5 12
f 12 5 6
f 12 6 215
f 138 130 5
f 5 130 131
f 213 11 215
f 215 11 12
f 128 129 124
f 124 129 10
f 124 10 203
f 203 10 160
f 160 10 3
f 160 3 133
f 133 3 132
f 132 3 142
f 9 214 10
f 10 214 1
f 10 1 3
f 9 212 214
f 133 202 160
f 89 217 87
f 87 217 218
f 87 218 88
f 88 218 219
f 88 219 91
f 91 219 220
f 91 220 93
f 93 220 221
f 93 221 95
f 95 221 222
f 95 222 97
f 97 222 223
f 97 223 99
f 99 223 224
f 99 224 101
f 101 224 225
f 101 225 100
f 100 225 226
f 100 226 98
f 98 226 227
f 98 227 96
f 96 227 228
f 96 228 94
f 94 228 229
f 94 229 92
f 92 229 230
f 92 230 90
f 90 230 231
f 90 231 89
f 89 231 217
f 31 232 86
f 86 232 233
f 86 233 85
f 85 233 234
f 85 234 84
f 84 234 235
f 84 235 82
f 82 235 236
f 82 236 79
f 79 236 237
f 79 237 76
f 76 237 238
f 76 238 72
f 72 238 239
f 72 239 69
f 69 239 240
f 69 240 66
f 66 240 241
f 66 241 63
f 63 241 242
f 63 242 61
f 61 242 243
f 61 243 59
f 59 243 244
f 59 244 57
f 57 244 245
f 57 245 55
f 55 245 246
f 55 246 53
f 53 246 247
f 53 247 51
f 51 247 248
f 51 248 48
f 48 248 249
f 48 249 45
f 45 249 250
f 45 250 42
f 42 250 251
f 42 251 38
f 38 251 252
f 38 252 35
f 35 252 253
f 35 253 32
f 32 253 254
f 32 254 29
f 29 254 255
f 29 255 30
f 30 255 256
f 30 256 31
f 31 256 232
f 234 233 218
f 218 233 232
f 218 232 219
f 219 232 256
f 219 256 255
f 219 255 220
f 220 255 254
f 220 254 221
f 221 254 253
f 221 253 252
f 221 252 222
f 222 252 251
f 222 251 223
f 223 251 250
f 223 250 249
f 223 249 224
f 224 249 248
f 224 248 247
f 224 247 225
f 225 247 246
f 225 246 226
f 226 246 245
f 226 245 244
f 226 244 227
f 227 244 243
f 227 243 242
f 227 242 228
f 228 242 241
f 228 241 240
f 228 240 229
f 229 240 239
f 229 239 230
f 230 239 238
f 230 238 237
f 230 237 231
f 231 237 236
f 231 236 217
f 217 236 235
f 217 235 234
f 217 234 218
f 257 7 258
f 258 7 4
f 259 257 260
f 260 257 258
f 8 259 2
f 2 259 260
f 259 8 257
f 257 8 7
f 2 260 4
f 4 260 258

