####
#
# OBJ File Generated by Meshlab
#
####
# Object shoulder.005.obj
#
# Vertices: 980
# Faces: 2182
#
####
v 0.0379100595579925 0.0123579665479190 0.0979072126706052
v 0.0376514394568003 0.0132837646227775 0.1300190763776863
v 0.0380962976788643 -0.0112030549052617 0.0840863500207741
v 0.0378708614392763 -0.0301489143707040 0.1218939591229417
v 0.0378025813653691 -0.0231587600815205 0.1351660068763629
v 0.0287875178557629 -0.0072036282810071 0.0963293770692793
v 0.0284381853278747 -0.0188390416430623 0.1199992215551311
v 0.0286115222807793 -0.0098099973931980 0.1310756541942120
v 0.0317377955581102 0.0032649712925422 0.1336504480153080
v 0.0288678611501823 -0.0246903641528685 0.1358374884686515
v 0.0136376927618206 -0.0243227924591485 0.1745415196198302
v 0.0152582048936378 -0.0227145466353644 0.1595244340882907
v -0.0613353705178237 -0.0074543055404068 0.3292326773881785
v -0.0491207186679329 0.0113448130730774 0.3405781954219690
v -0.0535195868470378 -0.0250892149930983 0.3317835878034810
v -0.0526261024811165 -0.0133127588690331 0.3390563842175449
v -0.0013070000000000 0.0037480000000000 -0.1351490000000000
v -0.0313069977837649 -0.0018481105882938 -0.1354767136044858
v -0.0313070000000000 0.0037480000000000 -0.1351490000000000
v -0.0013070000000000 0.0000730000000000 -0.1354900000000000
v -0.0013070000000000 0.0072980000000000 -0.1341390000000000
v -0.0313070000000000 0.0072980000000000 -0.1341390000000000
v -0.0013070000000000 0.0106020000000000 -0.1324940000000000
v -0.0313070000000000 0.0106020000000000 -0.1324940000000000
v -0.0013070000000000 0.0135470000000000 -0.1302700000000000
v -0.0313070000000000 0.0135470000000000 -0.1302700000000000
v -0.0013070000000000 0.0160330000000000 -0.1275420000000000
v -0.0312927765034880 0.0165833709792917 -0.1265694005020707
v -0.0013070001092841 0.0187920723661940 -0.1227515043867668
v -0.0313069999175638 0.0186985276934068 -0.1230084735112498
v -0.0013070000000000 0.0199880000000000 -0.1173350000000000
v -0.0313070000000000 0.0199880000000000 -0.1173350000000000
v -0.0013070000000000 0.0199880000000000 -0.1136440000000000
v -0.0313070000000000 0.0199880000000000 -0.1136440000000000
v -0.0013070000000000 0.0193100000000000 -0.1100160000000000
v -0.0313070000000000 0.0193100000000000 -0.1100160000000000
v -0.0013070000000000 0.0179760000000000 -0.1065750000000000
v -0.0313070000000000 0.0179760000000000 -0.1065750000000000
v -0.0013070000000000 0.0160330000000000 -0.1034370000000000
v -0.0313070000000000 0.0160330000000000 -0.1034370000000000
v -0.0313070000000000 0.0135470000000000 -0.1007090000000000
v -0.0013070000000000 0.0135470000000000 -0.1007090000000000
v -0.0313070000000000 0.0106020000000000 -0.0984850000000000
v -0.0313070000000000 0.0072980000000000 -0.0968400000000000
v -0.0013070984670428 0.0092517494608003 -0.0976656630136266
v -0.0013070000000000 0.0037480000000000 -0.0958300000000000
v -0.0313070000000000 0.0037480000000000 -0.0958300000000000
v -0.0313070000000000 0.0000730000000000 -0.0954900000000000
v -0.0013070000000000 0.0000730000000000 -0.0954900000000000
v -0.0013070000000000 0.0000730000000000 0.0945100000000000
v 0.0286930000000000 0.0000730000000000 0.0945100000000000
v 0.0286930000000000 -0.0036020000000000 0.0948510000000000
v 0.0286930000000000 -0.0071520000000000 0.0958610000000000
v 0.0286930000000000 -0.0104560000000000 0.0975060000000000
v 0.0286930000000000 -0.0134010000000000 0.0997300000000000
v 0.0286930000000000 -0.0158870000000000 0.1024580000000000
v 0.0286930000000000 -0.0178300000000000 0.1055960000000000
v -0.0013068697599291 -0.0129239192793201 0.0981061607665445
v 0.0286930000000000 -0.0191630000000000 0.1090370000000000
v -0.0013070000000000 -0.0191630000000000 0.1090370000000000
v 0.0286930000000000 -0.0198420000000000 0.1126650000000000
v -0.0013070000000000 -0.0198420000000000 0.1126650000000000
v 0.0286930000000000 -0.0198420000000000 0.1163560000000000
v -0.0013070000000000 -0.0198420000000000 0.1163560000000000
v 0.0286930000000000 -0.0191630000000000 0.1199840000000000
v -0.0013070000000000 -0.0191630000000000 0.1199840000000000
v 0.0286930000000000 -0.0178300000000000 0.1234250000000000
v -0.0013070000000000 -0.0178300000000000 0.1234250000000000
v 0.0286930000000000 -0.0158870000000000 0.1265630000000000
v -0.0013070000000000 -0.0158870000000000 0.1265630000000000
v 0.0286930000000000 -0.0134010000000000 0.1292910000000000
v -0.0013070028944426 -0.0116260858711728 0.1308242618920124
v 0.0286930000000000 -0.0104560000000000 0.1315150000000000
v 0.0286930000000000 -0.0071520000000000 0.1331600000000000
v -0.0013070000000000 -0.0071520000000000 0.1331600000000000
v -0.0013070000000000 -0.0036020000000000 0.1341700000000000
v 0.0286929978333969 -0.0018512120982849 0.1344968147677256
v -0.0013070000000000 0.0000730000000000 0.1345100000000000
v -0.0013067559623500 -0.0006644860697525 0.2925051606229201
v -0.0013081042164123 0.0198749494312524 0.2874074376802050
v -0.0013059851701376 0.0388351353336978 0.2691857363024892
v 0.0276776734242536 0.0426070311003212 0.2495611001062256
v -0.0013161332933633 -0.0412742963380765 0.3197037138068825
v -0.0012992842667817 0.0000733564261250 0.3425737810199566
v 0.0287168292412713 0.0580389693429793 -0.0975397207622845
v 0.0286930000000000 0.0250730000000000 -0.1604900000000000
v 0.0286930000000000 -0.0249270000000000 -0.1604900000000000
v 0.0286874973083833 0.0711049964448547 -0.1505279483551885
v 0.0286931447157622 0.0441607382256500 -0.1099026784765223
v 0.0286930000000000 0.0250730000000000 -0.1754900000000000
v 0.0368628344092502 -0.0569366559710064 -0.0933064568970262
v 0.0286930000000000 -0.0249270000000000 -0.1754900000000000
v 0.0286923284897806 -0.0636924341819249 -0.1193976900833425
v 0.0286928679452998 0.0646159488078082 -0.1603152655155129
v 0.0286915910072948 -0.0507691421304571 -0.1092042231341265
v 0.0287057379815341 -0.0707634654658583 -0.1592816617245703
v 0.0318701866997825 0.0499194719160183 -0.1076875515670107
v 0.0133016787183427 0.0245706081096899 0.1595185011849997
v -0.0013070000000000 0.0250730000000000 0.1745100000000000
v -0.0013070000000000 0.0250730000000000 0.1595100000000000
v -0.0013070000000000 -0.0249270000000000 0.1745100000000000
v 0.0215044795619566 0.0000730000000000 0.1745045591705272
v 0.0138978986085263 0.0239549792734010 0.1745340855134208
v -0.0013070000000000 -0.0249270000000000 0.1595100000000000
v 0.0285158876737048 -0.0399067966992626 0.2657105341374583
v 0.0285587358312119 -0.0254941080211987 0.2840475660491063
v 0.0285601067783586 -0.0425190586514100 0.2495609427653384
v 0.0285737405171334 0.0060579297539906 0.2918890356476984
v 0.0283646292339507 0.0165042276440783 0.3285480873048217
v 0.0286930000000000 0.0450730000000000 0.2495100000000000
v 0.0286686819895122 -0.0438245949367362 0.1580972837017219
v 0.0291381216128722 -0.0659229040366081 0.1909576827541076
v 0.0293305355005674 -0.0525644211879612 0.1290003378780219
v 0.0286930000000000 0.0450730000000000 0.1570100000000000
v 0.0313456721262723 -0.0117678694308123 0.0806699574136277
v 0.0292844541102929 0.0537444995588192 0.1334842904207525
v 0.0286982854828745 0.0119515300078724 0.0746408786184385
v 0.0288206090614896 0.0210516834827857 0.0895192679842726
v 0.0298871449084808 0.0119371809207769 0.0806953851840417
v 0.0286983084837546 0.0119090450607301 -0.0928544658090784
v -0.0613070000000000 -0.0424270000000000 0.1595100000000000
v -0.0610406033824417 -0.0699314814456120 0.1958981405550356
v -0.0613070000000000 0.0425730000000000 0.1595100000000000
v -0.0613087456910537 -0.0422972694382895 0.2578818562873990
v -0.0612765227827160 0.0667384333284100 0.2682720655813895
v -0.0613071023599461 0.0425477816241797 0.2533142139459487
v -0.0609650697996210 0.0564904092144323 0.1352468722175273
v -0.0612651211496950 0.0136537245895667 0.3255518660845584
v -0.0613065547624460 0.0158787849291261 0.2891418137405434
v -0.0613089203012646 0.0355504031728842 0.2744353576057920
v -0.0613071840727720 -0.0310392453680693 0.2791184470402669
v -0.0607867135784627 0.0692418859264282 0.2798686058530023
v -0.0611613129973652 0.0608540584761637 0.2882083372288351
v -0.0613090062790854 -0.0062527091834472 0.2924030289507714
v -0.0313070000000000 0.0250730000000000 0.1595100000000000
v -0.0461597578235533 0.0241218052217687 0.1595184192968286
v -0.0462526729263775 0.0244688331390298 0.1745415176976073
v -0.0313070000000000 0.0250730000000000 0.1745100000000000
v -0.0313070000000000 -0.0249270000000000 0.1745100000000000
v -0.0442554057703489 -0.0249265862002988 0.1606138190745678
v -0.0542007985951209 -0.0077477218702721 0.1745086769892656
v -0.0313070000000000 -0.0249270000000000 0.1595100000000000
v -0.0013070000000000 0.0571590000000000 -0.0933010000000000
v -0.0013070000000000 0.0464230000000000 -0.0317360000000000
v -0.0013070000000000 0.0618670000000000 -0.1115820000000000
v -0.0013070000000000 0.0250730000000000 -0.1604900000000000
v -0.0013070000000000 -0.0249270000000000 -0.1604900000000000
v -0.0013070000000000 -0.0249270000000000 -0.1754900000000000
v -0.0013115935089991 0.0710068869912272 -0.1497966102119654
v -0.0013070000000000 0.0250730000000000 -0.1754900000000000
v -0.0013054064954730 -0.0238129950921745 0.2851361119766435
v -0.0013070000000000 -0.0424270000000000 0.2944410000000000
v -0.0013069932151643 -0.0540924894977014 0.2798663855950737
v -0.0013058744302272 -0.0392799777499817 0.2668646578652765
v -0.0013095295202133 0.0647413671495188 -0.1603771828176603
v -0.0013070000000000 -0.0599270000000000 0.2645100000000000
v -0.0013070000000000 -0.0424270000000000 0.1595100000000000
v -0.0013062184089428 -0.0423631783310652 0.2557563688582701
v -0.0013067083988092 -0.0798632185743551 0.1940623698536038
v -0.0013070000000000 0.0425730000000000 0.1595100000000000
v -0.0013067083988092 0.0800092185743551 0.1940623698536036
v -0.0013070000000000 -0.0799270000000000 0.2645100000000000
v -0.0013068221588898 0.0229274945556887 0.3345533206968181
v -0.0013070000000000 0.0425730000000000 0.3180910000000000
v -0.0013070000000000 0.0425730000000000 0.2944410000000000
v -0.0013078039981678 0.0540453935588771 0.2802212260357804
v -0.0013070000000000 0.0600730000000000 0.2645100000000000
v -0.0013070000000000 -0.0726460000000000 0.1578190000000000
v -0.0013070000000000 -0.0652340000000000 0.1249730000000000
v -0.0013070000000000 0.0800730000000000 0.2645100000000000
v -0.0013070000000000 -0.0570130000000000 0.0923210000000000
v -0.0013070000000000 0.0037480000000000 0.1341700000000000
v -0.0013070000000000 0.0072980000000000 0.1331600000000000
v -0.0013070000000000 0.0106020000000000 0.1315150000000000
v -0.0013070000000000 0.0135470000000000 0.1292910000000000
v -0.0013070000000000 0.0160330000000000 0.1265630000000000
v -0.0013069998907143 0.0187920720621273 0.1217725051650460
v -0.0013070000000000 0.0727920000000000 0.1578190000000000
v -0.0013070000000000 -0.0462770000000000 0.0307570000000000
v -0.0013070000000000 0.0653800000000000 0.1249730000000000
v -0.0013070000000000 0.0199880000000000 0.1163560000000000
v -0.0013070000000000 0.0199880000000000 0.1126650000000000
v -0.0013070000000000 0.0571590000000000 0.0923210000000000
v -0.0013070000000000 0.0135470000000000 0.0997300000000000
v -0.0013070000000000 0.0160330000000000 0.1024580000000000
v -0.0013070000000000 0.0179760000000000 0.1055960000000000
v -0.0013070000000000 0.0193100000000000 0.1090370000000000
v -0.0013070000000000 0.0464230000000000 0.0307570000000000
v -0.0013070000000000 0.0037480000000000 0.0948510000000000
v -0.0013069015323407 0.0092517525805822 0.0966866646044145
v -0.0013070000000000 -0.0462770000000000 -0.0317360000000000
v -0.0013070000000000 -0.0570130000000000 -0.0933010000000000
v -0.0013070000000000 -0.0191630000000000 -0.1100160000000000
v -0.0013071299974694 -0.0129232701453364 -0.0990845033264564
v -0.0013070000000000 -0.0198420000000000 -0.1136440000000000
v -0.0013070000000000 -0.0198420000000000 -0.1173350000000000
v -0.0013040505005406 -0.0701058735399218 -0.1588319189259738
v -0.0013073096535562 -0.0637706512029133 -0.1197236756164071
v -0.0013070000000000 -0.0191630000000000 -0.1209630000000000
v -0.0013070000000000 -0.0178300000000000 -0.1244040000000000
v -0.0013070000000000 -0.0036020000000000 -0.1351490000000000
v -0.0013070000000000 -0.0071520000000000 -0.1341390000000000
v -0.0013069971056250 -0.0116260850894640 -0.1318032624539270
v -0.0013070000000000 -0.0158870000000000 -0.1275420000000000
v 0.0252180000000000 0.0793910000000000 0.1908370000000000
v 0.0167776699651835 0.0800055390657355 0.2031493516274836
v -0.0313070000000000 0.0800730000000000 0.2645100000000000
v -0.0521308211274857 0.0796650764025900 0.2681824810066851
v 0.0162775503585971 0.0698938937787444 0.2948654188096156
v -0.0492135614614999 0.0782142082701588 0.2807602383219894
v 0.0168215996276483 0.0780301260844295 0.2808348140336784
v -0.0313070000000000 0.0425730000000000 0.3180910000000000
v -0.0313073363672111 0.0169831376215519 0.3386911787806116
v -0.0313070000000000 -0.0424270000000000 0.3180910000000000
v -0.0479726542441898 -0.0798941754221091 0.2680378346882676
v -0.0313070000000000 -0.0799270000000000 0.2645100000000000
v -0.0480662795098845 -0.0798789759235378 0.1943212003878352
v -0.0313071476858564 -0.0799113030860271 0.1946331815447422
v 0.0163729461524914 -0.0798969593160419 0.2008572355930428
v 0.0347495548090305 -0.0576816607537583 0.0954248322256733
v 0.0341930000000000 -0.0645060000000000 0.1219420000000000
v 0.0375699876117474 -0.0460829007395618 0.0305202403037439
v 0.0212479250944440 0.0032709365554399 0.1595061304530957
v 0.0286930000000000 0.0037480000000000 0.1341700000000000
v 0.0286930000000000 0.0072980000000000 0.1331600000000000
v 0.0286930000000000 0.0106020000000000 0.1315150000000000
v 0.0286930000000000 0.0135470000000000 0.1292910000000000
v 0.0286929989656994 0.0181523814896749 0.1235622891309572
v 0.0286930000000000 0.0199880000000000 0.1163560000000000
v 0.0286930000000000 0.0199880000000000 0.1126650000000000
v 0.0286930000000000 0.0179760000000000 0.1055960000000000
v 0.0286930000000000 0.0160330000000000 0.1024580000000000
v 0.0286930000000000 0.0135470000000000 0.0997300000000000
v 0.0286930000000000 0.0106020000000000 0.0975060000000000
v 0.0286930000000000 0.0072980000000000 0.0958610000000000
v 0.0286930000000000 0.0037480000000000 0.0948510000000000
v -0.0313070000000000 0.0600730000000000 0.2645100000000000
v -0.0312977357464816 0.0446837121070416 0.2937025923070162
v -0.0313070000000000 -0.0424270000000000 0.2944410000000000
v -0.0313070067241390 -0.0529408657712471 0.2818333119734424
v -0.0313070000000000 -0.0599270000000000 0.2645100000000000
v -0.0313062338139201 -0.0339131901170894 0.2753584323577013
v -0.0313077060165675 -0.0557279531053008 0.1195942402007837
v -0.0313071870751005 -0.0217054381994499 0.2861911919551033
v -0.0313070000000000 -0.0424270000000000 0.1595100000000000
v -0.0313099234096577 0.0798457075703408 0.1919279983918458
v -0.0313070000000000 0.0425730000000000 0.1595100000000000
v -0.0313042361056584 -0.0656274186393144 0.1271425567666694
v -0.0313076848622615 0.0006656566236216 0.2928142294570332
v -0.0313069999847645 -0.0735464908690251 0.1619367958885422
v -0.0313070372841444 0.0534201037487730 0.1195486569618469
v -0.0313054879606346 0.0655939780854835 0.1256408114444808
v -0.0313061327645568 0.0259371244683222 0.2838242179294843
v -0.0313093991199546 -0.0141584694311876 0.3401558433318531
v -0.0313067416158867 -0.0427862424216732 0.2544855739482168
v -0.0506880552203502 0.0798720686743302 0.1948133298978621
v -0.0518470864958199 0.0785058068183176 0.1888641553117264
v -0.0458254887821451 0.0596981991157184 0.1211198980548307
v -0.0453209242915378 -0.0591406539469384 0.1196267639185015
v -0.0458110384735660 -0.0728348453654143 0.1584675338699174
v -0.0518494269364283 -0.0130441427369737 0.1595112251359268
v -0.0537530074102470 0.0038665595766255 0.1595105552439749
v -0.0313070000000000 -0.0036020000000000 -0.0958300000000000
v -0.0313070000000000 -0.0071520000000000 -0.0968400000000000
v -0.0313070000000000 -0.0104560000000000 -0.0984850000000000
v -0.0313070000000000 -0.0134010000000000 -0.1007090000000000
v -0.0313070000000000 -0.0158870000000000 -0.1034370000000000
v -0.0313070000000000 -0.0178300000000000 -0.1065750000000000
v -0.0313070000000000 -0.0191630000000000 -0.1100160000000000
v -0.0313070000000000 -0.0198420000000000 -0.1136440000000000
v -0.0313070000000000 -0.0198420000000000 -0.1173350000000000
v -0.0313070000000000 -0.0191630000000000 -0.1209630000000000
v -0.0313070000000000 -0.0178300000000000 -0.1244040000000000
v -0.0313070000000000 -0.0158870000000000 -0.1275420000000000
v -0.0313070000000000 -0.0134010000000000 -0.1302700000000000
v -0.0313070000000000 -0.0104560000000000 -0.1324940000000000
v -0.0313070000000000 -0.0071520000000000 -0.1341390000000000
v -0.0480823691502978 0.0522945740716856 0.1195883119843145
v -0.0546182573057280 -0.0519734969613501 0.1218347714081518
v -0.0550966508808803 0.0520408612383087 0.1221641684282578
v -0.0611490194105974 0.0529273134786546 0.1305413089976240
v -0.0539135460248510 -0.0655381534632557 0.1319214558756492
v -0.0611935003983673 -0.0541044076261877 0.1305145198159935
v -0.0528100374244189 0.0662877660208390 0.1311346523489964
v -0.0542211833118469 -0.0778360805810072 0.1939773272167206
v -0.0583142333127397 0.0742488474838915 0.1958531754205136
v -0.0612298054968132 0.0677812339368311 0.1951666582663067
v -0.0557997604758513 -0.0769791628560395 0.2677627874555121
v -0.0612196136594702 -0.0680171653406678 0.2684036305421742
v -0.0587673367301461 0.0737899145323635 0.2730758889575506
v -0.0528153050421873 -0.0671972667112242 0.2967803661646681
v -0.0500530604491834 -0.0768308938247071 0.2844083809687279
v -0.0604045242416186 -0.0705450438380774 0.2799068997742639
v -0.0611857672037344 -0.0615116871349218 0.2869388289674372
v -0.0523345193500005 0.0696234083190353 0.2947509195268821
v -0.0548397815448530 0.0245051739915222 0.3318562265016747
v -0.0569260760185331 0.0070619670661059 0.3375493359955137
v 0.0285136435592569 0.0099688781148021 0.0975470204383685
v 0.0286906913956864 0.0190682708490704 0.1086276908995028
v 0.0368610002299066 0.0195903922312502 0.1180351789260156
v 0.0287080761567888 0.0167061401783601 0.1245623669365530
v 0.0376858199046080 -0.0425652505095834 -0.1093734686468034
v 0.0385643758536722 -0.0130137082078075 -0.1003290276738891
v 0.0386385234192938 -0.0070906999935636 -0.0930504721884824
v 0.0378581025019153 -0.0350716484821168 -0.0318484110836091
v 0.0377794129802484 0.0435605067417780 -0.1091838410160457
v 0.0388499932180680 0.0360249291030650 -0.0318203712604672
v 0.0385040295609508 -0.0480361183648043 0.0947381624384538
v 0.0391591377233368 -0.0568702041172384 0.1157314829009963
v 0.0381728704874050 0.0100370025160211 0.0813970726227743
v 0.0386142400386665 -0.0070215374296055 0.0745874999335697
v 0.0391495285515515 0.0570175395542473 0.1157031918753570
v 0.0376638011424331 0.0461911823604937 0.0948643846677785
v 0.0375289255595203 -0.0583069420152577 0.1430373205644829
v 0.0258748930715283 -0.0746701732144609 0.2126847447701736
v 0.0288894302303152 0.0774464903742429 0.1964617640835425
v 0.0283270730731454 -0.0705562014740580 0.2685165753076212
v 0.0185229347076926 -0.0794988633679235 0.2733408714578338
v 0.0283509773865173 -0.0602834692595620 0.2905425625688250
v 0.0278449304766989 -0.0691183278510421 0.2838140659092712
v 0.0155452037833253 -0.0743446678586845 0.2888230714264923
v 0.0180415534214982 -0.0658477740663617 0.2981909079189205
v 0.0186964090320891 -0.0197838970381215 0.3364473119221738
v 0.0285368001520901 -0.0154518449744383 0.3278824599962615
v 0.0182801103605159 0.0140663815588669 0.3391587081352055
v 0.0271726194847694 0.0082456999612216 0.3332946705318456
v 0.0239447623561089 -0.0065442251790421 0.3396558634144692
v 0.0168837237802245 0.0256630591984102 0.3321791185437732
v 0.0279762218324256 0.0649544827229984 0.2899403584753333
v 0.0253775616922821 0.0745861358815132 0.2679019986423543
v 0.0257812940857085 0.0724105282592007 0.2814793361434437
v 0.0286095659342203 0.0680337748544841 0.2684062018816961
v 0.0180365898489244 0.0798643345296936 0.2684241805298522
v 0.0241326840306898 0.0762892407122555 0.2133272165181982
v 0.0287523132112052 0.0668546439495875 0.1941067601928256
v 0.0294060787404048 -0.0774682297298079 0.1920754086591538
v 0.0253393289778726 -0.0792581765432130 0.1908958206605201
v 0.0269669697630564 -0.0787630955035959 0.2021539215897580
v 0.0382293103250959 -0.0554312739277806 0.0925716966496344
v 0.0384623716576054 -0.0660035655803909 0.1378243434670185
v 0.0346074527131238 -0.0680290162244466 0.1368569736046642
v 0.0375640478936668 -0.0461231927576143 -0.0318435842434402
v 0.0373886771491076 -0.0527472584423688 -0.1036291767767690
v 0.0375524903659731 0.0541033387861365 -0.1015179283142569
v 0.0377049614158947 0.0564111371260951 -0.0933584392447559
v 0.0340654613307287 0.0586641377388601 0.0993728147967725
v 0.0350952004684114 0.0464156371401276 0.0307323050672420
v 0.0360485985071903 0.0463944504108392 -0.0318056702794101
v 0.0384468656061211 0.0440446534303589 0.0309632244086899
v 0.0383663244205584 0.0552193924513890 0.0927155841768109
v 0.0393456530589659 0.0613689454232113 0.1382146160150224
v 0.0359225981178037 0.0680276021063262 0.1368626148030621
v 0.0260475352403852 0.0800763283619230 0.1965725548728506
v 0.0266657416793367 0.0774288189903210 0.2059351364554792
v 0.0282598373987499 0.0688662777279488 0.2012097025698796
v 0.0376946764684832 -0.0061588707549164 0.1341154539709188
v 0.0376418063491287 -0.0054439576164348 0.0948897645219591
v 0.0361750082469807 -0.0165423626666695 0.1039615274046665
v 0.0377433142213918 -0.0199681264431480 0.1188569300550342
v 0.0379095249817537 0.0354170823435340 0.0319329662139155
v 0.0378785404790936 0.0459646781639183 -0.0949455102081825
v 0.0373910694350083 0.0450986012579805 -0.0982228963493938
v 0.0378817854911746 0.0132010395458923 -0.0989061659680485
v 0.0378790028876635 0.0095182606882416 -0.0962382550161743
v 0.0363534804004687 0.0097910100901055 -0.0927803559127667
v 0.0386684354092868 0.0065234842966892 -0.0929986083055591
v 0.0386841337356146 0.0063547218916284 0.0747751466425209
v 0.0363783517070069 0.0098470707369933 0.0748015253962073
v 0.0377723104724562 0.0194849317275937 0.0903859185812209
v 0.0383236979206155 0.0252079657415052 0.1311767869978276
v 0.0373969500910297 0.0110016648319792 0.1443884305801457
v 0.0374863103861639 0.0312559411917251 0.1182766424835316
v 0.0389027922047310 0.0258498765112801 0.1064118767324453
v 0.0356250271734632 -0.0098124366485218 0.0746218352305677
v 0.0354097986931846 -0.0098689695563728 -0.0928635879315837
v 0.0376707440378976 -0.0099573848676529 -0.0967134836993846
v 0.0369081306521741 -0.0436709702052133 -0.0984624626036506
v 0.0379989140660372 -0.0464333876830244 -0.0963136616843172
v 0.0378574668596797 -0.0351630053428492 0.0320334399353451
v 0.0290826778242048 -0.0445857782852232 0.0956587147678698
v 0.0291815135507191 0.0660209087549826 0.1878625592758637
v 0.0288498011655569 0.0450092131710135 0.0954614176974337
v 0.0288342143632791 0.0341050243107086 0.0325835024921677
v 0.0287644240959350 0.0337910374986547 -0.0310727366161956
v 0.0288961099258516 0.0443705777098769 -0.0967631921679912
v 0.0295345697859639 0.0126702413572118 -0.0964648216134942
v 0.0302944695858572 0.0101221828935839 -0.0929138272278192
v 0.0301991322138231 0.0101570490554556 0.0746632651721850
v 0.0288813320365103 0.0268189732829202 0.1335985713919695
v 0.0289776785059533 0.0132473522062134 0.1446129006274293
v 0.0289004268547041 -0.0316788004706358 0.1056186773969623
v 0.0375198216431086 -0.0282131022461097 0.0998724587633140
v 0.0289874849369878 -0.0312308070650568 0.1244855735574084
v 0.0287484738709122 0.0001097226311611 0.1477740931055138
v 0.0288251123919237 -0.0204466590737238 0.0891232648401215
v 0.0354375331854263 -0.0099663610666998 0.1449329333118755
v 0.0289983096491348 0.0329833348230167 0.1104841526783182
v 0.0290613415821490 -0.0167986122899479 0.1424697552177604
v 0.0288021489004466 -0.0103745394829370 0.0745672195830551
v 0.0287875094087287 -0.0105171523037412 -0.0927560468295531
v 0.0299918275581222 -0.0129491596516190 -0.0968939932210203
v 0.0288739713589982 -0.0443671580347534 -0.0966474862095250
v 0.0288263219432509 -0.0338571756423848 0.0321158148005749
v 0.0287682206502355 -0.0337425164936137 -0.0319982708542666
v 0.0286900711608002 -0.0660882234795183 0.1975156582131715
v 0.0265514986040587 -0.0424280836770389 0.1595088118166763
v 0.0285065574372196 0.0400212601226615 0.2657771135742591
v 0.0285125497328163 0.0226340653260523 0.2862307171212073
v 0.0285015818947675 -0.0081850479697028 0.2919090741147066
v 0.0277754947312012 0.0426428271819118 0.1594025845065814
v -0.0398610726903952 -0.0104603097052749 -0.1447855768159290
v -0.0388024938813347 0.0052109338184745 -0.1470253020873025
v -0.0406246799277806 -0.0148169099423676 -0.0877131950652981
v -0.0403588175785306 -0.0299375929834567 -0.1070184104733265
v -0.0402576743905153 -0.0286458709231348 -0.1290150860452981
v -0.0417363589063284 0.0142492244087541 -0.1344700675441357
v -0.0403758083218646 0.0016357684955266 -0.1358535898977061
v -0.0403178720175031 0.0204517109564575 -0.1173553994957830
v -0.0393098163971164 -0.0116270645158314 -0.0996352364272703
v -0.0313180542092774 -0.0190047992564956 -0.1117688467053112
v -0.0311313568040994 -0.0172395539802012 -0.1240925696052268
v -0.0311598364758555 -0.0067206160077031 -0.1339292528825211
v -0.0162526729263775 -0.0243228331390298 -0.1755215176976073
v -0.0178736595263183 -0.0227141419246742 -0.1605044338465333
v 0.0501532324261764 -0.0101746533816950 -0.3407562486775629
v 0.0577994969931640 -0.0191779444972238 -0.3298748517403816
v 0.0587457415716637 0.0002920966666692 -0.3301676641609482
v 0.0453360436992882 -0.0227112488524716 -0.3355859037791988
v -0.0013062153725640 0.0082456835432808 -0.2928341091304696
v -0.0013081532615800 0.0311752286843243 -0.2801950024982557
v -0.0013073256205061 0.0429238299579780 -0.2539325787081733
v -0.0311787518419148 0.0426628100053552 -0.2505258040055484
v -0.0013073806658527 -0.0167497652349190 -0.3397163906424778
v -0.0013088888780617 0.0147864107477857 -0.3409478863410770
v -0.0313308306055325 0.0580391011859171 0.0965605839415242
v -0.0313014969883411 0.0711050851453910 0.1495495040137456
v -0.0313071448627395 0.0441596570120792 0.1089236430649702
v -0.0312846633939759 -0.0580765745558179 0.0977377352226627
v -0.0313070000000000 -0.0661760000000000 0.1289480000000000
v -0.0313068678668361 0.0646160903257698 0.1593356989232570
v -0.0313072182157612 -0.0441009334696705 0.1089106952481241
v -0.0313197376219327 -0.0707633736334766 0.1583020584382231
v -0.0337477755242670 0.0499587636478813 0.1070399756202315
v -0.0159166575900763 0.0245706467652395 -0.1604985013094107
v -0.0241187221547495 0.0000730000000000 -0.1754845596323557
v -0.0165128640169723 0.0239550489212753 -0.1755140842633490
v -0.0311305993875836 -0.0386743944003429 -0.2703700953205547
v -0.0312284716701557 -0.0081714311054418 -0.3303187428310458
v -0.0311743205352577 -0.0425189803163274 -0.2505409162032332
v -0.0311048011157338 0.0694257171352196 -0.2694464262456175
v -0.0311533131166727 -0.0425913625497255 -0.1602336308796461
v -0.0313307738425101 -0.0665596939652221 -0.1974214007709563
v -0.0313070000000000 -0.0511020000000000 -0.1292040000000000
v -0.0311487335857948 0.0427364840695196 -0.1602332294118859
v -0.0317255058954558 0.0524836024698704 -0.1309045049455797
v -0.0313842936617884 0.0241144459671459 -0.0933140179561506
v -0.0314236222427447 -0.0049005469541288 -0.1482450021276096
v 0.0586930000000000 -0.0424270000000000 -0.1604900000000000
v 0.0584261834838356 -0.0699315240786100 -0.1968778459785706
v 0.0586930000000000 0.0425730000000000 -0.1604900000000000
v 0.0586936918477209 -0.0423875268900344 -0.2552867209053305
v 0.0586754271523449 0.0659802523713631 -0.1954372960048660
v 0.0583509601128518 0.0564875728607162 -0.1362259952448289
v 0.0586886004835979 -0.0366933725095830 -0.2725053634678574
v 0.0581477407363404 0.0191941808028412 -0.3282351214411464
v 0.0586899258585551 0.0237934882364054 -0.2867761203859487
v 0.0586915888524276 0.0423450366470394 -0.2611640762371770
v 0.0580663850325766 0.0644545077197307 -0.2902538407810384
v 0.0586954150409235 -0.0115304589948841 -0.2930022966896178
v 0.0435447941963005 0.0241217374266064 -0.1604984191512114
v 0.0436376927618206 0.0244687924591485 -0.1755215196198302
v 0.0416404060127808 -0.0249265861777227 -0.1615937557198241
v 0.0515865952797973 -0.0077459317917957 -0.1754886800054765
v -0.0013070000000000 0.0618670000000000 0.1106030000000000
v -0.0013024062478518 0.0710069464416752 0.1488179573942626
v -0.0013070000000000 -0.0424270000000000 -0.2954200000000000
v -0.0013082655356828 -0.0377071943149512 -0.2719857430003974
v -0.0013070000000000 -0.0424270000000000 -0.3190710000000000
v -0.0013044706270988 0.0647412601732743 0.1593974626041446
v -0.0013070341242528 -0.0610058225745913 -0.2671026189697747
v -0.0013095089380703 -0.0158582307250600 -0.2903100455993641
v -0.0013070000000000 -0.0424270000000000 -0.1604900000000000
v -0.0013070000000000 0.0425730000000000 -0.1604900000000000
v -0.0013072916192551 0.0800092195340527 -0.1950415029710993
v -0.0013070000000000 -0.0799270000000000 -0.2654900000000000
v -0.0013070000000000 0.0425730000000000 -0.3190710000000000
v -0.0013070000000000 0.0425730000000000 -0.2954200000000000
v -0.0013061964344321 0.0540450712549104 -0.2812006935986734
v -0.0013070000000000 0.0600730000000000 -0.2654900000000000
v -0.0013113640738286 -0.0795847410134118 -0.1916386113140718
v -0.0013070000000000 -0.0652340000000000 -0.1259530000000000
v -0.0013070000000000 0.0800730000000000 -0.2654900000000000
v -0.0013070000000000 0.0727920000000000 -0.1587980000000000
v -0.0013070000000000 0.0653800000000000 -0.1259530000000000
v -0.0013070000000000 -0.0617210000000000 0.1106030000000000
v -0.0013099493340742 -0.0701057242682263 0.1578525286485370
v -0.0013070000000000 -0.0661760000000000 0.1289480000000000
v -0.0278330000000000 0.0793910000000000 -0.1918160000000000
v -0.0402880157723674 0.0675090252693812 -0.1386985525422058
v -0.0374049507386161 0.0576381011632617 -0.0955082567046254
v -0.0163070000000000 0.0800730000000000 -0.1991710000000000
v 0.0286930000000000 0.0800730000000000 -0.2654900000000000
v 0.0462958678923588 0.0797977109602525 -0.2746650297220850
v 0.0469969239739277 0.0723434065240803 -0.2934127885211360
v -0.0188908236927674 0.0698945439357828 -0.2958447590052226
v -0.0194368849806780 0.0780301257597752 -0.2818137805618943
v 0.0472273257741724 0.0215654428239878 -0.3364187398693143
v 0.0286930000000000 0.0425730000000000 -0.3190710000000000
v 0.0286933921161984 0.0137573388143996 -0.3415004205011523
v 0.0286930000000000 -0.0424270000000000 -0.3190710000000000
v 0.0470333717514839 -0.0796178082321445 -0.2747332556677525
v 0.0485018049828268 -0.0721620764366825 -0.2933796289272948
v 0.0286930000000000 -0.0799270000000000 -0.2654900000000000
v 0.0454515132319698 -0.0798789910731829 -0.1953006101062032
v 0.0286931477498615 -0.0799113110888124 -0.1956125059709589
v -0.0189878732695698 -0.0798969492649143 -0.2018369366329538
v -0.0366716996902739 -0.0589360124734801 -0.1023158455497357
v -0.0377027931292665 -0.0462748952159471 -0.0317583543373984
v -0.0238619758319629 0.0032742549963877 -0.1604861333794591
v 0.0286930000000000 0.0600730000000000 -0.2654900000000000
v 0.0286921698762404 0.0533012585940320 -0.2824705877743012
v 0.0286930000000000 0.0425730000000000 -0.2954200000000000
v 0.0286930000000000 -0.0424270000000000 -0.2954200000000000
v 0.0286930067234105 -0.0529405317637355 -0.2828127634024247
v 0.0286930000000000 -0.0599270000000000 -0.2654900000000000
v 0.0286931042361366 -0.0001718397722394 -0.2931561749075596
v 0.0286922091517853 -0.0341440006274238 -0.2760367055818920
v 0.0286937058786578 -0.0557296229283893 -0.1205741314524597
v 0.0286930000000000 -0.0424270000000000 -0.1604900000000000
v 0.0286930000000000 0.0425730000000000 -0.1604900000000000
v 0.0286929736737219 0.0425406600064808 -0.2546260769456173
v 0.0286902368254463 -0.0656275771085174 -0.1281223188726140
v 0.0286930471706296 -0.0192022433656090 -0.2888135629924161
v 0.0286929999847643 -0.0735465029291798 -0.1629158550944934
v 0.0286930371593309 0.0534214711381527 -0.1205286378623173
v 0.0286923002259433 0.0646299583519350 -0.1255325264595063
v 0.0286953170583897 -0.0172404468167575 -0.3393508625687569
v 0.0286908109764948 0.0218838815080135 -0.2879536454143516
v 0.0286955503193832 0.0793469327842419 -0.1885233029191919
v 0.0286944262387245 -0.0422115857266265 -0.2580321201883987
v 0.0459933682485620 0.0666184277876128 -0.1311367947324756
v 0.0453585765104786 0.0799863527872797 -0.1943793282706097
v 0.0432112262978015 0.0596984551203532 -0.1220987317959760
v 0.0427072715413924 -0.0591412314214966 -0.1206066591934142
v 0.0431972553508259 -0.0728348326023645 -0.1594464922576093
v 0.0492337006570413 -0.0130456541518393 -0.1604912201562818
v 0.0511388784284697 0.0038633485102778 -0.1604905502189283
v 0.0454709296598916 0.0522941145022471 -0.1205682233631041
v 0.0520026078941438 -0.0519741546650810 -0.1228140262350520
v 0.0524820783534020 0.0520413203288514 -0.1231441614115125
v 0.0585347153112669 0.0529272508021184 -0.1315219412962576
v 0.0512988663814756 -0.0655378327873587 -0.1329003687100138
v 0.0585793003430531 -0.0541021692676198 -0.1314951023872940
v 0.0543117385614844 0.0628885692082587 -0.1335585112522420
v 0.0516056414701644 -0.0778363289341027 -0.1949565381588489
v 0.0514948587056692 0.0780585702876777 -0.1952845419953766
v 0.0570526136142558 0.0725245335564847 -0.1970522268836383
v 0.0531857345728024 -0.0769784686217819 -0.2687420225242003
v 0.0586054996438629 -0.0680135544524419 -0.2693827714202299
v 0.0585808876212779 0.0686786820540036 -0.2739786975661653
v 0.0535345701702622 0.0765041389572173 -0.2766048943821569
v 0.0582481870666778 -0.0665560874383226 -0.2874535237413320
v 0.0513593547549257 0.0075901261145312 -0.3414194090878303
v -0.0398048119065834 0.0140184012341201 -0.1010044346666032
v -0.0313152042392352 0.0192777685845722 -0.1136024104213731
v -0.0313177762170599 0.0071612661483527 -0.1334320941116063
v -0.0400050656250398 -0.0007547521181174 -0.0954373353478749
v -0.0412944957637504 -0.0458441196290092 0.1049006713925738
v -0.0412528178659408 -0.0070912030711591 0.0920715645734535
v -0.0412806518367867 0.0455088523577406 0.1048958904359993
v -0.0403032379270035 0.0565386387008488 0.0936116743929851
v -0.0402769854273542 -0.0460395322028846 -0.0958364239349991
v -0.0416164441612789 -0.0548670743043397 -0.0984885739108733
v -0.0406082034274743 -0.0573758605140675 -0.1321476583007434
v -0.0408898482675976 0.0110616673697226 -0.0847477462050354
v -0.0412286400142132 -0.0070225514031088 -0.0755665519013761
v -0.0405170884765511 0.0277952822204927 -0.1005176471308260
v -0.0417633715604487 0.0570176050203370 -0.1166824697058571
v -0.0386656258436929 0.0457385391764335 -0.0964703275549524
v -0.0315104499403760 0.0443703635041671 0.0957838247375969
v -0.0313956894529694 0.0339659006839006 0.0302101040243113
v -0.0314485054919225 0.0341046690383679 -0.0335629669114822
v -0.0384768924833245 0.0346497095358040 -0.0330266426221834
v -0.0404964633604081 0.0132010149930190 0.0979264414426227
v -0.0400507130640620 0.0307472190461260 -0.1214194256581736
v -0.0371495916151545 -0.0612674367773394 -0.1608903445534035
v -0.0284899876442795 -0.0746698776666151 -0.2136640756661844
v -0.0388507532191249 0.0582951639183208 -0.1432545479641169
v -0.0319385839621377 0.0779450217118683 -0.1929047587314350
v -0.0309415353752034 -0.0705574285582006 -0.2694953030073997
v -0.0211380828344463 -0.0794988594980574 -0.2743198067178108
v -0.0215661961292691 -0.0742777134194888 -0.2896512393439533
v -0.0248228556920073 -0.0663841574174066 -0.2979659712391201
v -0.0312549450396023 -0.0657356839502826 -0.2820486117397894
v -0.0226108556015180 -0.0191554334681577 -0.3375990762199774
v -0.0309748227861387 -0.0190203175181549 -0.3266442038733651
v -0.0235564213207031 0.0082150843963614 -0.3412169630892828
v -0.0309066996276672 0.0152946764915460 -0.3303661811868599
v -0.0203521995277657 -0.0064310703714056 -0.3422495517454711
v -0.0201816701870675 0.0216640016567070 -0.3362964571625536
v -0.0305909404267864 0.0649548716712265 -0.2909196156653592
v -0.0219592921605392 0.0797057656421167 -0.2696255145631937
v -0.0283966292089902 0.0724100793199545 -0.2824586432826874
v -0.0253582029607241 0.0777105225139296 -0.2133151071108878
v -0.0290849065327054 0.0731174354569352 -0.2125015078165283
v -0.0312757388380237 0.0673358187834722 -0.1978243079226117
v -0.0347161961180776 0.0110974773841383 -0.0797773052898929
v -0.0327559123232052 -0.0125103566518096 -0.0835516346003603
v -0.0313524133278739 -0.0793325370476468 -0.1927561415671795
v -0.0295819116702489 -0.0787630806670329 -0.2031332365392987
v -0.0407197185345785 -0.0669754732161412 -0.1386631670918187
v -0.0401792585906148 -0.0461231294576954 0.0308644282689973
v -0.0420136312957434 -0.0546154794001044 0.0928377943130476
v -0.0415729311849707 -0.0428804803179169 -0.0321912468124343
v -0.0396720263970141 -0.0486096375430949 0.1062860223069016
v -0.0377091834160821 -0.0550937801925140 0.1002931436912364
v -0.0389584215176725 -0.0425591608020548 0.1087737072224473
v -0.0395426271821500 0.0426923605010152 0.1085284741657864
v -0.0401233723620524 0.0536479112013885 0.1012807902163011
v -0.0376526503669684 0.0464200106011126 0.0307705486530825
v -0.0377100599411563 0.0464156601232281 -0.0317115633967330
v -0.0410402968636861 0.0441327763504212 0.0310297232397025
v -0.0403654639421451 -0.0189561718773233 -0.1082120296148902
v -0.0399806721066234 -0.0169988657823449 -0.1269342775143538
v -0.0419228022627343 0.0536959532083865 -0.0944608608870084
v -0.0420281595653922 0.0416694322958366 -0.0323965483150792
v -0.0407431187558426 0.0358736407325033 0.0312990459946914
v -0.0401108308211049 0.0458914382094574 0.0969518746178734
v -0.0404935135497431 0.0095183489102836 0.0952588673901782
v -0.0389672414626177 0.0097913962569536 0.0918012692297285
v -0.0412826009452824 0.0065256576659934 0.0920196775421899
v -0.0412982086984954 0.0063572220245458 -0.0757543536146573
v -0.0389924168300111 0.0098472979774404 -0.0757804834433241
v -0.0318481519599870 0.0142740260368570 -0.1452198430894105
v -0.0382407935585585 -0.0098123190253848 -0.0756007303459796
v -0.0380253331198556 -0.0098688966985744 0.0918845996033276
v -0.0408799544237328 -0.0132282386681595 0.0983287240462887
v -0.0402853806872094 -0.0099575152975117 0.0957341067792355
v -0.0397665182884121 -0.0456588076228401 0.0969801625118303
v -0.0391386778961569 -0.0346445394483732 -0.0331497720348706
v -0.0404731327103100 -0.0350717194585741 0.0308690130061605
v -0.0296973066978492 0.0780891295369964 -0.2018720694714201
v -0.0317956173225877 0.0660202537162125 -0.1888413855379237
v -0.0314641032997085 0.0450087589275030 -0.0964409616441051
v -0.0318587680168163 0.0149602392539693 0.0964393174730505
v -0.0328600599680908 0.0125115800142201 0.0944695576295874
v -0.0329094413877583 0.0101221880357181 0.0919348414851150
v -0.0313123106307846 0.0119103750215903 0.0918755323708073
v -0.0313123298425729 0.0119530967491634 -0.0756201981080486
v -0.0328140956102770 0.0101570717327689 -0.0756423287192681
v -0.0328081708444192 0.0154486148420715 -0.0863246202008096
v -0.0316018352228263 -0.0312309323093069 -0.1254648950176548
v -0.0315845063377686 -0.0307481319516643 -0.1036803559540403
v -0.0313436365652435 -0.0212338099298724 -0.0904370296058700
v -0.0316127689071687 0.0329833850078766 -0.1114638419873293
v -0.0315448025289828 -0.0217122155535483 -0.1399183549204082
v -0.0321535244309706 0.0272618794499451 -0.1343399487565831
v -0.0314163747094278 -0.0103749723872850 -0.0755462207137917
v -0.0314016484527156 -0.0105178150905866 0.0917770874600182
v -0.0321064558429006 -0.0127222369274017 0.0956324044967870
v -0.0315218906490735 -0.0443893028126808 0.0956239571262715
v -0.0313823582687636 -0.0337420032654626 0.0310188786082389
v -0.0314405917874541 -0.0338567172191274 -0.0330952438483726
v -0.0314641339876489 -0.0448564462648511 -0.0964482194182071
v -0.0312125172589987 -0.0244846772360392 -0.2853895598925043
v -0.0311018176974261 0.0385619577144650 -0.2708765268940894
v -0.0312204297499304 0.0238595772034383 -0.2860088588520531
v -0.0310799217169593 0.0088721256063982 -0.2926084171127982
v -0.0311774735533259 -0.0077174378430257 -0.2925166620487229
v -0.0310532075166982 -0.0174542825302038 -0.2893847320162503
v -0.0554032515572764 -0.0033585117195910 0.1701464320289285
v -0.0526424354090423 0.0132020011795769 0.1708956211242279
v -0.0524860366269501 0.0204973861494067 0.1699621846451091
v -0.0462905582690557 0.0251931563752880 0.1725088915258736
v -0.0574215575709520 0.0064891356671238 0.1691036000740480
v -0.0435249573222857 0.0313329189139800 0.1708865160386137
v -0.0363282638869482 0.0353899187431443 0.1734695944393034
v 0.0034033772980178 0.0376104711589661 -0.1813577118833470
v 0.0081075920281752 0.0386879633994142 -0.1683632072571019
v 0.0161361515180354 0.0387631111892990 -0.1653822691442509
v 0.0401673460880161 0.0258122309457136 -0.1635454364126069
v 0.0465509025558083 0.0213852415147780 -0.1665333984577593
v -0.0164513622053667 0.0273063935876623 -0.1848478569951662
v -0.0087753688090051 0.0331447306305354 -0.1819026733380299
v -0.0039955036893763 0.0352413597969996 -0.1858493259369251
v 0.0135010998369772 0.0383818838226174 -0.1830072694393620
v 0.0213600357640546 0.0368237093924999 -0.1690037812930809
v 0.0282764913147603 0.0354840225228049 -0.1654336958835611
v 0.0359680334569331 0.0319240242441691 -0.1674265114548910
v 0.0502752193400219 0.0113389197426617 -0.1636518657567795
v 0.0282895551177091 0.0430479828799533 0.2461374081160357
v 0.0282925179237958 0.0340519279603847 0.2240280678930173
v 0.0283206880275565 -0.0414917112254711 0.2381467557235688
v 0.0282755415438703 -0.0285887134299455 0.2181541300156169
v 0.0282643464030436 -0.0153430922303610 0.2099350534999993
v 0.0283189326822120 0.0036791320104077 0.2069262448770846
v 0.0282919584125500 0.0225253120720712 0.2133762318989006
v -0.0709021022464293 0.0362241281985662 0.2266210851185640
v -0.0708967688984261 0.0424814940616469 0.2456344654070053
v -0.0709229117547917 -0.0418460938449467 0.2415393468578481
v -0.0710033693626604 -0.0347275591488483 0.2253137115091534
v -0.0708369358538660 -0.0225629454165810 0.2127095694279322
v -0.0709074276658305 -0.0001028391936528 0.2069937483572208
v -0.0709153715396004 0.0187189448230561 0.2109960084237519
v -0.0013074889321235 0.0051050292615481 0.3182004697792140
v -0.0313076040969300 0.0050781668864110 0.3183275251369266
v -0.0013067974887732 0.0001506918883109 0.3206330422088256
v -0.0313068558847747 -0.0000348688746798 0.3205951189274016
v -0.0013070925773366 -0.0036340948141614 0.3193045883356848
v -0.0313069603735118 -0.0035554222715128 0.3193640562108734
v -0.0313070000000000 -0.0050280000000000 0.3176690000000000
v -0.0013070497111259 -0.0055942097429278 0.3166605423539538
v -0.0313072645246316 -0.0378939692152522 0.2300460517845676
v -0.0313076746040230 -0.0219317201929411 0.2121458921192107
v -0.0313070000000000 -0.0038480000000000 0.2071920000000000
v -0.0313080434479399 0.0126871606271594 0.2084512844814794
v -0.0313075723577461 0.0353041891796391 0.2242196047032690
v -0.0313075821891086 0.0427583639445251 0.2510825533149316
v -0.0313096884322646 0.0263701426179835 0.2598786635615911
v -0.0713093239692444 0.0271673197215999 0.2571560104973983
v -0.0313080506124839 0.0035771017190582 0.2785601284779011
v -0.0713061393273379 0.0073005753374405 0.2778543407652953
v -0.0713063360244410 -0.0192427408308276 0.2698533662265487
v -0.0313079214119615 -0.0236868850348646 0.2650382477301598
v -0.0313041991456262 -0.0265554849050964 0.2393232733311164
v -0.0712983069972005 -0.0284539983484927 0.2468976152066660
v -0.0013067448537137 -0.0397138110513459 0.2333272000835624
v -0.0013064081031167 -0.0252407540566010 0.2148089899320480
v -0.0013070000000000 -0.0115580000000000 0.2086330000000000
v -0.0013062587034432 0.0005848661942848 0.2068513762093612
v -0.0013070000000000 0.0117040000000000 0.2086330000000000
v -0.0013053400187320 0.0222662723962848 0.2131430546765324
v -0.0013067007566226 0.0338653850694578 0.2234619835278961
v 0.0286920644975517 0.0238343176090870 0.2650030943520123
v -0.0013059972245638 0.0254261761176981 0.2615000320742387
v 0.0286919518230744 0.0046246744813629 0.2771903619910258
v -0.0013060001073301 0.0107299161802329 0.2754518795595708
v -0.0013058317079121 -0.0119740299957597 0.2752015062552550
v 0.0286918615101710 -0.0198997126682007 0.2702203019001534
v -0.0013198386729097 -0.0287401755787535 0.2521512835640600
v 0.0286844089338963 -0.0274304358228340 0.2415463934511751
v -0.0013065549876638 0.0023224728212213 0.2633537784939938
v -0.0313067798190716 0.0101994048367163 0.2606067530682736
v -0.0013073363549326 -0.0128959647349800 0.2542209080101754
v -0.0313065604229735 0.0086891051871699 0.2387586217860740
v -0.0313065649067067 -0.0131101283867023 0.2550375323237758
v -0.0313077764497633 0.0254470815294809 0.2375539985433815
v -0.0313076284067544 -0.0118954256515762 0.2244293446136556
v -0.0313063200250186 -0.0070583132911223 0.2378768242930057
v -0.0313078982629307 0.0084645919635482 0.2223970522022440
v -0.0013028332935539 0.0140489517734539 0.2445405418230073
v -0.0013062419893990 0.0030610980133469 0.2218841046643757
v -0.0013030598690828 0.0247788448333422 0.2341562805178012
v -0.0013058305874604 -0.0164887048785127 0.2264695421679224
v -0.0013078681881811 -0.0069526249174226 0.2373749399460996
v 0.0286921886923543 -0.0105470961872623 0.2235559455245851
v 0.0286920549954432 0.0122143272861055 0.2238521220453234
v 0.0286960672546492 0.0271608014771996 0.2418747273326584
v 0.0282987791308990 0.0075417226957040 0.2913151718999487
v -0.0013068802451254 0.0428476538470236 0.2442580675612220
v -0.0013052169565063 0.0418904852551318 0.2643389133183056
v -0.0013063901550787 0.0322802109190657 0.2779306941437368
v -0.0013067587601421 0.0121418389889443 0.2907322797144981
v -0.0013061584645780 -0.0105608862760247 0.2911176608654003
v 0.0283181627595644 -0.0153672207053842 0.2896009644247696
v -0.0013069819545072 -0.0317022821777710 0.2785785973402897
v -0.0713061674998644 -0.0132203546424460 0.2244306653496426
v -0.0713062558405339 0.0096728426508975 0.2231445627795645
v -0.0713063360993980 0.0249257800646512 0.2364988763261396
v -0.0313070793447383 -0.0060806889711268 0.3123165407351646
v -0.0013071084119617 -0.0047518357231138 0.3101355455194393
v -0.0013067855451570 0.0049208059879933 0.3100589909564266
v -0.0313069493745365 0.0039905280567804 0.3089630231274247
v -0.0313068126364438 0.0417129717610380 0.2637112706372477
v -0.0013070000000000 0.0425730000000000 0.3195100000000000
v -0.0313070000000000 0.0425730000000000 0.3195100000000000
v -0.0313070000000000 0.0800730000000000 0.2045100000000000
v -0.0013070000000000 0.0800730000000000 0.2045100000000000
v -0.0013070000000000 -0.0799270000000000 0.2045100000000000
v -0.0313070000000000 -0.0799270000000000 0.2045100000000000
v -0.0013070000000000 -0.0424270000000000 0.2645100000000000
v -0.0313070000000000 -0.0424270000000000 0.2645100000000000
v -0.0013070000000000 -0.0424270000000000 0.3195100000000000
v -0.0313070000000000 -0.0424270000000000 0.3195100000000000
v -0.0313070000000000 -0.0305090000000000 0.3295100000000000
v -0.0313070000000000 0.0306550000000000 0.3295100000000000
v -0.0013070000000000 0.0306550000000000 0.3295100000000000
v -0.0013070000000000 -0.0305090000000000 0.3295100000000000
v -0.0707338508679738 -0.0218508258029228 0.2860308773490948
v -0.0710076347808190 -0.0297675031200161 0.2795960261955626
v -0.0709010113492169 -0.0399918107888042 0.2645318653479257
v -0.0709089358269148 0.0384402898768835 0.2692946609001909
v -0.0709090051196873 0.0222811956280960 0.2857641433873437
v -0.0708833860458599 -0.0006130636436103 0.2926729884546027
v 0.0283031455560873 -0.0382584497780474 0.2691965013422198
v 0.0282655999713766 0.0380487831712429 0.2685280392530429
v 0.0283101547694350 0.0254622698179408 0.2838855650246191
v 0.0583052515938376 -0.0380138975961644 -0.2317104176710666
v 0.0582772118610629 -0.0312114873478719 -0.2219869314325763
v 0.0583005093548061 0.0318804701139279 -0.2219448143637417
v 0.0582628966038709 0.0409533209175621 -0.2389684896134588
v 0.0582642869735383 0.0154892777377318 -0.2109143025521775
v 0.0583189214702254 -0.0035330218530909 -0.2079052689096956
v 0.0582918801948118 -0.0223798976457154 -0.2143555736576885
v -0.0408962574217212 -0.0378733096978288 -0.2313072559553822
v -0.0409000297831843 -0.0253674759174673 -0.2160817768152077
v -0.0408968030053182 -0.0423355247428034 -0.2466139318067089
v -0.0409094964928238 0.0423282716716234 -0.2544473579164397
v -0.0409029914585671 0.0410097080406665 -0.2390078208841930
v -0.0408943316646164 0.0341195406073300 -0.2250134142689964
v -0.0409947910722646 0.0210706979323926 -0.2134947574432898
v -0.0392250886456007 0.0081981250972451 -0.2086196515910173
v -0.0412504581365005 0.0000991689225529 -0.2097834443361657
v -0.0391867260036473 -0.0038689958724335 -0.2081839109200364
v -0.0409541750057283 -0.0114886615995308 -0.2097419593456139
v -0.0013061623595638 -0.0065739138980161 -0.3129459816252228
v 0.0286932025307899 -0.0000048084641831 -0.3216121082958405
v -0.0013068559854396 0.0001810954272547 -0.3215740405530873
v 0.0286929083539118 0.0037796607656353 -0.3202847194112788
v -0.0013069594241005 0.0037011714234518 -0.3203441327621863
v 0.0286927998209962 0.0064224625598161 -0.3135215201999252
v -0.0013074277013130 0.0361662061831657 -0.2271957807043928
v -0.0013073356045933 0.0221158241119977 -0.2139607754293694
v -0.0013070000000000 0.0117040000000000 -0.2096120000000000
v -0.0013070000000000 0.0039940000000000 -0.2081710000000000
v -0.0013070000000000 -0.0038480000000000 -0.2081710000000000
v -0.0013070000000000 -0.0115580000000000 -0.2096120000000000
v -0.0013076476908249 -0.0299407382602580 -0.2191872612725755
v -0.0013070000000000 -0.0395570000000000 -0.2351370000000000
v -0.0013075885145200 -0.0425798162538193 -0.2503654100124056
v -0.0013099451444280 -0.0246187990890901 -0.2658831327157589
v -0.0413095352351854 -0.0258454989530533 -0.2633714090685655
v -0.0013076277263327 -0.0029540958823514 -0.2781138544404396
v -0.0413065231349359 -0.0070862945297240 -0.2773372100256509
v -0.0013079232478450 0.0166173296788703 -0.2735532619810208
v -0.0413062465542909 0.0133064104709358 -0.2756034903756931
v -0.0013073475049601 0.0265540775633936 -0.2582905110858080
v -0.0413064813387936 0.0261442016191220 -0.2601167873084492
v -0.0013041989876575 0.0267015246106018 -0.2403030670398982
v -0.0413048149511815 0.0269411316990937 -0.2427581996069224
v 0.0286932554864068 0.0398596406795206 -0.2343054738507587
v 0.0286935937056136 0.0253852607239049 -0.2157871013551853
v 0.0286930000000000 0.0117040000000000 -0.2096120000000000
v 0.0286937414889318 -0.0004388661150941 -0.2078303761289348
v 0.0286930000000000 -0.0115580000000000 -0.2096120000000000
v 0.0286946604986719 -0.0221213578219228 -0.2141226245818318
v 0.0286930000000000 -0.0313350000000000 -0.2218580000000000
v 0.0286920104989768 -0.0401515518047816 -0.2351102250193191
v 0.0586920001856466 -0.0120385323150653 -0.2761631213338629
v 0.0286941643476260 -0.0131669823181725 -0.2755868940135827
v 0.0586922932051207 0.0081151211912741 -0.2770882753467288
v 0.0286940013605048 0.0096731944796082 -0.2768407362536474
v 0.0586920678578532 0.0228463231512892 -0.2668488509560776
v 0.0286937570984713 0.0234719089682064 -0.2654783793001625
v 0.0586844080483330 0.0275765270961932 -0.2425265715758921
v -0.0013073262013450 -0.0122789756398218 -0.2571277823892457
v 0.0286940729648974 -0.0000274858625609 -0.2637824733726737
v -0.0013059993780583 0.0013669594607617 -0.2637691943856204
v 0.0286927987385056 0.0091344125152175 -0.2601553452117533
v -0.0013065696825760 0.0120630147216138 -0.2568733620689002
v -0.0013063459531079 -0.0091057673340818 -0.2404018096209759
v -0.0013076208908889 -0.0148089260951397 -0.2272421035318911
v -0.0013077772950449 -0.0253012798243179 -0.2385340778551166
v -0.0013079985502543 0.0046129737793909 -0.2220612959642905
v -0.0013079233623234 0.0089638125028789 -0.2393105721640740
v 0.0287021964015107 -0.0276973558974041 -0.2556795103134156
v 0.0286933437859524 -0.0126757096166647 -0.2563257129869433
v 0.0286936372800584 -0.0090360840325461 -0.2405168602794604
v 0.0286939687617004 -0.0105423412316719 -0.2245334143764947
v 0.0286911883870484 0.0134625579365931 -0.2462827297524752
v 0.0286831862747944 0.0279212397103344 -0.2426497721974700
v 0.0286934532243907 -0.0236906040950682 -0.2360752681872461
v 0.0286915031843884 0.0022186735596810 -0.2374191480429240
v 0.0286940040898999 0.0096715746071864 -0.2241381796602598
v 0.0586921900371692 0.0106921071732991 -0.2245350306412909
v 0.0586924589520708 -0.0072439532063831 -0.2236742195447393
v 0.0586921922052595 -0.0219894623991593 -0.2331702682155848
v 0.0587004523778631 -0.0279483723796205 -0.2557148502712285
v 0.0582926163883765 -0.0426645637717612 -0.2509831477878270
v 0.0582656127052757 -0.0379028871469377 -0.2695068104388160
v 0.0583182232498420 0.0414327315092400 -0.2620974270581921
v -0.0413061661213582 0.0133675491597947 -0.2254105580142347
v -0.0413062536270144 -0.0095250892209839 -0.2241234303801697
v -0.0413063363070813 -0.0247799469035538 -0.2374786987662509
v -0.0013074411703184 -0.0234526381399971 -0.2868980751268211
v -0.0013077771601645 0.0068311401426586 -0.2933277039514632
v -0.0013075979478801 0.0312036150756127 -0.2800875202395381
v -0.0013065673118118 0.0421186129176857 -0.2649463434450970
v -0.0410029753749245 0.0089957487417362 -0.2920220856500002
v -0.0013071063416965 0.0065199776326117 -0.3138617269178653
v 0.0286937178244200 -0.0066092419128048 -0.3129260177796586
v -0.0013108761920859 -0.0417693329785308 -0.2647966564852040
v 0.0286930000000000 -0.0424270000000000 -0.3204900000000000
v -0.0013070000000000 -0.0424270000000000 -0.3204900000000000
v 0.0286930000000000 -0.0424270000000000 -0.2654900000000000
v -0.0013070000000000 -0.0799270000000000 -0.2054900000000000
v 0.0286930000000000 -0.0799270000000000 -0.2054900000000000
v 0.0286930000000000 0.0800730000000000 -0.2054900000000000
v -0.0013070000000000 0.0800730000000000 -0.2054900000000000
v 0.0286915892423904 0.0413372077394109 -0.2652338909377280
v 0.0286930000000000 0.0425730000000000 -0.3204900000000000
v -0.0013070000000000 0.0425730000000000 -0.3204900000000000
v -0.0013070000000000 0.0306550000000000 -0.3304900000000000
v -0.0013070000000000 -0.0305090000000000 -0.3304900000000000
v 0.0286930000000000 -0.0305090000000000 -0.3304900000000000
v 0.0286930000000000 0.0306550000000000 -0.3304900000000000
v -0.0407941996279985 0.0370788065948630 -0.2720164514796974
v -0.0409024955479305 -0.0396664071166331 -0.2663537845848210
v -0.0408621083161476 -0.0074132203215042 -0.2923427034989452
v -0.0409128256860533 -0.0253794946959112 -0.2848778813172683
v -0.0409133909382536 0.0242774545363622 -0.2854154705907960
v 0.0582928386246361 -0.0283742059079183 -0.2820241127101143
v 0.0582839534554019 -0.0152125990451847 -0.2901233343426902
v 0.0583464730782441 -0.0037668732152701 -0.2926254933072295
v 0.0583037769820203 0.0080160708896212 -0.2922071682863215
v 0.0582883100192267 0.0261465568639956 -0.2843467495230720
v 0.0286946185627609 0.0042576788459065 -0.2766260319349294
v 0.0286961911178427 0.0255641930566899 -0.2559225790128086
v 0.0286698757771778 0.0175217837181505 -0.2314116521629862
v 0.0413598811578781 0.0070299659330699 -0.2754632092859119
v 0.0411735192744732 0.0245686735568612 -0.2459131007769102
v 0.0411020951293616 0.0206122357177092 -0.2359496893514621
v 0.0411657614261142 0.0068944337655012 -0.2261841518002369
v -0.0213061572055099 -0.0038126769417259 -0.2641328183522044
v 0.0286927841045660 0.0109435887805021 -0.2572233451227022
v -0.0213072865216261 0.0107117487222847 -0.2574593028057938
v 0.0286929123332579 0.0121439986927448 -0.2454617055227984
v -0.0213059159872240 0.0118183816510200 -0.2437510921909117
v 0.0286911986267639 0.0025365351680458 -0.2378867842841355
v 0.0415226507868817 0.0241841901231917 -0.2578269018222049
v 0.0478634970626558 -0.0025771517336903 -0.2384916719958509
v 0.0496864984758587 0.0037248321580375 -0.2454518453834635
v 0.0483539815250384 -0.0123202614807058 -0.2504895030921729
v 0.0495310734501163 -0.0035967770810587 -0.2467911224931994
v 0.0483539752009938 0.0124662412553819 -0.2504895030924006
v 0.0482678663071291 0.0000865706266507 -0.2626855332067896
v 0.0495310102110559 -0.0035967558770061 -0.2541878696666011
v 0.0495309790928395 0.0037431049151050 -0.2541878563235589
v 0.0321018901554832 0.0000730312398659 -0.2504900582252850
v 0.0286941112645908 -0.0086660145752196 -0.2409317112040059
v -0.0213171798359241 -0.0022638287462737 -0.2377434996395535
v -0.0213070066716176 -0.0126519636629907 -0.2468753768562311
v 0.0286930062266096 -0.0127103836816746 -0.2516656276819415
v 0.0286930820272792 -0.0028602465065264 -0.2639575767804190
v 0.0286920221319330 -0.0173841646111116 -0.2687094557269339
v 0.0286939678404331 -0.0001344510780915 -0.2252375276668366
v 0.0286868440375624 -0.0190876172960491 -0.2329652669679854
v 0.0286813570438328 -0.0250985801232959 -0.2542561014059482
v 0.0410011666816438 -0.0240455137946866 -0.2435550439750100
v 0.0412866887279094 -0.0133282298370926 -0.2286778818668703
v 0.0414914574610499 -0.0242162405060203 -0.2571531508502766
v 0.0412241213930094 -0.0138987717463397 -0.2713605308748773
v -0.0012984969373421 0.0025556470386604 0.2242401457350296
v -0.0012908470339102 0.0201538811089154 0.2334314661970139
v -0.0013049817185959 0.0245106849927064 0.2585272807979451
v 0.0111515275341119 0.0122565474391516 0.2272967098149626
v 0.0114095577019932 0.0255460522553272 0.2463110353184466
v 0.0111021233655591 0.0206122152235804 0.2640503375024614
v -0.0013081460402224 0.0099659551533034 0.2409718545985251
v -0.0513053029488950 0.0000714989347649 0.2361337822137359
v -0.0513065906382464 0.0137282610815135 0.2481625667243414
v -0.0013070876667421 0.0121439986927447 0.2545382944772017
v -0.0013098545756729 -0.0015403652850835 0.2629323708510767
v 0.0194376374934848 0.0000705556082190 0.2565478461153619
v 0.0179037560287867 -0.0119858036828442 0.2471149007773308
v 0.0125131803298929 -0.0244183797300066 0.2501027986550205
v 0.0183539752009938 0.0124662412553819 0.2495104969075995
v 0.0194376673659790 0.0000753868498586 0.2424726833447113
v 0.0021018901554832 0.0000730312398659 0.2495099417747151
v -0.0513125266730975 -0.0021349508850195 0.2637277684367100
v -0.0013070104128627 -0.0134384073890138 0.2491247310590682
v -0.0513063394333198 -0.0128409874281867 0.2463284038209295
v -0.0013077106313515 -0.0031848927441630 0.2368495154641384
v -0.0012914017172953 0.0008571483015741 0.2759934886565344
v -0.0012979808518867 -0.0186409945470193 0.2313392283322281
v -0.0013009623309926 -0.0243289955831131 0.2590013882228692
v 0.0115171869188242 -0.0083921564326624 0.2253532194993658
v 0.0112159402534311 0.0020906222408090 0.2752646537675967
v 0.0110471255367767 -0.0205728272437353 0.2645622354690802
v 0.0111034650119284 -0.0219955575790340 0.2377633863580247
# 980 vertices, 0 vertices normals

f 2 356 9
f 6 357 358
f 7 358 359
f 7 359 356
f 8 7 356
f 9 8 356
f 395 3 392
f 391 395 392
f 393 392 4
f 393 391 392
f 10 4 5
f 10 393 4
f 398 5 396
f 398 10 5
f 102 12 223
f 102 11 12
f 297 13 16
f 16 14 297
f 13 15 16
f 17 18 19
f 17 20 18
f 21 19 22
f 21 17 19
f 23 22 24
f 23 21 22
f 25 24 26
f 25 23 24
f 27 26 28
f 27 25 26
f 29 28 30
f 29 27 28
f 31 30 32
f 31 29 30
f 33 32 34
f 33 31 32
f 35 34 36
f 35 33 34
f 37 36 38
f 37 35 36
f 39 40 41
f 39 38 40
f 39 37 38
f 42 41 43
f 42 39 41
f 45 43 44
f 45 42 43
f 46 47 48
f 46 44 47
f 46 45 44
f 49 46 48
f 50 51 52
f 58 52 53
f 58 50 52
f 58 53 54
f 58 54 55
f 58 55 56
f 58 56 57
f 58 57 59
f 60 59 61
f 60 58 59
f 62 61 63
f 62 60 61
f 64 63 65
f 64 62 63
f 66 65 67
f 66 64 65
f 68 67 69
f 68 66 67
f 70 69 71
f 70 68 69
f 72 70 71
f 72 73 74
f 72 71 73
f 75 74 77
f 75 72 74
f 76 75 77
f 78 76 77
f 79 409 108
f 80 108 408
f 80 79 108
f 81 408 407
f 81 80 408
f 81 407 82
f 760 81 82
f 84 323 327
f 84 83 323
f 86 89 87
f 88 89 86
f 88 85 89
f 90 86 87
f 90 87 92
f 93 95 91
f 94 88 86
f 87 95 93
f 87 93 96
f 89 95 87
f 85 97 89
f 98 103 99
f 100 98 99
f 102 101 11
f 99 101 102
f 103 99 102
f 104 12 11
f 104 11 101
f 106 324 319
f 105 319 320
f 105 106 319
f 105 320 317
f 409 324 106
f 107 105 317
f 108 109 324
f 108 324 409
f 408 109 108
f 405 107 317
f 329 408 407
f 329 109 408
f 332 407 110
f 332 329 407
f 111 405 112
f 113 111 112
f 398 111 10
f 10 111 113
f 394 111 398
f 393 10 113
f 391 393 113
f 380 391 113
f 335 332 110
f 395 391 380
f 114 390 389
f 116 381 114
f 399 115 395
f 116 114 389
f 116 389 397
f 403 395 380
f 403 399 395
f 117 118 119
f 382 397 118
f 382 116 397
f 383 382 118
f 383 118 117
f 400 404 402
f 400 402 401
f 385 120 386
f 385 384 120
f 110 114 381
f 110 381 335
f 114 111 394
f 114 394 390
f 111 107 405
f 400 399 404
f 404 399 403
f 117 120 384
f 117 384 383
f 121 283 122
f 123 281 283
f 123 283 121
f 124 122 289
f 125 287 126
f 124 121 122
f 125 126 130
f 127 281 123
f 128 134 13
f 124 289 293
f 128 129 134
f 124 293 294
f 128 130 129
f 132 125 130
f 287 127 123
f 131 124 294
f 133 132 130
f 133 130 128
f 126 287 123
f 13 131 294
f 13 134 131
f 135 136 137
f 135 137 138
f 139 141 140
f 138 137 141
f 138 141 139
f 140 142 139
f 143 144 45
f 143 45 42
f 143 42 39
f 143 39 37
f 143 37 35
f 145 35 33
f 145 33 31
f 145 31 29
f 145 143 35
f 146 20 147
f 146 29 27
f 146 27 25
f 146 25 23
f 146 23 21
f 146 21 17
f 146 17 20
f 146 147 148
f 149 145 29
f 149 29 146
f 150 146 148
f 151 152 153
f 155 149 146
f 154 151 153
f 151 83 152
f 154 153 156
f 157 158 159
f 760 160 161
f 79 83 151
f 79 84 83
f 158 154 156
f 158 156 162
f 79 163 84
f 159 158 162
f 80 164 163
f 80 163 79
f 165 164 80
f 81 165 80
f 166 165 81
f 167 166 81
f 167 81 760
f 157 159 168
f 169 157 168
f 170 167 760
f 99 101 104
f 70 72 104
f 70 104 157
f 68 157 169
f 68 70 157
f 75 104 72
f 66 68 169
f 76 104 75
f 64 66 169
f 100 99 104
f 78 100 104
f 78 104 76
f 62 169 171
f 62 64 169
f 172 100 78
f 60 62 171
f 173 100 172
f 58 60 171
f 174 100 173
f 161 170 760
f 175 100 174
f 176 100 175
f 176 160 100
f 177 160 176
f 178 161 160
f 179 58 171
f 179 50 58
f 180 160 177
f 180 178 160
f 180 181 182
f 180 177 181
f 183 180 182
f 183 184 190
f 183 185 184
f 183 186 185
f 183 187 186
f 183 182 187
f 188 50 179
f 188 183 190
f 188 189 50
f 188 190 189
f 144 188 179
f 144 179 191
f 194 191 192
f 193 192 198
f 193 194 192
f 195 193 198
f 49 144 191
f 49 191 194
f 196 195 198
f 46 144 49
f 199 196 198
f 45 144 46
f 200 199 198
f 147 20 201
f 147 201 202
f 147 202 203
f 147 203 204
f 147 204 200
f 147 198 197
f 147 200 198
f 145 143 85
f 149 85 88
f 149 145 85
f 348 85 345
f 144 143 85
f 144 85 348
f 188 348 347
f 188 144 348
f 183 347 346
f 183 188 347
f 205 352 346
f 178 161 205
f 180 178 205
f 183 205 346
f 183 180 205
f 354 206 334
f 353 206 354
f 205 206 353
f 161 206 205
f 207 246 256
f 207 256 208
f 170 206 161
f 333 206 170
f 208 333 170
f 208 170 207
f 210 209 211
f 210 295 209
f 210 211 333
f 208 210 333
f 296 212 295
f 209 295 212
f 213 212 296
f 164 209 212
f 328 164 163
f 328 209 164
f 84 327 325
f 163 84 325
f 163 325 328
f 15 214 291
f 254 214 15
f 83 322 291
f 83 291 214
f 323 322 83
f 292 318 321
f 292 215 318
f 291 321 322
f 291 292 321
f 216 217 215
f 216 218 217
f 162 219 159
f 318 219 162
f 215 318 162
f 215 162 216
f 219 337 338
f 159 337 219
f 315 219 338
f 337 220 221
f 337 221 341
f 171 220 337
f 169 171 337
f 168 169 337
f 159 168 337
f 171 220 222
f 179 222 342
f 179 171 222
f 191 342 91
f 191 179 342
f 192 191 91
f 198 197 96
f 198 96 93
f 192 93 91
f 192 198 93
f 147 87 96
f 147 96 197
f 92 148 147
f 92 147 87
f 150 148 92
f 90 150 92
f 90 150 146
f 90 146 86
f 155 94 86
f 155 86 146
f 157 107 158
f 157 406 107
f 158 107 105
f 154 158 105
f 154 105 106
f 151 154 106
f 151 106 409
f 79 151 409
f 160 760 82
f 410 160 82
f 12 406 157
f 104 12 157
f 410 223 98
f 160 98 100
f 160 410 98
f 410 406 223
f 223 406 12
f 78 77 224
f 172 78 224
f 173 225 226
f 173 224 225
f 173 172 224
f 174 173 226
f 175 227 228
f 175 226 227
f 175 174 226
f 176 175 228
f 177 176 228
f 177 228 229
f 181 177 229
f 182 230 299
f 182 229 230
f 182 181 229
f 187 299 231
f 187 182 299
f 186 187 231
f 185 231 232
f 185 186 231
f 184 233 234
f 184 232 233
f 184 185 232
f 190 234 235
f 190 184 234
f 189 190 235
f 189 235 236
f 50 189 236
f 50 236 51
f 155 88 94
f 155 149 88
f 167 207 237
f 170 207 167
f 166 167 237
f 166 237 238
f 165 166 238
f 165 212 164
f 165 238 212
f 152 239 240
f 153 152 240
f 153 240 241
f 156 153 241
f 162 241 216
f 156 241 162
f 214 152 83
f 239 152 214
f 239 242 240
f 244 242 239
f 212 253 249
f 212 249 213
f 212 238 253
f 255 245 218
f 247 718 246
f 214 244 239
f 249 244 214
f 245 248 250
f 245 250 218
f 245 243 248
f 142 243 245
f 254 249 214
f 251 243 142
f 135 251 142
f 237 718 774
f 138 142 139
f 138 135 142
f 247 251 135
f 247 252 251
f 238 237 774
f 255 216 241
f 255 218 216
f 238 774 253
f 255 241 240
f 207 246 718
f 207 718 237
f 213 249 254
f 242 255 240
f 246 252 247
f 252 284 257
f 246 257 256
f 246 252 257
f 251 278 258
f 252 251 258
f 252 258 284
f 251 259 243
f 251 278 259
f 248 282 259
f 243 248 259
f 250 218 217
f 250 217 260
f 248 260 282
f 248 250 260
f 213 296 14
f 254 14 16
f 254 213 14
f 254 16 15
f 140 121 245
f 261 121 140
f 142 140 245
f 262 121 261
f 123 262 136
f 247 136 135
f 247 123 136
f 123 121 262
f 245 121 124
f 245 124 255
f 718 126 130
f 774 718 130
f 253 774 130
f 253 130 129
f 249 129 134
f 249 253 129
f 244 134 131
f 244 249 134
f 242 244 131
f 242 131 124
f 255 242 124
f 247 718 126
f 123 247 126
f 49 48 263
f 194 263 264
f 194 49 263
f 194 264 265
f 194 265 266
f 194 266 267
f 194 267 268
f 194 268 269
f 193 269 270
f 193 194 269
f 195 270 271
f 195 193 270
f 196 271 272
f 196 195 271
f 199 272 273
f 199 196 272
f 200 273 274
f 200 199 273
f 204 274 275
f 204 200 274
f 203 204 275
f 203 276 277
f 203 275 276
f 202 203 277
f 201 277 18
f 201 202 277
f 20 201 18
f 273 276 275
f 273 275 274
f 18 277 276
f 271 273 272
f 24 22 19
f 267 270 269
f 267 269 268
f 28 26 24
f 28 19 18
f 28 24 19
f 30 271 270
f 30 276 273
f 30 18 276
f 30 273 271
f 30 28 18
f 263 267 266
f 263 266 265
f 263 265 264
f 32 30 270
f 36 34 32
f 36 270 267
f 36 32 270
f 36 267 263
f 44 263 48
f 44 48 47
f 38 263 44
f 38 36 263
f 40 38 44
f 41 40 44
f 41 44 43
f 278 259 279
f 280 278 279
f 280 279 283
f 281 280 283
f 279 259 282
f 283 279 282
f 280 258 278
f 127 280 281
f 284 258 280
f 284 280 127
f 285 282 260
f 285 260 217
f 122 283 282
f 122 282 285
f 284 286 257
f 127 287 286
f 127 286 284
f 256 257 286
f 217 215 288
f 285 217 288
f 122 285 288
f 122 288 289
f 287 125 290
f 286 290 208
f 286 287 290
f 256 286 208
f 291 293 292
f 293 289 288
f 294 293 291
f 292 288 215
f 293 288 292
f 290 132 210
f 290 210 208
f 132 133 295
f 132 290 125
f 132 295 210
f 294 15 13
f 294 291 15
f 133 128 296
f 295 133 296
f 297 14 296
f 128 13 297
f 296 128 297
f 137 136 262
f 141 137 262
f 141 262 261
f 141 261 140
f 103 223 98
f 103 102 223
f 71 8 7
f 71 7 69
f 6 54 55
f 232 233 298
f 358 55 56
f 358 6 55
f 73 8 71
f 299 232 298
f 53 54 6
f 358 56 57
f 231 232 299
f 74 8 73
f 358 57 59
f 6 52 53
f 77 9 8
f 77 8 74
f 7 59 61
f 7 358 59
f 230 299 300
f 6 51 52
f 7 61 63
f 229 230 300
f 236 51 6
f 298 236 6
f 65 7 63
f 224 9 77
f 301 229 300
f 298 235 236
f 228 229 301
f 67 7 65
f 225 9 224
f 298 234 235
f 69 7 67
f 226 301 9
f 226 9 225
f 298 233 234
f 227 301 226
f 227 228 301
f 377 343 378
f 377 302 343
f 378 343 91
f 303 302 377
f 364 303 376
f 363 303 364
f 366 364 376
f 366 376 304
f 342 378 91
f 305 378 342
f 362 306 363
f 362 97 306
f 344 97 362
f 344 362 361
f 345 344 361
f 222 305 342
f 379 305 222
f 307 345 361
f 339 379 222
f 308 379 339
f 309 308 339
f 349 307 360
f 314 309 340
f 357 3 392
f 358 357 392
f 359 358 392
f 310 367 311
f 310 311 3
f 359 392 4
f 1 310 3
f 1 3 357
f 1 369 310
f 359 4 5
f 396 356 5
f 373 369 1
f 371 356 396
f 372 373 300
f 350 349 360
f 350 360 313
f 372 300 2
f 371 2 356
f 370 372 2
f 370 2 371
f 312 350 313
f 306 302 303
f 306 303 363
f 367 366 304
f 367 304 311
f 85 345 344
f 97 85 344
f 89 97 306
f 382 116 313
f 384 385 361
f 384 361 307
f 383 307 360
f 383 360 313
f 383 384 307
f 382 383 313
f 385 361 362
f 385 363 386
f 362 363 385
f 386 363 364
f 386 364 365
f 387 386 365
f 387 368 388
f 387 365 368
f 389 371 370
f 389 390 371
f 389 370 372
f 397 389 372
f 397 372 373
f 397 373 369
f 118 397 369
f 375 399 374
f 375 400 399
f 401 375 376
f 401 400 375
f 401 377 402
f 402 377 378
f 403 380 379
f 404 379 305
f 404 403 379
f 402 305 378
f 402 404 305
f 112 113 314
f 95 302 343
f 91 95 343
f 89 95 302
f 306 89 302
f 301 9 2
f 301 2 300
f 299 373 1
f 299 300 373
f 298 299 1
f 298 1 357
f 6 298 357
f 336 112 314
f 338 405 112
f 338 112 336
f 338 315 405
f 340 336 314
f 335 316 381
f 355 316 335
f 355 354 316
f 316 351 381
f 317 318 315
f 318 219 315
f 317 315 405
f 320 318 317
f 320 322 321
f 320 319 322
f 318 320 321
f 324 322 319
f 324 323 322
f 326 109 325
f 326 324 109
f 327 324 326
f 327 323 324
f 326 325 327
f 325 109 328
f 329 209 328
f 329 328 109
f 331 332 330
f 331 211 209
f 331 209 329
f 331 329 332
f 331 333 211
f 331 330 333
f 334 206 333
f 334 333 330
f 334 330 332
f 355 334 332
f 335 355 332
f 388 368 119
f 119 310 369
f 118 119 369
f 395 3 115
f 115 3 374
f 399 115 374
f 338 337 336
f 336 341 340
f 337 341 336
f 220 339 309
f 221 220 309
f 221 309 340
f 341 221 340
f 222 339 220
f 347 346 350
f 349 347 350
f 349 348 347
f 349 307 348
f 307 345 348
f 352 351 312
f 346 352 312
f 346 312 350
f 352 316 351
f 352 353 316
f 352 205 353
f 353 354 316
f 355 334 354
f 356 5 359
f 351 381 116
f 312 351 116
f 312 116 313
f 364 365 366
f 368 366 365
f 368 367 366
f 310 367 368
f 310 368 119
f 3 374 311
f 304 311 374
f 375 304 374
f 376 401 303
f 376 304 375
f 377 303 401
f 379 380 308
f 113 308 380
f 309 308 113
f 314 309 113
f 386 387 120
f 388 120 387
f 388 117 120
f 119 117 388
f 394 390 371
f 396 394 371
f 398 394 396
f 111 406 107
f 407 82 110
f 410 406 111
f 114 410 111
f 110 410 114
f 110 82 410
f 420 419 623
f 420 623 624
f 421 420 624
f 422 421 624
f 422 624 417
f 654 608 413
f 653 654 413
f 653 413 414
f 652 414 415
f 652 653 414
f 656 652 415
f 656 415 411
f 457 656 411
f 445 424 519
f 445 423 424
f 427 426 425
f 563 427 425
f 425 426 428
f 172 77 224
f 172 78 77
f 174 225 226
f 174 173 225
f 176 227 228
f 176 175 227
f 177 176 228
f 181 228 229
f 181 177 228
f 187 230 299
f 187 182 230
f 186 299 231
f 186 187 299
f 185 232 233
f 184 185 233
f 189 236 51
f 50 189 51
f 202 277 18
f 201 202 18
f 20 201 18
f 429 668 667
f 430 667 666
f 430 429 667
f 431 430 666
f 431 666 432
f 433 595 599
f 434 433 599
f 135 437 142
f 436 437 135
f 436 435 437
f 440 436 135
f 441 616 438
f 439 441 438
f 142 441 439
f 142 439 442
f 437 441 142
f 435 443 437
f 444 446 150
f 146 444 150
f 445 148 423
f 150 148 445
f 446 150 445
f 147 424 423
f 147 423 148
f 665 596 594
f 665 594 447
f 670 596 665
f 447 594 590
f 669 596 670
f 669 448 596
f 449 447 590
f 668 598 448
f 668 448 669
f 667 598 668
f 452 449 590
f 601 667 666
f 601 598 667
f 450 666 432
f 450 601 666
f 453 451 452
f 656 451 453
f 457 451 656
f 652 656 453
f 653 652 453
f 664 653 453
f 606 450 432
f 654 653 664
f 454 634 657
f 455 643 454
f 658 608 654
f 455 454 657
f 455 657 655
f 663 654 664
f 663 658 654
f 649 456 651
f 649 651 607
f 644 655 456
f 644 455 655
f 582 644 456
f 582 456 649
f 659 662 661
f 659 661 660
f 645 648 646
f 580 648 645
f 580 581 648
f 432 454 643
f 432 643 606
f 454 451 457
f 454 457 634
f 451 449 452
f 659 658 662
f 662 658 663
f 649 648 581
f 649 581 582
f 458 553 459
f 427 469 426
f 460 551 553
f 460 553 458
f 461 459 559
f 560 462 467
f 461 458 459
f 463 551 460
f 464 559 562
f 465 466 469
f 465 469 427
f 464 461 559
f 462 463 460
f 468 560 467
f 468 467 466
f 468 466 465
f 469 464 562
f 467 462 460
f 426 469 562
f 86 470 471
f 86 471 90
f 92 473 472
f 90 471 473
f 90 473 92
f 472 87 92
f 474 187 182
f 474 182 181
f 474 181 177
f 474 183 187
f 100 177 176
f 100 104 101
f 475 474 177
f 475 177 100
f 99 100 101
f 477 476 480
f 479 475 100
f 481 476 477
f 481 478 476
f 481 433 478
f 482 830 490
f 431 483 484
f 429 433 481
f 429 434 433
f 830 477 480
f 830 480 485
f 490 830 485
f 429 486 434
f 487 486 429
f 487 429 430
f 488 487 430
f 488 430 431
f 489 488 431
f 491 482 490
f 492 489 431
f 150 148 147
f 204 147 482
f 200 482 491
f 200 204 482
f 199 200 491
f 196 199 491
f 146 150 147
f 195 491 192
f 195 196 491
f 193 195 192
f 484 492 431
f 27 483 146
f 29 483 27
f 493 484 483
f 494 483 29
f 494 493 483
f 494 31 33
f 494 29 31
f 143 494 33
f 143 33 35
f 188 144 191
f 188 191 179
f 60 171 495
f 62 60 495
f 64 62 495
f 66 495 497
f 66 64 495
f 68 66 497
f 104 70 68
f 104 497 496
f 104 68 497
f 474 183 435
f 475 435 436
f 475 474 435
f 620 435 571
f 188 183 435
f 188 435 620
f 144 620 621
f 144 188 620
f 143 621 500
f 143 144 621
f 498 499 500
f 493 484 498
f 494 493 498
f 143 498 500
f 143 494 498
f 498 501 642
f 484 501 498
f 502 539 542
f 502 542 503
f 492 501 484
f 602 501 492
f 503 602 492
f 503 492 502
f 504 505 506
f 503 506 602
f 503 504 506
f 507 508 504
f 505 504 508
f 509 508 507
f 486 505 508
f 600 486 434
f 600 505 486
f 434 599 597
f 434 597 600
f 428 510 512
f 537 510 428
f 478 593 512
f 478 512 510
f 595 478 433
f 595 593 478
f 511 591 592
f 512 511 592
f 512 592 593
f 513 514 511
f 513 515 514
f 485 516 490
f 591 516 485
f 511 591 485
f 511 485 513
f 516 609 610
f 490 609 516
f 587 516 610
f 609 517 611
f 192 517 609
f 491 192 609
f 490 491 609
f 192 517 518
f 191 518 612
f 191 192 518
f 438 612 613
f 179 612 438
f 179 191 612
f 171 179 438
f 497 496 442
f 497 442 439
f 495 439 438
f 495 497 439
f 171 495 438
f 104 142 442
f 104 442 496
f 139 101 104
f 139 104 142
f 99 101 139
f 138 99 139
f 138 99 100
f 138 100 135
f 479 440 135
f 479 135 100
f 482 449 830
f 482 451 449
f 830 449 447
f 477 830 447
f 477 447 665
f 481 665 670
f 481 477 665
f 481 670 669
f 429 669 668
f 429 481 669
f 483 431 432
f 454 483 432
f 424 451 482
f 147 424 482
f 454 519 444
f 483 444 146
f 483 454 444
f 454 451 519
f 519 451 424
f 20 18 19
f 17 20 19
f 21 22 24
f 23 21 24
f 25 26 28
f 27 28 30
f 27 25 28
f 29 27 30
f 29 30 32
f 31 29 32
f 33 34 36
f 35 36 38
f 35 33 36
f 37 35 38
f 42 40 41
f 42 39 40
f 49 46 47
f 49 47 48
f 479 436 440
f 479 475 436
f 489 502 520
f 492 502 489
f 488 489 520
f 488 520 521
f 487 521 522
f 487 488 521
f 487 508 486
f 487 522 508
f 476 523 524
f 480 476 524
f 480 524 525
f 485 525 513
f 480 525 485
f 510 476 478
f 523 476 510
f 523 527 524
f 509 538 526
f 533 527 523
f 508 538 509
f 508 522 538
f 540 529 515
f 530 531 539
f 510 533 523
f 529 532 534
f 529 534 515
f 529 528 532
f 87 528 529
f 537 526 533
f 537 533 510
f 535 528 87
f 86 535 87
f 520 531 900
f 530 535 86
f 530 536 535
f 521 520 900
f 540 513 525
f 540 515 513
f 521 900 538
f 522 521 538
f 539 536 530
f 509 526 537
f 540 525 524
f 502 539 531
f 502 531 520
f 527 540 524
f 539 536 541
f 539 541 542
f 535 548 543
f 536 535 543
f 536 543 541
f 535 544 528
f 535 548 544
f 532 552 544
f 528 532 544
f 534 515 514
f 534 514 545
f 532 545 552
f 532 534 545
f 509 507 563
f 509 563 425
f 537 509 425
f 537 425 428
f 472 458 529
f 546 458 472
f 87 472 529
f 547 458 546
f 460 547 470
f 530 470 86
f 530 460 470
f 460 458 547
f 529 458 461
f 529 461 540
f 900 531 467
f 900 467 466
f 538 900 466
f 538 466 469
f 526 538 469
f 533 526 469
f 527 469 464
f 527 533 469
f 540 464 461
f 540 527 464
f 530 531 467
f 460 530 467
f 76 74 77
f 76 75 74
f 78 76 77
f 67 73 71
f 67 71 69
f 77 74 73
f 63 67 65
f 226 225 224
f 56 61 59
f 56 59 57
f 228 227 226
f 228 224 77
f 228 226 224
f 228 63 61
f 228 73 67
f 228 77 73
f 228 67 63
f 52 56 55
f 52 55 54
f 52 54 53
f 229 228 61
f 299 230 229
f 299 61 56
f 299 229 61
f 299 56 52
f 235 52 51
f 235 51 236
f 231 52 235
f 231 299 52
f 232 231 235
f 233 232 235
f 233 235 234
f 548 544 549
f 550 548 549
f 550 549 553
f 551 550 553
f 549 544 552
f 553 549 552
f 550 543 548
f 463 550 551
f 554 543 550
f 554 550 463
f 541 543 554
f 555 552 545
f 555 545 514
f 459 553 552
f 459 552 555
f 541 556 542
f 554 556 541
f 554 557 556
f 463 462 557
f 463 557 554
f 514 511 558
f 555 514 558
f 459 555 558
f 459 558 559
f 557 462 560
f 557 560 561
f 556 557 561
f 556 561 503
f 542 556 503
f 562 559 558
f 562 558 511
f 512 562 511
f 561 504 503
f 560 468 561
f 561 468 504
f 512 428 426
f 562 512 426
f 504 465 507
f 504 468 465
f 563 507 465
f 465 427 563
f 471 470 547
f 473 471 547
f 473 547 546
f 473 546 472
f 446 519 444
f 446 445 519
f 275 422 421
f 275 421 274
f 419 265 266
f 40 41 564
f 419 266 267
f 276 422 275
f 264 265 419
f 420 267 268
f 38 40 564
f 420 419 267
f 567 264 419
f 277 422 276
f 420 268 269
f 565 38 564
f 36 38 565
f 567 263 264
f 18 422 277
f 420 269 270
f 34 36 565
f 567 48 263
f 420 270 271
f 32 34 565
f 47 48 567
f 272 420 271
f 19 566 422
f 421 420 272
f 19 422 18
f 28 32 565
f 567 44 47
f 30 32 28
f 273 421 272
f 22 566 19
f 564 44 567
f 564 43 44
f 274 421 273
f 24 28 566
f 24 566 22
f 564 41 43
f 26 28 24
f 639 568 615
f 639 615 616
f 613 639 616
f 637 568 639
f 629 637 638
f 584 637 629
f 631 629 638
f 631 638 569
f 641 613 612
f 628 570 584
f 619 570 628
f 571 619 628
f 614 641 612
f 622 571 628
f 622 628 627
f 572 614 573
f 626 622 627
f 623 419 413
f 623 413 414
f 567 413 419
f 575 632 576
f 575 576 413
f 567 575 413
f 624 623 414
f 624 414 415
f 564 575 567
f 564 577 575
f 411 624 415
f 418 577 564
f 412 417 411
f 416 417 412
f 416 585 418
f 499 578 588
f 570 568 637
f 570 637 584
f 632 631 569
f 632 569 576
f 435 571 619
f 443 435 619
f 437 443 618
f 644 455 579
f 581 580 628
f 582 581 583
f 582 583 579
f 644 582 579
f 580 584 645
f 628 584 580
f 646 645 584
f 646 584 629
f 646 629 630
f 647 646 630
f 647 633 650
f 647 630 633
f 655 657 585
f 655 585 577
f 456 655 577
f 456 577 651
f 636 658 635
f 636 659 658
f 660 636 638
f 660 659 636
f 660 638 637
f 660 639 661
f 637 639 660
f 663 664 572
f 663 572 640
f 662 640 641
f 662 663 640
f 661 641 639
f 661 662 641
f 664 572 574
f 441 617 615
f 616 441 615
f 438 616 613
f 437 441 617
f 618 437 617
f 566 422 417
f 566 417 416
f 28 566 416
f 28 416 418
f 565 28 418
f 565 418 564
f 586 574 611
f 609 452 586
f 610 452 609
f 610 587 452
f 611 609 586
f 643 499 588
f 606 589 643
f 642 589 606
f 605 642 606
f 589 499 643
f 590 591 587
f 591 516 587
f 590 587 452
f 594 593 592
f 591 594 592
f 594 591 590
f 596 595 593
f 596 593 594
f 595 597 599
f 448 598 597
f 598 600 597
f 448 597 595
f 448 595 596
f 601 505 600
f 601 600 598
f 603 450 602
f 603 506 505
f 603 505 601
f 603 601 450
f 603 602 506
f 604 501 602
f 604 602 450
f 605 604 450
f 606 605 450
f 650 633 607
f 651 607 575
f 658 608 635
f 517 573 574
f 517 574 611
f 612 614 518
f 518 573 517
f 614 573 518
f 615 617 568
f 618 570 568
f 618 568 617
f 443 619 570
f 443 570 618
f 621 500 625
f 621 622 620
f 626 621 625
f 626 622 621
f 622 571 620
f 500 499 578
f 500 578 625
f 499 498 589
f 642 604 605
f 642 589 498
f 642 604 501
f 417 411 624
f 578 588 455
f 578 579 625
f 578 455 579
f 626 625 579
f 583 626 579
f 583 627 626
f 583 581 627
f 627 581 628
f 629 630 631
f 633 631 630
f 633 632 631
f 575 632 633
f 575 633 607
f 575 651 577
f 634 412 416
f 585 657 416
f 657 634 416
f 577 585 418
f 413 635 576
f 413 608 635
f 569 576 635
f 636 569 635
f 638 569 636
f 641 613 639
f 640 572 614
f 641 640 614
f 573 572 574
f 643 588 455
f 646 647 648
f 650 648 647
f 650 649 648
f 607 649 650
f 457 634 412
f 411 457 412
f 453 586 452
f 574 586 453
f 664 574 453
f 672 673 675
f 672 675 671
f 674 676 673
f 674 673 672
f 677 676 674
f 672 671 675
f 672 675 673
f 673 674 672
f 674 673 676
f 676 677 674
f 688 680 687
f 681 689 688
f 681 688 689
f 681 682 689
f 690 682 681
f 685 684 683
f 685 683 684
f 678 684 685
f 678 685 684
f 686 678 685
f 686 685 678
f 687 680 679
f 687 679 680
f 687 680 688
f 689 688 687
f 689 687 688
f 682 681 689
f 682 690 681
f 772 773 706
f 705 772 706
f 707 706 708
f 707 705 706
f 707 708 710
f 709 707 710
f 709 710 711
f 712 711 770
f 712 709 711
f 771 712 770
f 713 700 701
f 713 255 700
f 713 701 702
f 714 713 702
f 714 702 703
f 715 714 703
f 716 703 704
f 716 715 703
f 717 704 698
f 717 716 704
f 717 698 699
f 718 717 699
f 719 720 722
f 721 719 722
f 721 722 723
f 724 721 723
f 724 723 726
f 725 724 726
f 693 158 727
f 694 727 728
f 694 693 727
f 695 694 728
f 695 728 729
f 696 729 730
f 696 695 729
f 696 730 731
f 697 731 732
f 697 696 731
f 697 732 733
f 692 697 733
f 692 733 760
f 691 692 760
f 758 753 735
f 734 758 735
f 734 735 737
f 736 734 737
f 736 737 738
f 739 736 738
f 739 738 740
f 741 739 740
f 742 751 743
f 742 743 746
f 744 742 746
f 747 745 743
f 749 725 746
f 747 743 719
f 719 743 721
f 747 750 745
f 748 725 749
f 746 724 721
f 743 746 721
f 746 725 724
f 750 749 745
f 750 748 749
f 755 754 740
f 753 752 751
f 735 742 737
f 751 742 735
f 744 740 738
f 742 744 738
f 742 738 737
f 752 754 755
f 755 740 744
f 753 751 735
f 752 755 751
f 755 746 749
f 755 744 746
f 755 749 745
f 751 755 745
f 751 745 743
f 741 740 754
f 756 741 754
f 756 754 752
f 757 756 752
f 757 752 753
f 758 757 753
f 795 739 765
f 697 692 757
f 734 796 797
f 736 734 797
f 696 697 757
f 734 691 796
f 736 797 759
f 795 741 739
f 758 691 734
f 696 757 756
f 736 759 765
f 693 741 795
f 739 736 765
f 692 691 758
f 695 696 756
f 694 756 741
f 694 695 756
f 757 692 758
f 694 741 693
f 691 760 761
f 796 761 762
f 796 691 761
f 797 796 762
f 797 762 763
f 759 797 763
f 759 763 764
f 765 759 764
f 765 764 766
f 795 765 766
f 795 766 158
f 693 795 158
f 725 726 767
f 748 725 767
f 750 767 768
f 750 748 767
f 750 768 769
f 747 750 769
f 747 769 720
f 719 747 720
f 718 699 792
f 774 718 792
f 253 774 792
f 253 792 793
f 249 793 794
f 249 253 793
f 244 794 789
f 244 249 794
f 242 789 790
f 242 244 789
f 242 790 791
f 255 242 791
f 255 791 700
f 704 698 769
f 704 769 768
f 791 723 790
f 722 792 793
f 720 792 722
f 791 726 723
f 722 793 794
f 720 699 792
f 703 704 768
f 703 768 767
f 769 698 699
f 700 726 791
f 769 699 720
f 789 722 794
f 723 722 789
f 702 703 767
f 790 723 789
f 701 726 700
f 701 767 726
f 701 702 767
f 771 770 773
f 772 771 773
f 774 775 776
f 761 775 774
f 761 170 207
f 761 207 774
f 777 170 207
f 778 170 777
f 779 778 777
f 779 777 780
f 162 779 780
f 162 780 216
f 781 162 216
f 781 216 782
f 782 783 784
f 781 783 782
f 774 253 776
f 244 784 770
f 711 785 710
f 770 785 711
f 708 710 785
f 255 782 242
f 249 244 770
f 770 784 785
f 255 216 782
f 786 708 785
f 786 773 706
f 786 706 708
f 249 770 773
f 207 718 774
f 777 717 718
f 777 718 207
f 777 716 717
f 777 780 715
f 777 715 716
f 715 780 714
f 782 784 242
f 255 780 216
f 776 773 786
f 713 780 255
f 253 249 773
f 253 773 776
f 244 242 784
f 714 780 713
f 787 785 786
f 787 788 785
f 764 783 771
f 764 766 783
f 712 788 709
f 729 779 728
f 707 709 788
f 158 781 766
f 771 788 712
f 771 783 788
f 158 162 781
f 787 707 788
f 787 772 705
f 787 705 707
f 764 771 772
f 170 760 761
f 778 733 760
f 778 732 733
f 763 764 772
f 778 760 170
f 778 731 732
f 775 761 762
f 781 783 766
f 778 779 730
f 778 730 731
f 730 779 729
f 727 779 162
f 727 162 158
f 775 772 787
f 763 772 775
f 762 763 775
f 728 779 727
f 775 786 776
f 787 786 775
f 784 783 788
f 784 788 785
f 813 812 811
f 814 812 813
f 815 814 813
f 817 816 818
f 817 891 816
f 817 818 820
f 819 817 820
f 819 820 890
f 821 819 890
f 431 808 809
f 822 809 810
f 822 431 809
f 822 810 811
f 823 822 811
f 823 811 812
f 824 823 812
f 825 812 814
f 825 824 812
f 826 814 815
f 826 825 814
f 827 815 806
f 827 826 815
f 828 827 806
f 828 806 805
f 829 805 807
f 829 828 805
f 830 829 807
f 831 832 834
f 833 831 834
f 833 834 836
f 835 833 836
f 835 836 838
f 837 835 838
f 839 837 838
f 839 838 840
f 801 531 841
f 801 881 531
f 800 801 841
f 800 841 842
f 802 800 842
f 802 842 843
f 803 843 844
f 803 802 843
f 803 844 845
f 804 845 846
f 804 803 845
f 804 846 847
f 799 847 848
f 799 804 847
f 798 799 848
f 879 798 848
f 879 848 540
f 878 866 850
f 849 878 850
f 849 850 852
f 851 849 852
f 853 852 854
f 853 851 852
f 853 854 871
f 855 853 871
f 857 856 858
f 857 867 856
f 859 858 860
f 859 857 858
f 870 859 860
f 863 861 856
f 863 856 831
f 862 864 861
f 863 862 861
f 864 839 865
f 860 837 835
f 858 860 835
f 860 839 837
f 858 835 833
f 865 839 860
f 856 858 833
f 864 865 861
f 856 833 831
f 866 868 867
f 872 868 866
f 872 869 868
f 874 871 870
f 873 874 870
f 866 867 850
f 859 854 852
f 870 871 854
f 870 854 859
f 857 859 852
f 857 852 850
f 867 857 850
f 869 873 868
f 869 874 873
f 870 860 865
f 873 870 865
f 873 865 861
f 868 873 861
f 867 868 861
f 867 861 856
f 875 871 874
f 875 855 871
f 876 874 869
f 876 875 874
f 877 876 869
f 877 869 872
f 878 877 872
f 878 872 866
f 804 799 877
f 881 853 916
f 804 877 876
f 849 912 913
f 878 880 912
f 878 912 849
f 803 804 876
f 878 879 880
f 849 913 914
f 881 855 853
f 803 876 875
f 851 849 914
f 851 914 915
f 878 798 879
f 801 855 881
f 877 798 878
f 802 803 875
f 851 915 916
f 853 851 916
f 800 855 801
f 799 798 877
f 800 875 855
f 800 802 875
f 880 540 527
f 880 879 540
f 912 527 533
f 912 880 527
f 913 912 533
f 913 533 526
f 914 913 526
f 915 526 538
f 915 914 526
f 916 915 538
f 916 538 900
f 881 916 900
f 881 900 531
f 839 840 882
f 864 839 882
f 864 882 883
f 862 864 883
f 862 883 884
f 863 862 884
f 863 884 832
f 831 863 832
f 830 807 908
f 892 830 908
f 885 908 910
f 885 892 908
f 885 910 909
f 886 885 909
f 886 909 889
f 886 889 911
f 887 886 911
f 887 911 907
f 888 887 907
f 431 888 907
f 431 907 808
f 806 884 883
f 907 836 911
f 907 838 836
f 832 908 910
f 834 832 910
f 815 806 883
f 808 838 907
f 834 910 909
f 832 807 908
f 834 909 889
f 813 815 883
f 813 883 882
f 836 834 889
f 884 805 807
f 884 807 832
f 808 840 838
f 809 840 808
f 811 813 882
f 911 836 889
f 806 805 884
f 810 840 809
f 810 882 840
f 810 811 882
f 821 890 816
f 891 821 816
f 892 893 894
f 895 893 892
f 895 513 485
f 895 485 892
f 896 513 485
f 897 513 896
f 898 897 896
f 898 896 899
f 502 898 899
f 502 899 492
f 900 502 492
f 900 492 888
f 888 901 902
f 900 901 888
f 823 899 822
f 892 885 894
f 886 902 890
f 886 887 902
f 890 903 820
f 824 899 823
f 818 820 903
f 890 902 903
f 431 492 888
f 904 818 903
f 904 816 818
f 886 890 816
f 485 830 892
f 896 829 830
f 896 828 829
f 896 830 485
f 896 827 828
f 896 899 825
f 896 825 826
f 896 826 827
f 825 899 824
f 888 902 887
f 431 899 492
f 885 886 816
f 894 816 904
f 822 899 431
f 885 816 894
f 905 903 904
f 905 906 903
f 527 533 893
f 538 901 821
f 821 906 819
f 895 540 527
f 843 898 842
f 817 819 906
f 821 901 906
f 531 502 900
f 905 817 906
f 905 891 817
f 526 821 891
f 513 848 540
f 526 538 821
f 513 540 895
f 897 847 848
f 897 846 847
f 897 848 513
f 897 845 846
f 893 895 527
f 897 898 844
f 897 844 845
f 844 898 843
f 841 898 502
f 841 502 531
f 533 526 891
f 893 891 905
f 533 891 893
f 842 898 841
f 900 901 538
f 893 904 894
f 905 904 893
f 902 901 906
f 902 906 903
f 920 917 918
f 930 920 918
f 921 930 918
f 921 918 919
f 922 921 919
f 923 922 919
f 923 919 946
f 925 924 926
f 925 944 924
f 925 926 928
f 927 925 928
f 929 927 928
f 929 928 941
f 923 931 932
f 921 935 930
f 922 935 921
f 922 932 935
f 922 923 932
f 933 949 951
f 950 949 933
f 931 950 933
f 931 933 934
f 923 950 931
f 936 952 920
f 933 951 952
f 933 952 936
f 937 933 936
f 935 936 920
f 935 920 930
f 935 938 936
f 939 935 932
f 939 934 933
f 935 939 938
f 937 939 933
f 940 929 941
f 940 941 942
f 943 940 942
f 943 942 924
f 944 943 924
f 927 919 929
f 917 918 925
f 917 944 945
f 940 946 947
f 918 919 927
f 943 947 948
f 943 940 947
f 929 946 940
f 918 927 925
f 929 919 946
f 945 943 948
f 917 925 944
f 944 943 945
f 950 923 946
f 950 946 947
f 949 950 947
f 949 947 948
f 951 949 948
f 951 948 945
f 952 951 945
f 952 945 917
f 920 952 917
f 926 924 942
f 928 926 942
f 928 942 941
f 939 931 932
f 934 939 931
f 939 936 938
f 936 939 937
f 956 977 953
f 956 953 954
f 957 956 954
f 957 954 955
f 958 957 955
f 958 955 974
f 978 958 974
f 959 973 960
f 959 960 961
f 962 959 961
f 962 961 970
f 963 962 970
f 958 967 957
f 958 964 967
f 958 978 964
f 964 979 966
f 978 979 964
f 965 980 977
f 965 977 968
f 965 966 980
f 968 977 956
f 967 968 956
f 967 956 957
f 969 967 964
f 969 964 966
f 967 969 968
f 968 969 965
f 971 963 970
f 971 970 972
f 973 972 960
f 973 971 972
f 955 974 963
f 962 955 963
f 973 971 975
f 971 963 976
f 963 974 976
f 953 973 975
f 955 962 959
f 971 976 975
f 953 959 973
f 954 955 959
f 954 959 953
f 979 974 976
f 979 978 974
f 966 979 976
f 966 976 975
f 980 966 975
f 977 980 975
f 977 975 953
f 961 960 972
f 970 961 972
f 969 965 966
# 2182 faces, 0 coords texture

# End of File
